<?xml version="1.0" encoding="UTF-8" standalone="no"?>
<!-- Created with Inkscape (http://www.inkscape.org/) -->

<svg
   xmlns:dc="http://purl.org/dc/elements/1.1/"
   xmlns:cc="http://creativecommons.org/ns#"
   xmlns:rdf="http://www.w3.org/1999/02/22-rdf-syntax-ns#"
   xmlns:svg="http://www.w3.org/2000/svg"
   xmlns="http://www.w3.org/2000/svg"
   xmlns:sodipodi="http://sodipodi.sourceforge.net/DTD/sodipodi-0.dtd"
   xmlns:inkscape="http://www.inkscape.org/namespaces/inkscape"
   width="32"
   height="32"
   viewBox="0 0 8.4666666 8.4666666"
   version="1.1"
   id="svg8"
   inkscape:version="0.92.5 (2060ec1f9f, 2020-04-08)"
   sodipodi:docname="create-from-template.svg">
  <defs
     id="defs2">
    <style
       id="style1399">.cls-1{fill:#e3e3e3;}</style>
    <style
       id="style1399-4">.cls-1{fill:#e3e3e3;}</style>
    <style
       id="style1399-8">.cls-1{fill:#e3e3e3;}</style>
    <style
       id="style1399-4-5">.cls-1{fill:#e3e3e3;}</style>
    <style
       id="style1399-9">.cls-1{fill:#e3e3e3;}</style>
    <style
       id="style1399-4-6">.cls-1{fill:#e3e3e3;}</style>
    <style
       id="style1399-8-4">.cls-1{fill:#e3e3e3;}</style>
    <style
       id="style1399-4-5-3">.cls-1{fill:#e3e3e3;}</style>
    <style
       id="style1399-88">.cls-1{fill:#e3e3e3;}</style>
  </defs>
  <sodipodi:namedview
     id="base"
     pagecolor="#ffffff"
     bordercolor="#666666"
     borderopacity="1.0"
     inkscape:pageopacity="0.0"
     inkscape:pageshadow="2"
     inkscape:zoom="16"
     inkscape:cx="16.4375"
     inkscape:cy="21.28125"
     inkscape:document-units="mm"
     inkscape:current-layer="svg8"
     showgrid="false"
     units="px"
     inkscape:window-width="1868"
     inkscape:window-height="1016"
     inkscape:window-x="52"
     inkscape:window-y="27"
     inkscape:window-maximized="1"
     inkscape:pagecheckerboard="0"
     inkscape:snap-bbox="true"
     inkscape:bbox-paths="true"
     inkscape:bbox-nodes="true"
     inkscape:snap-bbox-edge-midpoints="true"
     inkscape:snap-bbox-midpoints="true"
     inkscape:snap-nodes="false">
    <sodipodi:guide
       position="8.4666666,0"
       orientation="-32,0"
       id="guide854"
       inkscape:locked="false" />
    <sodipodi:guide
       position="8.5622298,8.4657622"
       orientation="0,-32"
       id="guide856"
       inkscape:locked="false" />
    <sodipodi:guide
       position="0,8.4666814"
       orientation="32,0"
       id="guide858"
       inkscape:locked="false" />
  </sodipodi:namedview>
  <metadata
     id="metadata5">
    <rdf:RDF>
      <cc:Work
         rdf:about="">
        <dc:format>image/svg+xml</dc:format>
        <dc:type
           rdf:resource="http://purl.org/dc/dcmitype/StillImage" />
      </cc:Work>
    </rdf:RDF>
  </metadata>
  <path
     style="fill:#434343;fill-opacity:1;stroke-width:0.0624884"
     d="M 9.5058594 0.00390625 C 8.6747639 0.00390625 8.0058594 0.6727882 8.0058594 1.5039062 L 8.0058594 4.6640625 C 8.954471 3.9591614 10.126161 3.5390625 11.390625 3.5390625 C 14.528935 3.5390625 17.103516 6.1155964 17.103516 9.2539062 C 17.103516 9.9036116 16.846757 10.453454 16.646484 11.025391 L 18.388672 14.044922 C 18.434212 13.978732 18.514808 13.948522 18.558594 13.880859 C 19.14486 12.975604 20.42422 12.601216 21.414062 13.150391 L 21.414062 13.152344 L 21.414062 13.154297 L 21.414062 13.15625 L 21.414062 13.158203 L 22.662109 13.851562 C 23.709278 14.435795 24.126836 15.807851 23.453125 16.871094 C 22.855031 17.815974 22.125877 18.651978 21.341797 19.417969 C 21.428147 19.466139 21.509304 19.523084 21.583984 19.587891 L 24.035156 23.824219 C 24.19248 24.094344 24.25761 24.408337 24.220703 24.71875 L 23.910156 27.308594 C 23.742422 28.696338 22.209438 29.570859 20.927734 29.029297 L 18.529297 28.009766 C 18.241482 27.890212 18.000233 27.680491 17.841797 27.412109 L 15.419922 23.220703 C 15.397782 23.113447 15.387955 23.004015 15.390625 22.894531 C 14.102948 23.273147 12.769252 23.515625 11.390625 23.515625 C 10.214544 23.515625 9.1044851 23.229521 8.0058594 22.919922 L 8.0058594 30.496094 C 8.0058594 31.327212 8.6747639 31.996094 9.5058594 31.996094 L 30.501953 31.996094 C 31.333052 31.996094 32 31.327212 32 30.496094 L 32 8.0019531 L 32 7.6191406 C 32 7.225465 31.843697 6.8456878 31.5625 6.5644531 L 25.445312 0.44140625 C 25.164117 0.15983145 24.782739 0.00390625 24.382812 0.00390625 L 24.001953 0.00390625 L 9.5058594 0.00390625 z M 11.394531 4.9824219 C 9.0347685 4.9824219 7.1210937 6.894142 7.1210938 9.2539062 C 7.1210938 9.9940572 7.3270689 10.680479 7.6582031 11.287109 L 4.6171875 16.552734 C 4.058624 16.036008 3.5517489 15.457753 3.1191406 14.816406 C 2.9059515 14.500406 2.4977662 14.389143 2.1679688 14.580078 L 0.93164062 15.294922 C 0.58226027 15.496984 0.45955192 15.958004 0.68164062 16.294922 C 1.3746158 17.347068 2.2243206 18.262017 3.171875 19.054688 L 0 24.550781 L 0.3125 27.142578 C 0.36947354 27.613906 0.86221389 27.899376 1.2988281 27.712891 L 3.7011719 26.6875 L 6.8515625 21.228516 C 8.284245 21.773281 9.8198727 22.072266 11.394531 22.072266 C 15.802954 22.072266 19.888508 19.801433 22.230469 16.101562 C 22.446773 15.760193 22.316277 15.301299 21.962891 15.105469 L 20.712891 14.412109 C 20.379978 14.227406 19.972582 14.348406 19.765625 14.667969 C 17.935941 17.495501 14.788194 19.224609 11.394531 19.224609 C 10.329479 19.224609 9.2918529 19.03495 8.3046875 18.710938 L 11.302734 13.517578 C 11.333915 13.518439 11.361427 13.527344 11.392578 13.527344 C 11.423759 13.527344 11.453674 13.518447 11.484375 13.517578 L 13.757812 17.457031 C 15.147767 17.058248 16.40966 16.310525 17.435547 15.279297 L 15.128906 11.287109 C 15.460484 10.680479 15.666016 9.9940572 15.666016 9.2539062 C 15.666016 6.894142 13.754296 4.9824219 11.394531 4.9824219 z M 11.394531 7.8300781 C 12.180972 7.8300781 12.818359 8.4674656 12.818359 9.2539062 C 12.818359 10.040345 12.180972 10.679688 11.394531 10.679688 C 10.608092 10.679688 9.96875 10.040345 9.96875 9.2539062 C 9.96875 8.4674656 10.608092 7.8300781 11.394531 7.8300781 z M 11.390625 9.2382812 C 11.385725 9.2432012 11.385725 9.2626571 11.390625 9.2675781 C 11.398025 9.2626581 11.398025 9.2432032 11.390625 9.2382812 z M 11.398438 16.244141 L 10.578125 17.654297 C 10.846451 17.754027 11.116163 17.787109 11.390625 17.787109 C 11.668258 17.787109 11.906565 17.716139 12.171875 17.587891 L 11.398438 16.244141 z M 20.339844 20.310547 C 19.224942 21.215376 17.99722 21.965843 16.666016 22.494141 L 19.085938 26.685547 L 21.488281 27.710938 C 21.924897 27.897421 22.417641 27.613908 22.474609 27.142578 L 22.787109 24.548828 L 20.339844 20.310547 z "
     transform="scale(0.26458333)"
     id="path1112" />
</svg>
