<?xml version="1.0" encoding="UTF-8" standalone="no"?>
<svg
   xmlns:dc="http://purl.org/dc/elements/1.1/"
   xmlns:cc="http://creativecommons.org/ns#"
   xmlns:rdf="http://www.w3.org/1999/02/22-rdf-syntax-ns#"
   xmlns:svg="http://www.w3.org/2000/svg"
   xmlns="http://www.w3.org/2000/svg"
   xmlns:sodipodi="http://sodipodi.sourceforge.net/DTD/sodipodi-0.dtd"
   xmlns:inkscape="http://www.inkscape.org/namespaces/inkscape"
   width="32"
   height="32"
   viewBox="0 0 8.4666666 8.4666666"
   version="1.1"
   id="svg8"
   inkscape:version="1.0.2-2 (e86c870879, 2021-01-15)"
   sodipodi:docname="saveas.svg"
   inkscape:export-filename="D:\DEV_SRC\RxOT\Ramses\Ramses-Maya\icons\openimport.png"
   inkscape:export-xdpi="384"
   inkscape:export-ydpi="384">
  <defs
     id="defs2">
    <style
       id="style1399">.cls-1{fill:#e3e3e3;}</style>
    <style
       id="style1399-1">.cls-1{fill:#e3e3e3;}</style>
    <style
       id="style1399-5">.cls-1{fill:#e3e3e3;}</style>
    <style
       id="style1399-8">.cls-1{fill:#e3e3e3;}</style>
    <style
       id="style1399-7">.cls-1{fill:#e3e3e3;}</style>
    <style
       id="style1399-1-5">.cls-1{fill:#e3e3e3;}</style>
    <style
       id="style1399-5-6">.cls-1{fill:#e3e3e3;}</style>
    <style
       id="style1399-8-9">.cls-1{fill:#e3e3e3;}</style>
    <style
       id="style1399-2">.cls-1{fill:#e3e3e3;}</style>
    <style
       id="style1399-1-1">.cls-1{fill:#e3e3e3;}</style>
    <style
       id="style1399-5-5">.cls-1{fill:#e3e3e3;}</style>
    <style
       id="style1399-8-99">.cls-1{fill:#e3e3e3;}</style>
    <style
       id="style2">.a{filter:url(#a);}.b{fill:#710132;}.c{fill:#e3e3e3;}</style>
    <filter
       name="AI_FlouGaussien_4"
       id="a">
      <feGaussianBlur
         id="feGaussianBlur4"
         stdDeviation="4" />
    </filter>
    <style
       id="style1399-3">.cls-1{fill:#e3e3e3;}</style>
    <style
       id="style1399-4">.cls-1{fill:#e3e3e3;}</style>
    <style
       id="style1399-8-7">.cls-1{fill:#e3e3e3;}</style>
    <style
       id="style1399-4-5">.cls-1{fill:#e3e3e3;}</style>
    <style
       id="style1399-9">.cls-1{fill:#e3e3e3;}</style>
    <style
       id="style1399-4-6">.cls-1{fill:#e3e3e3;}</style>
    <style
       id="style1399-8-4">.cls-1{fill:#e3e3e3;}</style>
    <style
       id="style1399-4-5-3">.cls-1{fill:#e3e3e3;}</style>
    <style
       id="style1399-88">.cls-1{fill:#e3e3e3;}</style>
    <style
       id="style1399-19">.cls-1{fill:#e3e3e3;}</style>
  </defs>
  <sodipodi:namedview
     id="base"
     pagecolor="#ffffff"
     bordercolor="#666666"
     borderopacity="1.0"
     inkscape:pageopacity="0.0"
     inkscape:pageshadow="2"
     inkscape:zoom="15.999999"
     inkscape:cx="32.176679"
     inkscape:cy="16.044929"
     inkscape:document-units="mm"
     inkscape:current-layer="svg8"
     showgrid="false"
     units="px"
     inkscape:window-width="1858"
     inkscape:window-height="1057"
     inkscape:window-x="-5"
     inkscape:window-y="-1"
     inkscape:window-maximized="1"
     inkscape:document-rotation="0">
    <sodipodi:guide
       position="8.4666666,0"
       orientation="-32,0"
       id="guide854"
       inkscape:locked="false" />
    <sodipodi:guide
       position="8.4666666,8.4666666"
       orientation="0,-32"
       id="guide856"
       inkscape:locked="false" />
    <sodipodi:guide
       position="0,8.4666814"
       orientation="32,0"
       id="guide858"
       inkscape:locked="false" />
  </sodipodi:namedview>
  <metadata
     id="metadata5">
    <rdf:RDF>
      <cc:Work
         rdf:about="">
        <dc:format>image/svg+xml</dc:format>
        <dc:type
           rdf:resource="http://purl.org/dc/dcmitype/StillImage" />
        <dc:title></dc:title>
      </cc:Work>
    </rdf:RDF>
  </metadata>
  <path
     style="display:inline;fill:#8ad891;fill-opacity:1;stroke-width:0.0282307"
     d="m 4.1029663,1.2125802 c 0.8565454,0.0034 1.7122867,0.3318748 2.3658096,0.9853955 0.6370364,0.6370282 0.9653789,1.4655637 0.9843211,2.3003306 h 0.6848409 c 0.2899002,0 0.4336255,0.3521107 0.2286374,0.557103 L 7.0816954,6.3402884 c -0.1270656,0.1270597 -0.3323457,0.1270765 -0.4594212,0 L 5.3363218,5.0554093 C 5.1313324,4.8503994 5.2771893,4.4983233 5.5671055,4.4983063 H 6.3668021 C 6.3477374,3.9179627 6.1131966,3.3766395 5.7002093,2.9643952 4.9570573,2.2223572 3.8065727,2.0894902 2.9232823,2.6187547 2.859053,2.6571488 2.7766306,2.6481354 2.7236271,2.5951388 L 2.1751114,2.0455499 C 2.1032174,1.9736972 2.1136327,1.8539478 2.1976556,1.7965173 2.7703301,1.405353 3.4367509,1.2101522 4.1029688,1.2125791 Z M 0.76249619,5.6983855 c 0.41735301,0 0.75568501,0.3383318 0.75568501,0.7556849 0,0.4173529 -0.338332,0.7556856 -0.75568501,0.7556856 -0.41735309,0 -0.75568487,-0.3383323 -0.75568487,-0.7556856 0,-0.4173536 0.33833178,-0.7556849 0.75568487,-0.7556849 z m 1.91604751,0 c 0.4173529,0 0.7556848,0.3383318 0.7556848,0.7556849 0,0.4173529 -0.3383319,0.7556856 -0.7556848,0.7556856 -0.4173527,0 -0.755685,-0.3383327 -0.755685,-0.7556856 0,-0.4173531 0.3383323,-0.7556849 0.755685,-0.7556849 z m 1.9160475,0 c 0.417353,0 0.7556849,0.3383318 0.7556849,0.7556849 0,0.4173529 -0.3383319,0.7556856 -0.7556849,0.7556856 -0.4173517,0 -0.7556849,-0.3383327 -0.7556849,-0.7556856 0,-0.4173531 0.3383332,-0.7556849 0.7556849,-0.7556849 z"
     id="path856"
     inkscape:label="saveas"
     sodipodi:nodetypes="cccscccccccccccccsssssssssssssss" />
</svg>
