<?xml version="1.0" encoding="UTF-8" standalone="no"?>
<!-- Created with Inkscape (http://www.inkscape.org/) -->

<svg
   width="32"
   height="32"
   viewBox="0 0 8.4666666 8.4666666"
   version="1.1"
   id="svg8"
   inkscape:version="1.1 (c68e22c387, 2021-05-23)"
   sodipodi:docname="save-as-copy-duplicate-file.svg"
   xmlns:inkscape="http://www.inkscape.org/namespaces/inkscape"
   xmlns:sodipodi="http://sodipodi.sourceforge.net/DTD/sodipodi-0.dtd"
   xmlns="http://www.w3.org/2000/svg"
   xmlns:svg="http://www.w3.org/2000/svg"
   xmlns:rdf="http://www.w3.org/1999/02/22-rdf-syntax-ns#"
   xmlns:cc="http://creativecommons.org/ns#"
   xmlns:dc="http://purl.org/dc/elements/1.1/">
  <defs
     id="defs2" />
  <sodipodi:namedview
     id="base"
     pagecolor="#ffffff"
     bordercolor="#666666"
     borderopacity="1.0"
     inkscape:pageopacity="0.0"
     inkscape:pageshadow="2"
     inkscape:zoom="15.999999"
     inkscape:cx="35.093752"
     inkscape:cy="16.968751"
     inkscape:document-units="mm"
     inkscape:current-layer="svg8"
     showgrid="false"
     units="px"
     inkscape:window-width="1920"
     inkscape:window-height="1027"
     inkscape:window-x="-8"
     inkscape:window-y="-8"
     inkscape:window-maximized="1"
     inkscape:pagecheckerboard="1"
     inkscape:snap-bbox="true"
     inkscape:bbox-paths="true"
     inkscape:snap-bbox-edge-midpoints="true"
     inkscape:bbox-nodes="true"
     inkscape:snap-bbox-midpoints="true"
     inkscape:snap-nodes="false"
     inkscape:snap-global="false">
    <sodipodi:guide
       position="8.4666666,0"
       orientation="-32,0"
       id="guide854"
       inkscape:locked="false" />
    <sodipodi:guide
       position="8.4666666,8.4666666"
       orientation="0,-32"
       id="guide856"
       inkscape:locked="false" />
    <sodipodi:guide
       position="0,8.4666814"
       orientation="32,0"
       id="guide858"
       inkscape:locked="false" />
  </sodipodi:namedview>
  <metadata
     id="metadata5">
    <rdf:RDF>
      <cc:Work
         rdf:about="">
        <dc:format>image/svg+xml</dc:format>
        <dc:type
           rdf:resource="http://purl.org/dc/dcmitype/StillImage" />
      </cc:Work>
    </rdf:RDF>
  </metadata>
  <path
     id="path861"
     style="fill:#8ad891;fill-opacity:1;stroke-width:0.047616"
     d="M 3.3867188 0 C 2.7534276 0 2.2441406 0.50925047 2.2441406 1.1425781 L 2.2441406 23.236328 C 2.2441406 23.869656 2.7534276 24.378906 3.3867188 24.378906 L 8.3261719 24.378906 L 8.3261719 8.7597656 C 8.3261719 7.306433 9.548624 6.0839844 11.001953 6.0839844 L 20.527344 6.0839844 L 20.527344 5.8046875 C 20.527344 5.5048651 20.409585 5.2122743 20.195312 4.9980469 L 15.533203 0.33398438 C 15.318932 0.11975682 15.02935 -1.110223e-16 14.724609 0 L 3.3867188 0 z M 11.005859 7.6191406 C 10.372568 7.6191406 9.8632812 8.1284381 9.8632812 8.7617188 L 9.8632812 30.855469 C 9.8632812 31.488797 10.372568 31.998047 11.005859 31.998047 L 27.003906 31.998047 C 27.637196 31.998047 28.146484 31.488797 28.146484 30.855469 C 28.125999 29.831432 28.111193 28.844493 28.101562 27.875 L 13.519531 27.875 C 12.746917 27.875 12.125 27.253083 12.125 26.480469 L 12.125 21.457031 C 12.125 20.684417 12.746917 20.0625 13.519531 20.0625 L 28.105469 20.0625 C 28.12336 17.722329 28.146484 15.500646 28.146484 13.421875 L 28.146484 13.419922 C 28.145973 13.120697 28.028257 12.830945 27.814453 12.617188 L 23.152344 7.9511719 C 22.938071 7.7369445 22.646537 7.6191406 22.341797 7.6191406 L 11.005859 7.6191406 z M 15.974609 21.191406 A 2.8125002 2.8125002 0 0 0 13.162109 24.003906 A 2.8125002 2.8125002 0 0 0 15.974609 26.816406 A 2.8125002 2.8125002 0 0 0 18.787109 24.003906 A 2.8125002 2.8125002 0 0 0 15.974609 21.191406 z M 22.357422 21.191406 A 2.8125002 2.8125002 0 0 0 19.544922 24.003906 A 2.8125002 2.8125002 0 0 0 22.357422 26.816406 A 2.8125002 2.8125002 0 0 0 25.169922 24.003906 A 2.8125002 2.8125002 0 0 0 22.357422 21.191406 z M 28.875 21.191406 A 2.8125002 2.8125002 0 0 0 26.0625 24.003906 A 2.8125002 2.8125002 0 0 0 28.875 26.816406 A 2.8125002 2.8125002 0 0 0 31.6875 24.003906 A 2.8125002 2.8125002 0 0 0 28.875 21.191406 z "
     transform="scale(0.26458333)" />
</svg>
