<?xml version="1.0" encoding="UTF-8" standalone="no"?>
<!-- Created with Inkscape (http://www.inkscape.org/) -->

<svg
   width="32"
   height="32"
   viewBox="0 0 8.4666666 8.4666666"
   version="1.1"
   id="svg8"
   inkscape:version="1.1 (c68e22c387, 2021-05-23)"
   sodipodi:docname="save-file-commit_sl.svg"
   xmlns:inkscape="http://www.inkscape.org/namespaces/inkscape"
   xmlns:sodipodi="http://sodipodi.sourceforge.net/DTD/sodipodi-0.dtd"
   xmlns="http://www.w3.org/2000/svg"
   xmlns:svg="http://www.w3.org/2000/svg"
   xmlns:rdf="http://www.w3.org/1999/02/22-rdf-syntax-ns#"
   xmlns:cc="http://creativecommons.org/ns#"
   xmlns:dc="http://purl.org/dc/elements/1.1/">
  <defs
     id="defs2" />
  <sodipodi:namedview
     id="base"
     pagecolor="#ffffff"
     bordercolor="#666666"
     borderopacity="1.0"
     inkscape:pageopacity="0.0"
     inkscape:pageshadow="2"
     inkscape:zoom="11.313708"
     inkscape:cx="-12.241787"
     inkscape:cy="2.7842331"
     inkscape:document-units="mm"
     inkscape:current-layer="svg8"
     showgrid="false"
     units="px"
     inkscape:window-width="1920"
     inkscape:window-height="1027"
     inkscape:window-x="-8"
     inkscape:window-y="-8"
     inkscape:window-maximized="1"
     inkscape:pagecheckerboard="1"
     inkscape:snap-bbox="true"
     inkscape:bbox-paths="true"
     inkscape:snap-bbox-edge-midpoints="true"
     inkscape:bbox-nodes="true"
     inkscape:snap-bbox-midpoints="true"
     inkscape:snap-nodes="false">
    <sodipodi:guide
       position="8.4666666,0"
       orientation="-32,0"
       id="guide854"
       inkscape:locked="false" />
    <sodipodi:guide
       position="8.4666666,8.4666666"
       orientation="0,-32"
       id="guide856"
       inkscape:locked="false" />
    <sodipodi:guide
       position="0,8.4666814"
       orientation="32,0"
       id="guide858"
       inkscape:locked="false" />
  </sodipodi:namedview>
  <metadata
     id="metadata5">
    <rdf:RDF>
      <cc:Work
         rdf:about="">
        <dc:format>image/svg+xml</dc:format>
        <dc:type
           rdf:resource="http://purl.org/dc/dcmitype/StillImage" />
      </cc:Work>
    </rdf:RDF>
  </metadata>
  <path
     id="path1413"
     style="fill:#d588f1;fill-opacity:1;stroke-width:0.0624884"
     d="M 1.5 0 C 0.66890461 0 0 0.66888193 0 1.5 L 0 30.494141 C 0 31.325259 0.66890461 31.994141 1.5 31.994141 L 22.496094 31.994141 C 23.327191 31.994141 23.283321 30.924828 23.994141 30.494141 C 23.987548 27.052313 23.988374 24.586929 23.988281 21.902344 L 17.923828 27.970703 C 16.758169 29.136174 14.82979 29.136573 13.664062 27.970703 L 5.234375 19.539062 C 4.074475 18.379235 4.0745956 16.44696 5.234375 15.287109 L 7.0722656 13.449219 C 8.2320858 12.289326 10.164398 12.289326 11.324219 13.449219 L 15.789062 17.923828 L 23.992188 9.7207031 C 23.992583 9.0617395 23.994141 8.2612613 23.994141 7.6171875 C 23.994141 7.2235119 23.837847 6.8437346 23.556641 6.5625 L 17.439453 0.4375 C 17.158256 0.1559252 16.77688 1.4802974e-16 16.376953 0 L 1.5 0 z M 28.869141 7.7988281 C 28.537298 7.7988281 28.2063 7.9264973 27.953125 8.1796875 L 15.792969 20.341797 L 10.115234 14.662109 C 9.6088862 14.15573 8.7856443 14.15573 8.2792969 14.662109 L 6.4472656 16.498047 C 5.940917 17.004426 5.940917 17.823761 6.4472656 18.330078 L 14.875 26.759766 C 15.381349 27.266176 16.202584 27.266084 16.708984 26.759766 L 31.619141 11.845703 C 32.125489 11.339324 32.125489 10.52002 31.619141 10.013672 L 29.787109 8.1796875 C 29.533935 7.9264977 29.200987 7.7988281 28.869141 7.7988281 z "
     transform="scale(0.26458333)" />
</svg>
