<?xml version="1.0" encoding="UTF-8" standalone="no"?>
<!-- Created with Inkscape (http://www.inkscape.org/) -->

<svg
   width="32"
   height="32"
   viewBox="0 0 8.4666666 8.4666666"
   version="1.1"
   id="svg8"
   inkscape:version="1.1 (c68e22c387, 2021-05-23)"
   sodipodi:docname="savestatus.svg"
   xmlns:inkscape="http://www.inkscape.org/namespaces/inkscape"
   xmlns:sodipodi="http://sodipodi.sourceforge.net/DTD/sodipodi-0.dtd"
   xmlns="http://www.w3.org/2000/svg"
   xmlns:svg="http://www.w3.org/2000/svg"
   xmlns:rdf="http://www.w3.org/1999/02/22-rdf-syntax-ns#"
   xmlns:cc="http://creativecommons.org/ns#"
   xmlns:dc="http://purl.org/dc/elements/1.1/">
  <defs
     id="defs2">
    <style
       id="style1399">.cls-1{fill:#e3e3e3;}</style>
    <style
       id="style1399-4">.cls-1{fill:#e3e3e3;}</style>
    <style
       id="style1399-8">.cls-1{fill:#e3e3e3;}</style>
    <style
       id="style1399-4-5">.cls-1{fill:#e3e3e3;}</style>
    <style
       id="style1399-0">.cls-1{fill:#e3e3e3;}</style>
    <style
       id="style854">.cls-1{fill:#e3e3e3;}</style>
    <style
       id="style1399-84">.cls-1{fill:#e3e3e3;}</style>
    <style
       id="style1399-4-8">.cls-1{fill:#e3e3e3;}</style>
    <style
       id="style1399-8-10">.cls-1{fill:#e3e3e3;}</style>
    <style
       id="style1399-4-5-3">.cls-1{fill:#e3e3e3;}</style>
    <style
       id="style1399-0-0">.cls-1{fill:#e3e3e3;}</style>
    <style
       id="style1399-5">.cls-1{fill:#e3e3e3;}</style>
    <style
       id="style1399-4-6">.cls-1{fill:#e3e3e3;}</style>
    <style
       id="style1399-8-1">.cls-1{fill:#e3e3e3;}</style>
    <style
       id="style1399-4-5-1">.cls-1{fill:#e3e3e3;}</style>
    <style
       id="style1399-0-5">.cls-1{fill:#e3e3e3;}</style>
  </defs>
  <sodipodi:namedview
     id="base"
     pagecolor="#ffffff"
     bordercolor="#666666"
     borderopacity="1.0"
     inkscape:pageopacity="0.0"
     inkscape:pageshadow="2"
     inkscape:zoom="11.313708"
     inkscape:cx="-2.9610098"
     inkscape:cy="6.5849322"
     inkscape:document-units="mm"
     inkscape:current-layer="svg8"
     showgrid="false"
     units="px"
     inkscape:window-width="1920"
     inkscape:window-height="1027"
     inkscape:window-x="-8"
     inkscape:window-y="-8"
     inkscape:window-maximized="1"
     inkscape:pagecheckerboard="1"
     inkscape:snap-bbox="true"
     inkscape:bbox-paths="true"
     inkscape:snap-bbox-edge-midpoints="true"
     inkscape:bbox-nodes="true"
     inkscape:snap-bbox-midpoints="true"
     inkscape:snap-nodes="false">
    <sodipodi:guide
       position="8.4666666,0"
       orientation="-32,0"
       id="guide854"
       inkscape:locked="false" />
    <sodipodi:guide
       position="8.4666666,8.4666666"
       orientation="0,-32"
       id="guide856"
       inkscape:locked="false" />
    <sodipodi:guide
       position="0,8.4666814"
       orientation="32,0"
       id="guide858"
       inkscape:locked="false" />
  </sodipodi:namedview>
  <metadata
     id="metadata5">
    <rdf:RDF>
      <cc:Work
         rdf:about="">
        <dc:format>image/svg+xml</dc:format>
        <dc:type
           rdf:resource="http://purl.org/dc/dcmitype/StillImage" />
      </cc:Work>
    </rdf:RDF>
  </metadata>
  <path
     style="fill:#8ad891;fill-opacity:1;stroke-width:0.0129975"
     d="m 7.941919,5.2249264 c -0.055624,0 -0.1111249,0.021342 -0.1535619,0.063781 L 5.7502078,7.327263 4.7983673,6.3754225 c -0.084874,-0.084879 -0.2226564,-0.084879 -0.3075301,0 l -0.307124,0.3075302 c -0.084874,0.084879 -0.084874,0.2222552 0,0.3071239 l 1.4125265,1.4129327 c 0.084874,0.084884 0.2226474,0.084869 0.30753,0 L 8.4030112,5.9033616 c 0.084874,-0.084879 0.084874,-0.2222499 0,-0.3071238 L 8.0958873,5.2887075 C 8.0534503,5.246268 7.997543,5.2249264 7.941919,5.2249264 Z"
     id="path1415" />
  <path
     id="path849"
     style="fill:#8ad891;fill-opacity:1;stroke-width:0.0122382"
     d="m 6.0938456,3.5008828 c 0.229404,-0.2294046 0.2294049,-0.6012621 0,-0.8306658 L 3.5957284,0.17209938 C 3.4810265,0.05739748 3.3307321,0 3.1803954,0 3.0300587,0 2.879765,0.0573972 2.7650626,0.17209938 1.9007414,1.0364205 1.0364205,1.9007416 0.17209927,2.7650624 0.06192904,2.8752094 2.3535914e-5,3.0246078 0,3.1803953 V 5.6785128 C 0,6.0029464 0.2629981,6.2659452 0.58743237,6.2659452 H 3.0855495 c 0.155787,-2.37e-5 0.3051863,-0.061929 0.4153333,-0.1720995 M 1.3706754,4.3078369 c 0.3244343,0 0.5874325,0.2629986 0.5874325,0.5874324 0,0.3244342 -0.2629984,0.5874323 -0.5874325,0.5874323 -0.3244343,0 -0.58743236,-0.2629981 -0.58743236,-0.5874323 0,-0.3244338 0.26299806,-0.5874324 0.58743236,-0.5874324 z"
     sodipodi:nodetypes="ccsscccssccsssss" />
</svg>
