<?xml version="1.0" encoding="UTF-8" standalone="no"?>
<!-- Created with Inkscape (http://www.inkscape.org/) -->

<svg
   xmlns:dc="http://purl.org/dc/elements/1.1/"
   xmlns:cc="http://creativecommons.org/ns#"
   xmlns:rdf="http://www.w3.org/1999/02/22-rdf-syntax-ns#"
   xmlns:svg="http://www.w3.org/2000/svg"
   xmlns="http://www.w3.org/2000/svg"
   xmlns:sodipodi="http://sodipodi.sourceforge.net/DTD/sodipodi-0.dtd"
   xmlns:inkscape="http://www.inkscape.org/namespaces/inkscape"
   width="32"
   height="32"
   viewBox="0 0 8.4666666 8.4666666"
   version="1.1"
   id="svg8"
   inkscape:version="0.92.5 (2060ec1f9f, 2020-04-08)"
   sodipodi:docname="cinema-movie-settings_bl.svg">
  <defs
     id="defs2">
    <inkscape:path-effect
       effect="taper_stroke"
       id="path-effect879"
       is_visible="true"
       stroke_width="1.77"
       attach_start="1e-07"
       end_offset="1.0001633"
       smoothing="0.5"
       jointype="extrapolated"
       miter_limit="100" />
    <inkscape:path-effect
       effect="mirror_symmetry"
       start_point="4.2333333,0"
       end_point="4.2333333,8.4666667"
       center_point="4.2333333,4.2333333"
       id="path-effect897"
       is_visible="true"
       mode="vertical"
       discard_orig_path="false"
       fuse_paths="false"
       oposite_fuse="false" />
    <inkscape:path-effect
       effect="mirror_symmetry"
       start_point="4.2328811,1.6730093"
       end_point="4.2328811,6.1768975"
       center_point="4.2328811,3.9249534"
       id="path-effect862"
       is_visible="true"
       mode="free"
       discard_orig_path="false"
       fuse_paths="false"
       oposite_fuse="false" />
    <inkscape:path-effect
       effect="mirror_symmetry"
       start_point="4.2333333,0"
       end_point="4.2333333,8.4666667"
       center_point="4.2333333,4.2333333"
       id="path-effect858"
       is_visible="true"
       mode="vertical"
       discard_orig_path="false"
       fuse_paths="false"
       oposite_fuse="false" />
    <inkscape:path-effect
       effect="mirror_symmetry"
       start_point="4.2333333,0"
       end_point="4.2333333,8.4666667"
       center_point="4.2333333,4.2333333"
       id="path-effect854"
       is_visible="true"
       mode="vertical"
       discard_orig_path="false"
       fuse_paths="false"
       oposite_fuse="false" />
    <style
       id="style1399">.cls-1{fill:#e3e3e3;}</style>
    <style
       id="style1399-4">.cls-1{fill:#e3e3e3;}</style>
    <style
       id="style1399-8">.cls-1{fill:#e3e3e3;}</style>
    <style
       id="style1399-4-5">.cls-1{fill:#e3e3e3;}</style>
    <inkscape:path-effect
       oposite_fuse="false"
       fuse_paths="false"
       discard_orig_path="false"
       mode="vertical"
       is_visible="true"
       id="path-effect897-3"
       center_point="4.2333333,4.2333333"
       end_point="4.2333333,8.4666667"
       start_point="4.2333333,0"
       effect="mirror_symmetry" />
    <inkscape:path-effect
       oposite_fuse="false"
       fuse_paths="false"
       discard_orig_path="false"
       mode="free"
       is_visible="true"
       id="path-effect862-8"
       center_point="4.2328811,3.9249534"
       end_point="4.2328811,6.1768975"
       start_point="4.2328811,1.6730093"
       effect="mirror_symmetry" />
    <inkscape:path-effect
       oposite_fuse="false"
       fuse_paths="false"
       discard_orig_path="false"
       mode="vertical"
       is_visible="true"
       id="path-effect858-5"
       center_point="4.2333333,4.2333333"
       end_point="4.2333333,8.4666667"
       start_point="4.2333333,0"
       effect="mirror_symmetry" />
    <inkscape:path-effect
       oposite_fuse="false"
       fuse_paths="false"
       discard_orig_path="false"
       mode="vertical"
       is_visible="true"
       id="path-effect854-6"
       center_point="4.2333333,4.2333333"
       end_point="4.2333333,8.4666667"
       start_point="4.2333333,0"
       effect="mirror_symmetry" />
    <style
       id="style1399-1">.cls-1{fill:#e3e3e3;}</style>
    <style
       id="style1399-4-1">.cls-1{fill:#e3e3e3;}</style>
    <style
       id="style1399-8-5">.cls-1{fill:#e3e3e3;}</style>
    <style
       id="style1399-4-5-9">.cls-1{fill:#e3e3e3;}</style>
    <style
       id="style1399-44">.cls-1{fill:#e3e3e3;}</style>
    <inkscape:path-effect
       miter_limit="100"
       jointype="extrapolated"
       smoothing="0.5"
       end_offset="1.0001633"
       attach_start="1e-07"
       stroke_width="1.77"
       is_visible="true"
       id="path-effect879-5"
       effect="taper_stroke" />
    <inkscape:path-effect
       oposite_fuse="false"
       fuse_paths="false"
       discard_orig_path="false"
       mode="vertical"
       is_visible="true"
       id="path-effect897-9"
       center_point="4.2333333,4.2333333"
       end_point="4.2333333,8.4666667"
       start_point="4.2333333,0"
       effect="mirror_symmetry" />
    <inkscape:path-effect
       oposite_fuse="false"
       fuse_paths="false"
       discard_orig_path="false"
       mode="free"
       is_visible="true"
       id="path-effect862-6"
       center_point="4.2328811,3.9249534"
       end_point="4.2328811,6.1768975"
       start_point="4.2328811,1.6730093"
       effect="mirror_symmetry" />
    <inkscape:path-effect
       oposite_fuse="false"
       fuse_paths="false"
       discard_orig_path="false"
       mode="vertical"
       is_visible="true"
       id="path-effect858-2"
       center_point="4.2333333,4.2333333"
       end_point="4.2333333,8.4666667"
       start_point="4.2333333,0"
       effect="mirror_symmetry" />
    <inkscape:path-effect
       oposite_fuse="false"
       fuse_paths="false"
       discard_orig_path="false"
       mode="vertical"
       is_visible="true"
       id="path-effect854-1"
       center_point="4.2333333,4.2333333"
       end_point="4.2333333,8.4666667"
       start_point="4.2333333,0"
       effect="mirror_symmetry" />
    <style
       id="style1399-7">.cls-1{fill:#e3e3e3;}</style>
    <style
       id="style1399-4-8">.cls-1{fill:#e3e3e3;}</style>
    <style
       id="style1399-8-57">.cls-1{fill:#e3e3e3;}</style>
    <style
       id="style1399-4-5-4">.cls-1{fill:#e3e3e3;}</style>
    <inkscape:path-effect
       effect="mirror_symmetry"
       start_point="4.2333333,0"
       end_point="4.2333333,8.4666667"
       center_point="4.2333333,4.2333333"
       id="path-effect897-3-1"
       is_visible="true"
       mode="vertical"
       discard_orig_path="false"
       fuse_paths="false"
       oposite_fuse="false" />
    <inkscape:path-effect
       effect="mirror_symmetry"
       start_point="4.2328811,1.6730093"
       end_point="4.2328811,6.1768975"
       center_point="4.2328811,3.9249534"
       id="path-effect862-8-8"
       is_visible="true"
       mode="free"
       discard_orig_path="false"
       fuse_paths="false"
       oposite_fuse="false" />
    <inkscape:path-effect
       effect="mirror_symmetry"
       start_point="4.2333333,0"
       end_point="4.2333333,8.4666667"
       center_point="4.2333333,4.2333333"
       id="path-effect858-5-5"
       is_visible="true"
       mode="vertical"
       discard_orig_path="false"
       fuse_paths="false"
       oposite_fuse="false" />
    <inkscape:path-effect
       effect="mirror_symmetry"
       start_point="4.2333333,0"
       end_point="4.2333333,8.4666667"
       center_point="4.2333333,4.2333333"
       id="path-effect854-6-9"
       is_visible="true"
       mode="vertical"
       discard_orig_path="false"
       fuse_paths="false"
       oposite_fuse="false" />
    <style
       id="style1399-1-7">.cls-1{fill:#e3e3e3;}</style>
    <style
       id="style1399-4-1-5">.cls-1{fill:#e3e3e3;}</style>
    <style
       id="style1399-8-5-3">.cls-1{fill:#e3e3e3;}</style>
    <style
       id="style1399-4-5-9-8">.cls-1{fill:#e3e3e3;}</style>
    <style
       id="style1399-44-8">.cls-1{fill:#e3e3e3;}</style>
    <style
       id="style1399-3">.cls-1{fill:#e3e3e3;}</style>
  </defs>
  <sodipodi:namedview
     id="base"
     pagecolor="#ffffff"
     bordercolor="#666666"
     borderopacity="1.0"
     inkscape:pageopacity="0.0"
     inkscape:pageshadow="2"
     inkscape:zoom="8"
     inkscape:cx="-14.466071"
     inkscape:cy="9.2703167"
     inkscape:document-units="mm"
     inkscape:current-layer="svg8"
     showgrid="false"
     units="px"
     inkscape:window-width="1920"
     inkscape:window-height="1043"
     inkscape:window-x="0"
     inkscape:window-y="252"
     inkscape:window-maximized="1"
     inkscape:snap-bbox="true"
     inkscape:bbox-paths="true"
     inkscape:snap-bbox-edge-midpoints="true"
     inkscape:bbox-nodes="true"
     inkscape:snap-bbox-midpoints="true"
     inkscape:snap-nodes="false">
    <sodipodi:guide
       position="8.4666666,0"
       orientation="-32,0"
       id="guide854"
       inkscape:locked="false" />
    <sodipodi:guide
       position="0,8.4666814"
       orientation="0,-32"
       id="guide856"
       inkscape:locked="false" />
    <sodipodi:guide
       position="0,8.4666814"
       orientation="32,0"
       id="guide858"
       inkscape:locked="false" />
  </sodipodi:namedview>
  <metadata
     id="metadata5">
    <rdf:RDF>
      <cc:Work
         rdf:about="">
        <dc:format>image/svg+xml</dc:format>
        <dc:type
           rdf:resource="http://purl.org/dc/dcmitype/StillImage" />
        <dc:title />
      </cc:Work>
    </rdf:RDF>
  </metadata>
  <path
     style="opacity:1;fill:#232323;fill-opacity:1;stroke:none;stroke-width:5.04276514;stroke-linecap:butt;stroke-linejoin:miter;stroke-miterlimit:4;stroke-dasharray:none;stroke-dashoffset:0;stroke-opacity:1"
     d="M 23.203125,0.01367188 C 23.10301,0.01978159 23.001201,0.03353474 22.900391,0.06054687 L 4.3496094,5.03125 C 3.5431243,5.2473471 3.0671061,6.072422 3.2832031,6.8789062 L 3.6386719,8.1953125 C 4.0224009,7.9882435 4.4506852,7.879511 4.8867188,7.8789062 5.8036816,7.8800223 6.6560458,8.3585455 7.1347656,9.140625 L 9.6660156,8.4628906 7.3144531,7.1035156 10.509766,6.2460938 12.863281,7.6054688 15.359375,6.9375 13.005859,5.578125 16.203125,4.7207031 18.556641,6.0800781 21.011719,5.421875 18.658203,4.0625 l 3.197266,-0.8554688 2.34375,1.3515626 c 0.752571,-0.2504829 1.18857,-1.0358535 0.980469,-1.8125 L 24.746094,1.1269531 C 24.557009,0.42127871 23.903934,-0.02909579 23.203125,0.01367188 Z M 4.8867188,8.8378906 C 3.959708,8.8378165 3.2089103,9.5905674 3.2089844,10.517578 3.20891,11.444589 3.9597076,12.195387 4.8867188,12.195312 5.8130798,12.194468 6.564528,11.44394 6.5644531,10.517578 6.564528,9.5912171 5.8130798,8.8387353 4.8867188,8.8378906 Z M 7.3535156,11.443359 C 6.9680616,12.471728 5.9849512,13.152801 4.8867188,13.154297 4.2644997,13.15429 3.663192,12.934295 3.1875,12.533203 c -0.03831,0.133206 -0.064453,0.27016 -0.064453,0.416016 v 10.253906 c 0,0.834935 0.6709243,1.507812 1.5058593,1.507813 H 17.902344 c 0,-0.03312 -4.56e-4,-0.0666 0,-0.09961 l -0.47461,-0.273437 c -0.784919,-0.449851 -1.157924,-1.401336 -0.884765,-2.269532 0.397294,-1.275259 1.072237,-2.424981 1.953125,-3.378906 0.613374,-0.670641 1.621926,-0.820843 2.398437,-0.376953 0.008,0.0043 0.01577,0.0089 0.02344,0.01367 l 0.453125,0.263672 c 0.05789,-0.03433 0.117135,-0.06896 0.175781,-0.101563 v -0.548828 c 0,-0.904747 0.633006,-1.701376 1.523437,-1.896484 0.624126,-0.138972 1.273604,-0.215057 1.927735,-0.216797 0.113973,-3e-4 0.229383,0.01344 0.34375,0.01758 v -2.894531 c 0,-0.741411 -0.531048,-1.352458 -1.234375,-1.480469 l -1.625,1.623047 h -3.308594 l 1.650391,-1.648438 h -2.541016 l -1.650391,1.648438 h -3.310546 l 1.65039,-1.648438 h -2.583984 l -1.650391,1.648438 H 7.4277344 L 9.078125,11.443359 Z"
     transform="scale(0.26458333)"
     id="rect1274"
     inkscape:connector-curvature="0"
     sodipodi:nodetypes="sscccccccccccccccccccsccccccccssccccccccccscccsccccccccccccc" />
  <path
     id="path818"
     d="M 8.419501,7.0014402 8.0882022,6.8101312 c 0.03344,-0.1804302 0.03344,-0.3655182 0,-0.5459439 L 8.419501,6.0728693 C 8.4576079,6.0510846 8.4747175,6.0059929 8.4622743,5.9639959 8.3759501,5.6871341 8.2289652,5.4367148 8.0368743,5.2282925 8.0073219,5.1964358 7.9591044,5.1886426 7.921775,5.2103817 L 7.590476,5.4016952 C 7.4512684,5.2819294 7.2910628,5.1893809 7.1176365,5.1287255 V 4.7468778 c 0,-0.043524 -0.03033,-0.081661 -0.073104,-0.09099 -0.2854148,-0.063777 -0.5778289,-0.060664 -0.8492451,0 -0.042773,0.0093 -0.073103,0.047421 -0.073103,0.09099 V 5.1295003 C 5.9495356,5.1909395 5.78933,5.2834835 5.6493445,5.4024699 L 5.3188234,5.211161 C 5.2807161,5.1893763 5.2332767,5.1963948 5.2037242,5.2290719 5.0116331,5.4367148 4.8646484,5.6871341 4.778324,5.9647752 c -0.013221,0.04202 0.00467,0.087102 0.042773,0.1088734 l 0.3312989,0.191318 c -0.033441,0.1804212 -0.033441,0.3655137 0,0.5459394 L 4.8210972,7.0022195 c -0.038107,0.021785 -0.055216,0.066885 -0.042773,0.108878 0.086324,0.2768617 0.2333091,0.5272765 0.4254002,0.7357033 0.029553,0.031857 0.07777,0.03965 0.1150992,0.017911 L 5.6501223,7.6733981 C 5.78933,7.7931639 5.9495356,7.8857079 6.122962,7.9463724 v 0.3826224 c 0,0.043524 0.03033,0.081661 0.073104,0.09099 0.2854147,0.063777 0.5778287,0.060664 0.849245,0 0.042773,-0.0093 0.073104,-0.047421 0.073104,-0.09099 V 7.9463724 C 7.2910628,7.8849286 7.4512684,7.7923846 7.5912538,7.6733981 L 7.9225527,7.8647116 C 7.96066,7.8864963 8.0080995,7.8794778 8.037652,7.8468008 8.229743,7.6391579 8.3767278,7.3887386 8.463052,7.1110975 8.4747178,7.0683484 8.4576081,7.0232203 8.419501,7.0014402 Z M 6.6199102,7.1593155 c -0.3429643,0 -0.6221575,-0.2791952 -0.6221575,-0.6221585 0,-0.3429633 0.2791932,-0.6221585 0.6221575,-0.6221585 0.3429643,0 0.6221575,0.2791952 0.6221575,0.6221585 0,0.3429633 -0.2791932,0.6221585 -0.6221575,0.6221585 z"
     inkscape:connector-curvature="0"
     style="fill:#10688e;fill-opacity:1;stroke-width:0.00777697" />
</svg>
