<?xml version="1.0" encoding="UTF-8" standalone="no"?>
<svg
   xmlns:dc="http://purl.org/dc/elements/1.1/"
   xmlns:cc="http://creativecommons.org/ns#"
   xmlns:rdf="http://www.w3.org/1999/02/22-rdf-syntax-ns#"
   xmlns:svg="http://www.w3.org/2000/svg"
   xmlns="http://www.w3.org/2000/svg"
   xmlns:sodipodi="http://sodipodi.sourceforge.net/DTD/sodipodi-0.dtd"
   xmlns:inkscape="http://www.inkscape.org/namespaces/inkscape"
   width="32"
   height="32"
   viewBox="0 0 8.4666666 8.4666666"
   version="1.1"
   id="svg8"
   inkscape:version="1.0.2-2 (e86c870879, 2021-01-15)"
   sodipodi:docname="gotosettings.svg"
   inkscape:export-filename="D:\DEV_SRC\RxOT\Ramses\Ramses-Maya\icons\openimport.png"
   inkscape:export-xdpi="384"
   inkscape:export-ydpi="384">
  <defs
     id="defs2">
    <style
       id="style1399">.cls-1{fill:#e3e3e3;}</style>
    <style
       id="style1399-1">.cls-1{fill:#e3e3e3;}</style>
    <style
       id="style1399-5">.cls-1{fill:#e3e3e3;}</style>
    <style
       id="style1399-8">.cls-1{fill:#e3e3e3;}</style>
    <style
       id="style1399-7">.cls-1{fill:#e3e3e3;}</style>
    <style
       id="style1399-1-5">.cls-1{fill:#e3e3e3;}</style>
    <style
       id="style1399-5-6">.cls-1{fill:#e3e3e3;}</style>
    <style
       id="style1399-8-9">.cls-1{fill:#e3e3e3;}</style>
    <style
       id="style1399-2">.cls-1{fill:#e3e3e3;}</style>
    <style
       id="style1399-1-1">.cls-1{fill:#e3e3e3;}</style>
    <style
       id="style1399-5-5">.cls-1{fill:#e3e3e3;}</style>
    <style
       id="style1399-8-99">.cls-1{fill:#e3e3e3;}</style>
    <style
       id="style2">.a{filter:url(#a);}.b{fill:#710132;}.c{fill:#e3e3e3;}</style>
    <filter
       name="AI_FlouGaussien_4"
       id="a">
      <feGaussianBlur
         id="feGaussianBlur4"
         stdDeviation="4" />
    </filter>
    <style
       id="style1399-3">.cls-1{fill:#e3e3e3;}</style>
    <style
       id="style1399-4">.cls-1{fill:#e3e3e3;}</style>
    <style
       id="style1399-8-7">.cls-1{fill:#e3e3e3;}</style>
    <style
       id="style1399-4-5">.cls-1{fill:#e3e3e3;}</style>
    <style
       id="style1399-9">.cls-1{fill:#e3e3e3;}</style>
    <style
       id="style1399-4-6">.cls-1{fill:#e3e3e3;}</style>
    <style
       id="style1399-8-4">.cls-1{fill:#e3e3e3;}</style>
    <style
       id="style1399-4-5-3">.cls-1{fill:#e3e3e3;}</style>
    <style
       id="style1399-88">.cls-1{fill:#e3e3e3;}</style>
    <style
       id="style1399-19">.cls-1{fill:#e3e3e3;}</style>
  </defs>
  <sodipodi:namedview
     id="base"
     pagecolor="#ffffff"
     bordercolor="#666666"
     borderopacity="1.0"
     inkscape:pageopacity="0.0"
     inkscape:pageshadow="2"
     inkscape:zoom="15.999999"
     inkscape:cx="26.364179"
     inkscape:cy="14.607429"
     inkscape:document-units="mm"
     inkscape:current-layer="svg8"
     showgrid="false"
     units="px"
     inkscape:window-width="1858"
     inkscape:window-height="1057"
     inkscape:window-x="-5"
     inkscape:window-y="-1"
     inkscape:window-maximized="1"
     inkscape:document-rotation="0">
    <sodipodi:guide
       position="8.4666666,0"
       orientation="-32,0"
       id="guide854"
       inkscape:locked="false" />
    <sodipodi:guide
       position="8.4666666,8.4666666"
       orientation="0,-32"
       id="guide856"
       inkscape:locked="false" />
    <sodipodi:guide
       position="0,8.4666814"
       orientation="32,0"
       id="guide858"
       inkscape:locked="false" />
  </sodipodi:namedview>
  <metadata
     id="metadata5">
    <rdf:RDF>
      <cc:Work
         rdf:about="">
        <dc:format>image/svg+xml</dc:format>
        <dc:type
           rdf:resource="http://purl.org/dc/dcmitype/StillImage" />
        <dc:title></dc:title>
      </cc:Work>
    </rdf:RDF>
  </metadata>
  <path
     style="display:inline;fill:#232323;fill-opacity:1;stroke-width:0.0167248"
     d="M 4.4090112,2.6233236e-6 C 4.1021106,8.3939175e-4 3.7990791,0.03514071 3.5072308,0.1003721 3.4152449,0.12036649 3.3502427,0.20277985 3.3502427,0.29647849 V 1.118993 C 2.9789513,1.2511215 2.6342129,1.4503955 2.3331658,1.7062826 L 1.6223444,1.2945107 C 1.5403928,1.2476613 1.4383208,1.2628408 1.3747666,1.333114 0.96166301,1.7796625 0.64576384,2.3182641 0.46011782,2.9153478 c -0.0284314,0.090368 0.0101708,0.1873753 0.0921341,0.2341953 L 1.2646175,3.5608004 C 1.2337196,3.727503 1.2185246,3.8964021 1.2141753,4.0652209 H 3.0867087 C 3.1290227,3.3654615 3.7101536,2.808287 4.4203349,2.808287 c 0.737565,0 1.338259,0.600696 1.338259,1.338259 0,0.737563 -0.600694,1.3377442 -1.338259,1.3377442 -0.02209,0 -0.043536,-0.00202 -0.065368,-0.00309 v 1.7531192 c 0,0.4157913 -0.2197625,0.7895163 -0.5229502,1.0181062 0.5093204,0.072183 1.0218282,0.050519 1.5034823,-0.057133 C 5.427484,8.1752916 5.492487,8.0934008 5.492487,7.9997014 V 7.177188 C 5.8637775,7.0450493 6.2085161,6.8457857 6.5095631,6.5898981 L 7.2219285,7.0011553 C 7.3038815,7.0480043 7.405952,7.0328263 7.4695064,6.9625523 7.8826095,6.5160037 8.1985096,5.9779163 8.3841549,5.3808327 8.4092433,5.2888992 8.372423,5.1914179 8.2904765,5.1445785 L 7.5781112,4.7333211 c 0.071916,-0.3880253 0.071916,-0.7860485 0,-1.1740647 L 8.2904769,3.1479993 C 8.3724276,3.1011499 8.4093706,3.0041211 8.3826108,2.9138041 8.1969656,2.3183962 7.8810649,1.7797947 7.4679623,1.3315701 7.4044079,1.2630599 7.3006635,1.246215 7.2203844,1.2929669 L 6.507504,1.7042239 C 6.2081301,1.4466604 5.8639056,1.2478916 5.4909422,1.1174489 V 0.29647849 c 0,-0.0936003 -0.065516,-0.17604358 -0.157503,-0.19610639 C 5.0265385,0.03179374 4.715912,-8.341451e-4 4.4090112,2.6233236e-6 Z M 1.1853513,4.9253099 c -0.36202322,0 -0.54488217,0.439236 -0.2882404,0.6958947 l 0.5430245,0.543539 -1.29605257,1.3825242 c -0.07697156,0.082133 -0.07959291,0.2086272 0,0.2882403 L 0.671151,8.3625765 c 0.0796109,0.079593 0.2086443,0.079593 0.28824045,0 L 2.2554438,6.9800522 2.798983,7.523076 C 3.0542654,7.7783258 3.4948775,7.5991133 3.4948775,7.2348359 V 5.3329642 c 0,-0.2251494 -0.1825046,-0.4076543 -0.4076542,-0.4076543 z"
     id="path818"
     inkscape:label="settings"
     inkscape:export-xdpi="384"
     inkscape:export-ydpi="384"
     inkscape:connector-curvature="0" />
</svg>
