<?xml version="1.0" encoding="UTF-8" standalone="no"?>
<svg
   xmlns:dc="http://purl.org/dc/elements/1.1/"
   xmlns:cc="http://creativecommons.org/ns#"
   xmlns:rdf="http://www.w3.org/1999/02/22-rdf-syntax-ns#"
   xmlns:svg="http://www.w3.org/2000/svg"
   xmlns="http://www.w3.org/2000/svg"
   xmlns:sodipodi="http://sodipodi.sourceforge.net/DTD/sodipodi-0.dtd"
   xmlns:inkscape="http://www.inkscape.org/namespaces/inkscape"
   width="32"
   height="32"
   viewBox="0 0 8.4666666 8.4666666"
   version="1.1"
   id="svg8"
   inkscape:version="1.0.2-2 (e86c870879, 2021-01-15)"
   sodipodi:docname="update.svg"
   inkscape:export-filename="D:\DEV_SRC\RxOT\Ramses\Ramses-Maya\icons\openimport.png"
   inkscape:export-xdpi="384"
   inkscape:export-ydpi="384">
  <defs
     id="defs2">
    <style
       id="style1399">.cls-1{fill:#e3e3e3;}</style>
    <style
       id="style1399-1">.cls-1{fill:#e3e3e3;}</style>
    <style
       id="style1399-5">.cls-1{fill:#e3e3e3;}</style>
    <style
       id="style1399-8">.cls-1{fill:#e3e3e3;}</style>
    <style
       id="style1399-7">.cls-1{fill:#e3e3e3;}</style>
    <style
       id="style1399-1-5">.cls-1{fill:#e3e3e3;}</style>
    <style
       id="style1399-5-6">.cls-1{fill:#e3e3e3;}</style>
    <style
       id="style1399-8-9">.cls-1{fill:#e3e3e3;}</style>
    <style
       id="style1399-2">.cls-1{fill:#e3e3e3;}</style>
    <style
       id="style1399-1-1">.cls-1{fill:#e3e3e3;}</style>
    <style
       id="style1399-5-5">.cls-1{fill:#e3e3e3;}</style>
    <style
       id="style1399-8-99">.cls-1{fill:#e3e3e3;}</style>
    <style
       id="style2">.a{filter:url(#a);}.b{fill:#710132;}.c{fill:#e3e3e3;}</style>
    <filter
       name="AI_FlouGaussien_4"
       id="a">
      <feGaussianBlur
         id="feGaussianBlur4"
         stdDeviation="4" />
    </filter>
    <style
       id="style1399-3">.cls-1{fill:#e3e3e3;}</style>
    <style
       id="style1399-4">.cls-1{fill:#e3e3e3;}</style>
    <style
       id="style1399-8-7">.cls-1{fill:#e3e3e3;}</style>
    <style
       id="style1399-4-5">.cls-1{fill:#e3e3e3;}</style>
    <style
       id="style1399-9">.cls-1{fill:#e3e3e3;}</style>
    <style
       id="style1399-4-6">.cls-1{fill:#e3e3e3;}</style>
    <style
       id="style1399-8-4">.cls-1{fill:#e3e3e3;}</style>
    <style
       id="style1399-4-5-3">.cls-1{fill:#e3e3e3;}</style>
    <style
       id="style1399-88">.cls-1{fill:#e3e3e3;}</style>
    <style
       id="style1399-19">.cls-1{fill:#e3e3e3;}</style>
  </defs>
  <sodipodi:namedview
     id="base"
     pagecolor="#ffffff"
     bordercolor="#666666"
     borderopacity="1.0"
     inkscape:pageopacity="0.0"
     inkscape:pageshadow="2"
     inkscape:zoom="15.999999"
     inkscape:cx="33.551679"
     inkscape:cy="15.169929"
     inkscape:document-units="mm"
     inkscape:current-layer="svg8"
     showgrid="false"
     units="px"
     inkscape:window-width="3440"
     inkscape:window-height="1417"
     inkscape:window-x="1915"
     inkscape:window-y="-8"
     inkscape:window-maximized="1"
     inkscape:document-rotation="0">
    <sodipodi:guide
       position="8.4666666,0"
       orientation="-32,0"
       id="guide854"
       inkscape:locked="false" />
    <sodipodi:guide
       position="8.4666666,8.4666666"
       orientation="0,-32"
       id="guide856"
       inkscape:locked="false" />
    <sodipodi:guide
       position="0,8.4666814"
       orientation="32,0"
       id="guide858"
       inkscape:locked="false" />
  </sodipodi:namedview>
  <metadata
     id="metadata5">
    <rdf:RDF>
      <cc:Work
         rdf:about="">
        <dc:format>image/svg+xml</dc:format>
        <dc:type
           rdf:resource="http://purl.org/dc/dcmitype/StillImage" />
        <dc:title></dc:title>
      </cc:Work>
    </rdf:RDF>
  </metadata>
  <path
     id="path917"
     style="display:inline;fill:#d588f1;fill-opacity:1;stroke-width:0.0272774"
     inkscape:label="update"
     d="M 4.2173622,1.2123325 C 3.5736419,1.2099897 2.9293591,1.3989477 2.3760234,1.7769027 2.2948382,1.8323936 2.2849387,1.9477585 2.3544039,2.0171848 l 0.5299793,0.5312147 c 0.051214,0.051207 0.1306595,0.059952 0.1927198,0.022854 C 3.9305657,2.0598614 5.0422994,2.1884443 5.7603558,2.9054252 6.1593966,3.3037481 6.3861872,3.8265215 6.404608,4.3872674 H 5.6318759 c -0.280126,1.65e-5 -0.4210537,0.3405401 -0.2229866,0.5386271 l 1.2421777,1.24156 c 0.1227843,0.1227853 0.3213457,0.1227688 0.4441202,0 l 1.2415601,-1.24156 C 8.5348131,4.7278246 8.3957244,4.3872674 8.1156139,4.3872674 H 7.4540662 C 7.4357634,3.5806901 7.1183452,2.7803295 6.502821,2.164813 5.8713671,1.5333613 5.0449825,1.2156197 4.2173622,1.2123325 Z M 1.5859959,2.4878658 c -0.080282,2e-6 -0.160364,0.030651 -0.2217513,0.092036 L 0.12268447,3.8214619 C -0.07538139,4.0195318 0.06370762,4.3594712 0.34381808,4.3594712 H 1.0053658 c 0.018302,0.8065775 0.3357209,1.6075558 0.9512451,2.2230721 0.6314538,0.6314517 1.4578385,0.9485758 2.2854589,0.9518629 0.64372,0.00234 1.288003,-0.1859973 1.8413385,-0.5639526 0.08119,-0.055492 0.091086,-0.1714739 0.021619,-0.2408996 L 5.5750481,6.1983392 C 5.5238342,6.1471313 5.4443887,6.138387 5.3823284,6.1754831 4.528866,6.6868747 3.4171325,6.5589094 2.699076,5.8419296 2.3000345,5.4436066 2.0732447,4.9202156 2.0548238,4.3594697 H 2.8275559 C 3.1076821,4.3594532 3.2486096,4.0195473 3.0505426,3.8214602 L 1.8083648,2.5799018 C 1.7469727,2.5185097 1.6662777,2.4878633 1.5859959,2.4878658 Z" />
</svg>
