<?xml version="1.0" encoding="UTF-8" standalone="no"?>
<svg
   xmlns:dc="http://purl.org/dc/elements/1.1/"
   xmlns:cc="http://creativecommons.org/ns#"
   xmlns:rdf="http://www.w3.org/1999/02/22-rdf-syntax-ns#"
   xmlns:svg="http://www.w3.org/2000/svg"
   xmlns="http://www.w3.org/2000/svg"
   xmlns:sodipodi="http://sodipodi.sourceforge.net/DTD/sodipodi-0.dtd"
   xmlns:inkscape="http://www.inkscape.org/namespaces/inkscape"
   width="32"
   height="32"
   viewBox="0 0 8.4666666 8.4666666"
   version="1.1"
   id="svg8"
   inkscape:version="1.0.2-2 (e86c870879, 2021-01-15)"
   sodipodi:docname="icons.svg"
   inkscape:export-filename="D:\DEV_SRC\RxOT\Ramses\Ramses-Maya\icons\openimport.png"
   inkscape:export-xdpi="384"
   inkscape:export-ydpi="384">
  <defs
     id="defs2">
    <style
       id="style1399">.cls-1{fill:#e3e3e3;}</style>
    <style
       id="style1399-1">.cls-1{fill:#e3e3e3;}</style>
    <style
       id="style1399-5">.cls-1{fill:#e3e3e3;}</style>
    <style
       id="style1399-8">.cls-1{fill:#e3e3e3;}</style>
    <style
       id="style1399-7">.cls-1{fill:#e3e3e3;}</style>
    <style
       id="style1399-1-5">.cls-1{fill:#e3e3e3;}</style>
    <style
       id="style1399-5-6">.cls-1{fill:#e3e3e3;}</style>
    <style
       id="style1399-8-9">.cls-1{fill:#e3e3e3;}</style>
    <style
       id="style1399-2">.cls-1{fill:#e3e3e3;}</style>
    <style
       id="style1399-1-1">.cls-1{fill:#e3e3e3;}</style>
    <style
       id="style1399-5-5">.cls-1{fill:#e3e3e3;}</style>
    <style
       id="style1399-8-99">.cls-1{fill:#e3e3e3;}</style>
    <style
       id="style2">.a{filter:url(#a);}.b{fill:#710132;}.c{fill:#e3e3e3;}</style>
    <filter
       name="AI_FlouGaussien_4"
       id="a">
      <feGaussianBlur
         id="feGaussianBlur4"
         stdDeviation="4" />
    </filter>
    <style
       id="style1399-3">.cls-1{fill:#e3e3e3;}</style>
    <style
       id="style1399-4">.cls-1{fill:#e3e3e3;}</style>
    <style
       id="style1399-8-7">.cls-1{fill:#e3e3e3;}</style>
    <style
       id="style1399-4-5">.cls-1{fill:#e3e3e3;}</style>
    <style
       id="style1399-9">.cls-1{fill:#e3e3e3;}</style>
    <style
       id="style1399-4-6">.cls-1{fill:#e3e3e3;}</style>
    <style
       id="style1399-8-4">.cls-1{fill:#e3e3e3;}</style>
    <style
       id="style1399-4-5-3">.cls-1{fill:#e3e3e3;}</style>
    <style
       id="style1399-88">.cls-1{fill:#e3e3e3;}</style>
    <style
       id="style1399-19">.cls-1{fill:#e3e3e3;}</style>
  </defs>
  <sodipodi:namedview
     id="base"
     pagecolor="#ffffff"
     bordercolor="#666666"
     borderopacity="1.0"
     inkscape:pageopacity="0.0"
     inkscape:pageshadow="2"
     inkscape:zoom="15.999999"
     inkscape:cx="32.176679"
     inkscape:cy="16.044929"
     inkscape:document-units="mm"
     inkscape:current-layer="svg8"
     showgrid="false"
     units="px"
     inkscape:window-width="1858"
     inkscape:window-height="1057"
     inkscape:window-x="-5"
     inkscape:window-y="-1"
     inkscape:window-maximized="1"
     inkscape:document-rotation="0">
    <sodipodi:guide
       position="8.4666666,0"
       orientation="-32,0"
       id="guide854"
       inkscape:locked="false" />
    <sodipodi:guide
       position="8.4666666,8.4666666"
       orientation="0,-32"
       id="guide856"
       inkscape:locked="false" />
    <sodipodi:guide
       position="0,8.4666814"
       orientation="32,0"
       id="guide858"
       inkscape:locked="false" />
  </sodipodi:namedview>
  <metadata
     id="metadata5">
    <rdf:RDF>
      <cc:Work
         rdf:about="">
        <dc:format>image/svg+xml</dc:format>
        <dc:type
           rdf:resource="http://purl.org/dc/dcmitype/StillImage" />
        <dc:title></dc:title>
      </cc:Work>
    </rdf:RDF>
  </metadata>
  <path
     style="display:none;fill:#d588f1;fill-opacity:1;stroke-width:0.0193407"
     d="m 3.4129115,1.5549233 c 0.685226,0.00261 1.3696415,0.2650357 1.892454,0.7878456 0.5096297,0.5096315 0.7719688,1.1722491 0.7871073,1.8400298 h 0.5478741 c 0.144945,0 0.2441429,0.1095877 0.2584312,0.2318495 0.0086,0.073383 -0.013028,0.1517942 -0.074576,0.2133902 L 5.7956463,5.6558559 c -0.1016181,0.1017233 -0.2660629,0.1016749 -0.3677105,0 L 4.39938,4.6280384 C 4.2354055,4.4640515 4.3521032,4.1828074 4.5839736,4.1827987 H 5.2234059 C 5.208163,3.7185367 5.0214361,3.2839329 4.6910378,2.9541433 4.096535,2.3605379 3.1751391,2.2553147 2.4685303,2.6787294 2.4169831,2.7095743 2.3521619,2.7026901 2.3097797,2.6602693 L 1.8697084,2.2201986 C 1.8122289,2.1626276 1.8210193,2.0666964 1.8881677,2.0208377 2.3463067,1.7079079 2.8799578,1.5531087 3.4129115,1.5549233 Z"
     id="path4547"
     inkscape:label="save"
     inkscape:connector-curvature="0"
     sodipodi:nodetypes="cccsccccccccccccc" />
  <path
     inkscape:connector-curvature="0"
     id="path4555"
     d="M 4.2665772,1.5326964 C 4.957423,1.5354464 5.6476212,1.80037 6.17472,2.3274672 6.688522,2.8412622 6.9533463,3.5095175 6.9686254,4.1827987 h 0.5523573 c 0.2338196,0 0.3497399,0.2839948 0.1844073,0.4493314 L 6.6690713,5.6684493 c -0.1024865,0.1024798 -0.2680548,0.1024932 -0.3705471,0 L 5.2613398,4.6321301 C 5.0960054,4.4667793 5.2136483,4.1828125 5.4474786,4.1827987 H 6.0924728 C 6.0770957,3.7147227 5.887928,3.2781185 5.5548335,2.9456227 4.9554438,2.347132 4.0275203,2.2399677 3.3151026,2.6668465 3.263298,2.6978134 3.1968207,2.6905437 3.1540707,2.6477992 L 2.7116654,2.2045281 C 2.6536794,2.1465754 2.6620816,2.0499915 2.7298484,2.003671 3.191739,1.6881774 3.729241,1.5307381 4.2665789,1.5326956 Z M 2.860577,3.2313247 h 0.27791 c 0.1533804,0 0.2779101,0.1245324 0.2779101,0.27791 v 1.2501629 h 1.250163 c 0.1533804,-5e-7 0.2779101,0.1245241 0.2779101,0.27791 v 0.2779101 c 0,0.1533737 -0.1245308,0.2770444 -0.2779101,0.2770444 h -1.250163 v 1.2501624 c 0,0.1533871 -0.1245291,0.27791 -0.2779101,0.27791 h -0.27791 c -0.1533821,0 -0.2779101,-0.1245241 -0.2779101,-0.27791 V 5.5922621 h -1.249297 c -0.1533821,0 -0.2779101,-0.1236731 -0.2779101,-0.2770444 V 5.0373076 c 0,-0.1533871 0.1245308,-0.27791 0.2779101,-0.27791 h 1.249297 V 3.5092347 c 0,-0.1533771 0.1245292,-0.27791 0.2779101,-0.27791 z"
     style="display:none;fill:#8ad891;fill-opacity:1;stroke-width:0.0227696"
     inkscape:label="saveIncremental"
     sodipodi:nodetypes="cccscccccccccccccsssccssscsssscsssscss" />
  <path
     style="display:none;fill:#232323;fill-opacity:1;stroke-width:0.0167248"
     d="M 4.4090112,2.6233236e-6 C 4.1021106,8.3939175e-4 3.7990791,0.03514071 3.5072308,0.1003721 3.4152449,0.12036649 3.3502427,0.20277985 3.3502427,0.29647849 V 1.118993 C 2.9789513,1.2511215 2.6342129,1.4503955 2.3331658,1.7062826 L 1.6223444,1.2945107 C 1.5403928,1.2476613 1.4383208,1.2628408 1.3747666,1.333114 0.96166301,1.7796625 0.64576384,2.3182641 0.46011782,2.9153478 c -0.0284314,0.090368 0.0101708,0.1873753 0.0921341,0.2341953 L 1.2646175,3.5608004 C 1.2337196,3.727503 1.2185246,3.8964021 1.2141753,4.0652209 H 3.0867087 C 3.1290227,3.3654615 3.7101536,2.808287 4.4203349,2.808287 c 0.737565,0 1.338259,0.600696 1.338259,1.338259 0,0.737563 -0.600694,1.3377442 -1.338259,1.3377442 -0.02209,0 -0.043536,-0.00202 -0.065368,-0.00309 v 1.7531192 c 0,0.4157913 -0.2197625,0.7895163 -0.5229502,1.0181062 0.5093204,0.072183 1.0218282,0.050519 1.5034823,-0.057133 C 5.427484,8.1752916 5.492487,8.0934008 5.492487,7.9997014 V 7.177188 C 5.8637775,7.0450493 6.2085161,6.8457857 6.5095631,6.5898981 L 7.2219285,7.0011553 C 7.3038815,7.0480043 7.405952,7.0328263 7.4695064,6.9625523 7.8826095,6.5160037 8.1985096,5.9779163 8.3841549,5.3808327 8.4092433,5.2888992 8.372423,5.1914179 8.2904765,5.1445785 L 7.5781112,4.7333211 c 0.071916,-0.3880253 0.071916,-0.7860485 0,-1.1740647 L 8.2904769,3.1479993 C 8.3724276,3.1011499 8.4093706,3.0041211 8.3826108,2.9138041 8.1969656,2.3183962 7.8810649,1.7797947 7.4679623,1.3315701 7.4044079,1.2630599 7.3006635,1.246215 7.2203844,1.2929669 L 6.507504,1.7042239 C 6.2081301,1.4466604 5.8639056,1.2478916 5.4909422,1.1174489 V 0.29647849 c 0,-0.0936003 -0.065516,-0.17604358 -0.157503,-0.19610639 C 5.0265385,0.03179374 4.715912,-8.341451e-4 4.4090112,2.6233236e-6 Z M 1.1853513,4.9253099 c -0.36202322,0 -0.54488217,0.439236 -0.2882404,0.6958947 l 0.5430245,0.543539 -1.29605257,1.3825242 c -0.07697156,0.082133 -0.07959291,0.2086272 0,0.2882403 L 0.671151,8.3625765 c 0.0796109,0.079593 0.2086443,0.079593 0.28824045,0 L 2.2554438,6.9800522 2.798983,7.523076 C 3.0542654,7.7783258 3.4948775,7.5991133 3.4948775,7.2348359 V 5.3329642 c 0,-0.2251494 -0.1825046,-0.4076543 -0.4076542,-0.4076543 z"
     id="path818"
     inkscape:label="settings"
     inkscape:export-xdpi="384"
     inkscape:export-ydpi="384"
     inkscape:connector-curvature="0" />
  <g
     inkscape:label="ramses"
     id="layer1"
     transform="matrix(0.74839892,0,0,0.74839892,-29.969337,-192.76288)"
     style="display:none">
    <circle
       style="display:inline;opacity:1;fill:#e3e4e3;fill-opacity:0;fill-rule:nonzero;stroke:#e3e3e3;stroke-width:0.668093;stroke-linecap:butt;stroke-linejoin:round;stroke-miterlimit:4;stroke-dasharray:none;stroke-opacity:1;paint-order:markers fill stroke"
       id="circle834"
       cx="45.701122"
       cy="263.22354"
       r="3.7472262" />
    <path
       style="display:inline;fill:#e3e3e3;fill-opacity:1;stroke-width:0.0181958"
       d="m 44.366839,260.09884 c -0.235049,-7.7e-4 -0.480995,0.0222 -0.731222,0.0734 a 3.7472262,3.7472262 0 0 0 -1.814359,3.20601 3.7472262,3.7472262 0 0 0 0.145211,1.02836 c 0.104146,0.0906 0.218532,0.17088 0.348816,0.23203 0.781871,0.36756 1.300719,0.37489 1.55546,0.62218 0.230982,0.22366 0.04885,0.85921 -0.30024,1.28261 a 3.7472262,3.7472262 0 0 0 0.186035,0.11421 l 2.217953,-0.001 c -0.180872,-0.31329 0.517319,-1.00144 0.752409,-0.91519 0.239276,0.0877 0.669668,0.10362 0.774113,-0.11989 0.104442,-0.22343 -0.0956,-0.49499 -0.0956,-0.51883 0,-0.0237 0.127466,-0.47847 0.14366,-0.50229 0.01619,-0.0237 0.09652,-0.0637 0.103354,-0.14366 0.0112,-0.13125 -0.114722,-0.20206 -0.114722,-0.20206 0.04992,-0.0733 0.202683,-0.11207 0.16278,-0.26871 0,0 -0.213533,-0.35313 -0.182417,-0.55966 0.03111,-0.20651 0.326027,-0.23883 0.381888,-0.38241 -0.271299,-0.8299 -0.733669,-0.98147 -0.933276,-1.06918 -0.199607,-0.0877 -0.247726,-0.36672 -0.279569,-0.5023 -0.03184,-0.13554 -0.183613,-0.25544 -0.303341,-0.35915 -0.119728,-0.10377 -0.255268,-0.42283 -0.494543,-0.59841 -0.364318,-0.24432 -0.907546,-0.41158 -1.522905,-0.41496 z m 1.895491,1.70171 c 0,0 0.349065,0.2198 0.29714,0.6196 0,0 -0.296784,0.14868 -0.866614,0 0.123879,-0.34789 0.569474,-0.6196 0.569474,-0.6196 z"
       id="circle15"
       inkscape:connector-curvature="0" />
  </g>
  <path
     style="display:none;fill:#8ad891;fill-opacity:1;stroke-width:0.0248473"
     d="M 4.2665772,1.5326964 C 5.8011607,1.5299364 7.0536516,2.7795065 7.0536381,4.3140886 7.0536356,4.6276531 6.9990681,4.927568 6.9034202,5.2087822 6.7549857,5.009532 6.5206179,4.8771696 6.2572002,4.8771696 H 6.0701363 c 0.054445,-0.1735598 0.08439,-0.3576348 0.085974,-0.54702 C 6.1650732,3.2593213 5.2916658,2.4212845 4.2552402,2.4302246 3.779315,2.4343362 3.3316743,2.6134047 2.9854742,2.9375641 L 3.4531331,3.4061682 C 3.6227226,3.5757688 3.5030763,3.8653248 3.2632352,3.8653248 H 1.7591671 c -0.1486816,0 -0.2692581,-0.1205775 -0.2692581,-0.2692586 V 2.0919981 c 0,-0.2398387 0.2895555,-0.3594985 0.4591566,-0.189898 L 2.349646,2.3026811 C 2.8479269,1.826498 3.5232397,1.5340484 4.2665772,1.5326964 Z M 2.2740647,5.356166 H 6.256255 c 0.1832405,0 0.3316131,0.148374 0.3316131,0.331613 v 0.3316131 c 0,0.1832386 -0.148373,0.3316131 -0.3316131,0.3316131 H 2.2740647 c -0.18324,0 -0.3316126,-0.148374 -0.3316126,-0.3316131 V 5.687779 c 0,-0.1832395 0.1483721,-0.331613 0.3316126,-0.331613 z"
     id="path4555-4"
     inkscape:label="retrieve"
     inkscape:connector-curvature="0"
     sodipodi:nodetypes="cscscccccsssssccsssssssss" />
  <path
     style="display:none;fill:#8ad891;fill-opacity:1;stroke-width:0.0212445"
     d="m 3.9522133,1.5343479 c 0.5418135,0 0.9814486,0.4396356 0.9814486,0.9814485 0,0.1699425 -0.047459,0.3268019 -0.1235898,0.4660871 L 5.3391659,3.89871 C 5.1036171,4.1354851 4.8141795,4.3071615 4.4950392,4.3987235 L 3.9732153,3.4948215 c -0.00704,1.877e-4 -0.013842,0.00161 -0.021001,0.00161 -0.00716,0 -0.013843,-0.0014 -0.021001,-0.00161 L 3.2429861,4.6870999 c 0.226658,0.074395 0.4646868,0.1179353 0.709228,0.1179353 0.7792015,0 1.5024039,-0.3976632 1.9225086,-1.0468784 0.047518,-0.07338 0.1408538,-0.1005678 0.2172916,-0.058159 l 0.286761,0.1591321 c 0.081139,0.044964 0.111863,0.1502208 0.062198,0.2286007 C 5.9032481,4.9372384 4.9644087,5.458527 3.9522136,5.458527 3.5906642,5.458527 3.238325,5.389742 2.9093741,5.2646606 L 2.1856068,6.5183294 1.6347029,6.7533926 C 1.534454,6.7962116 1.4208014,6.7307532 1.4077178,6.6225325 L 1.3358257,6.0272012 2.0644403,4.766262 C 1.8468773,4.5842613 1.6516449,4.3737354 1.4925342,4.1321574 1.4415417,4.0547998 1.4696673,3.949143 1.5498864,3.9027491 L 1.8334161,3.7379624 c 0.075724,-0.04384 0.1699584,-0.017627 0.2189074,0.05493 0.099329,0.1472561 0.215864,0.2795906 0.3441128,0.3982336 L 3.0943553,2.981884 C 3.0183257,2.8425983 2.9715732,2.6857389 2.9715732,2.5157964 c 0,-0.5418129 0.438828,-0.9814485 0.9806401,-0.9814485 z m 0,0.6542989 c -0.1805706,0 -0.3271497,0.1465791 -0.3271497,0.3271496 0,0.1805706 0.1465795,0.3271497 0.3271497,0.3271497 0.180571,0 0.3271497,-0.1465791 0.3271497,-0.3271497 0,-0.1805705 -0.1465791,-0.3271496 -0.3271497,-0.3271496 z M 6.0063892,5.0546384 6.5686018,6.0272012 6.4967097,6.6225325 C 6.4836281,6.7307523 6.3699734,6.7962103 6.2697246,6.7533926 L 5.7188205,6.5183294 5.1630703,5.5554597 C 5.4687216,5.4341599 5.7504024,5.2623916 6.0063892,5.0546384 Z"
     id="path4594"
     inkscape:label="publishTemplate"
     inkscape:connector-curvature="0"
     sodipodi:nodetypes="ssccccsccsccccsccccccccccccssssssssccccccc" />
  <path
     style="display:none;fill:#d588f1;fill-opacity:1;stroke-width:0.0229702"
     d="m 2.5187367,1.6298745 h 3.6446838 c 0.3350091,0 0.6070106,0.2728735 0.6070106,0.6078839 V 4.970616 c 0,0.3350051 -0.2720015,0.6070106 -0.6070106,0.6070106 H 4.7965548 L 3.611356,6.467618 C 3.536383,6.522663 3.4296896,6.4680455 3.4296896,6.375038 V 5.5776266 H 2.5187367 c -0.335009,0 -0.6070106,-0.2720055 -0.6070106,-0.6070106 V 2.2377584 c 0,-0.3350104 0.2720016,-0.6078839 0.6070106,-0.6078839 z"
     id="path847"
     inkscape:label="savecomment"
     inkscape:connector-curvature="0"
     sodipodi:nodetypes="sssssccscssss"
     inkscape:export-xdpi="384"
     inkscape:export-ydpi="384" />
  <path
     style="display:none;fill:#8ad891;fill-opacity:1;stroke-width:0.0226398"
     d="m 4.2769767,1.5477903 c 0.6869111,0.00274 1.3731782,0.2661491 1.8972749,0.7902441 0.5108756,0.5108686 0.7741916,1.1753178 0.7893836,1.8447643 h 0.5492114 c 0.2324875,0 0.3477479,0.2823773 0.183357,0.4467722 L 6.6657872,5.6599877 c -0.1019023,0.1018961 -0.2665276,0.1019094 -0.3684364,0 L 5.2660736,4.6295709 C 5.1016805,4.4651619 5.2186537,4.1828123 5.4511522,4.1827987 H 6.0924728 C 6.0771834,3.7173887 5.8890932,3.2832712 5.5578957,2.9526692 4.9619199,2.3575872 4.0392818,2.2510337 3.3309215,2.6754807 3.2794119,2.7062713 3.2133132,2.699043 3.1708067,2.6565418 L 2.7309212,2.2157956 C 2.6732654,2.1581729 2.6816179,2.0621391 2.7490005,2.0160824 3.2082604,1.7023857 3.7427011,1.5458431 4.2769785,1.5477895 Z M 1.5696582,3.7239751 h 2.4352952 c 0.2238498,0 0.4054523,0.1824625 0.4054523,0.4063131 v 1.8266866 c 0,0.2238467 -0.1816025,0.4054522 -0.4054523,0.4054522 H 3.0916103 l -0.791966,0.5948352 c -0.050096,0.03678 -0.1213775,1.671e-4 -0.1213775,-0.06198 V 6.362427 H 1.5696582 C 1.3458086,6.362427 1.164206,6.1808215 1.164206,5.9569748 V 4.1302882 c 0,-0.2238506 0.1816026,-0.4063131 0.4054522,-0.4063131 z"
     id="path849"
     inkscape:label="saveStatus"
     inkscape:connector-curvature="0"
     sodipodi:nodetypes="cccscccccccccccccsssssccscssss"
     inkscape:export-xdpi="384"
     inkscape:export-ydpi="384" />
  <path
     style="display:none;fill:#8ad891;fill-opacity:1;stroke-width:0.0228204"
     d="m 4.2605334,1.5267684 c 0.692392,0.00275 1.384134,0.2682724 1.912412,0.7965485 0.514951,0.5149444 0.780368,1.1846945 0.79568,1.8594818 h 0.553594 c 0.234342,0 0.350523,0.2846302 0.18482,0.4503365 l -1.038638,1.0386374 c -0.102714,0.1027092 -0.268653,0.1027228 -0.371375,0 L 5.2575214,4.6331352 c -0.165704,-0.1657206 -0.0478,-0.4503227 0.186555,-0.4503365 h 0.646438 C 6.0751034,3.7136756 5.8855114,3.2760947 5.5516714,2.9428553 4.9509414,2.3430258 4.0209424,2.2356222 3.3069309,2.6634554 c -0.05192,0.031036 -0.1185465,0.02375 -0.1613921,-0.01909 L 2.7021439,2.2001029 C 2.6440281,2.1420205 2.6524473,2.0452206 2.7203676,1.9987964 3.1832914,1.6825971 3.7219954,1.5248057 4.2605354,1.5267675 Z M 1.5602505,5.1528877 c 0.337369,0 0.6108611,0.2734919 0.6108611,0.610861 0,0.337369 -0.2734921,0.6108616 -0.6108611,0.6108616 -0.3373691,0 -0.610861,-0.2734923 -0.610861,-0.6108616 0,-0.3373695 0.2734919,-0.610861 0.610861,-0.610861 z m 1.548845,0 c 0.3373689,0 0.6108609,0.2734919 0.6108609,0.610861 0,0.337369 -0.273492,0.6108616 -0.6108609,0.6108616 -0.3373688,0 -0.6108611,-0.2734926 -0.6108611,-0.6108616 0,-0.3373691 0.2734923,-0.610861 0.6108611,-0.610861 z m 1.5488449,0 c 0.337369,0 0.610861,0.2734919 0.610861,0.610861 0,0.337369 -0.273492,0.6108616 -0.610861,0.6108616 -0.337368,0 -0.610861,-0.2734926 -0.610861,-0.6108616 0,-0.3373691 0.273493,-0.610861 0.610861,-0.610861 z"
     id="path856"
     inkscape:label="saveas"
     sodipodi:nodetypes="cccscccccccccccccsssssssssssssss" />
  <path
     id="path917"
     style="display:none;fill:#d588f1;fill-opacity:1;stroke-width:0.0862503"
     inkscape:label="update"
     d="M 16.103516,5.7695312 C 14.068089,5.7621166 12.030883,6.3596035 10.28125,7.5546875 10.024543,7.730149 9.9932404,8.0949291 10.212891,8.3144531 l 1.675781,1.6796875 c 0.161936,0.1619154 0.413142,0.1895674 0.609375,0.072265 2.698626,-1.6170091 6.213899,-1.2104333 8.484375,1.056641 1.261757,1.259487 1.978863,2.912483 2.037109,4.685547 h -2.443359 c -0.885751,5.2e-5 -1.331361,1.076779 -0.705078,1.703125 l 3.927734,3.925781 c 0.388241,0.388244 1.016087,0.388192 1.404297,0 l 3.925781,-3.925781 c 0.626279,-0.626292 0.186484,-1.703125 -0.699218,-1.703125 H 26.337891 C 26.280018,13.258217 25.27635,10.727497 23.330078,8.78125 21.333437,6.7846159 18.72043,5.779925 16.103516,5.7695312 Z M 7.7832031,9.8027344 C 7.529354,9.8027408 7.2761364,9.8996541 7.0820312,10.09375 L 3.15625,14.019531 c -0.6262792,0.626292 -0.1864833,1.701172 0.6992188,1.701172 h 2.0917968 c 0.057872,2.550377 1.061541,5.08305 3.0078125,7.029297 1.9966409,1.996634 4.6096479,2.999372 7.2265629,3.009766 2.035426,0.0074 4.072632,-0.588119 5.822265,-1.783204 0.256721,-0.175464 0.288011,-0.542196 0.06836,-0.761718 l -1.675782,-1.679688 c -0.161937,-0.161918 -0.413142,-0.189567 -0.609375,-0.07227 -2.698626,1.617007 -6.213899,1.212384 -8.484375,-1.054688 -1.261759,-1.259487 -1.9788627,-2.914436 -2.037109,-4.6875 h 2.443359 c 0.885752,-5.2e-5 1.331361,-1.074826 0.705078,-1.701172 L 8.4863281,10.09375 C 8.2922078,9.8996284 8.0370523,9.8027279 7.7832031,9.8027344 Z"
     transform="scale(0.26458333)" />
  <path
     id="path1320"
     d="M 7.2980073,2.6739477 V 6.335646 c 0,0.336927 -0.2733563,0.6102829 -0.6102831,0.6102829 H 1.3986043 c -0.336927,0 -0.61028293,-0.2733559 -0.61028293,-0.6102829 V 2.6739477 c 0,-0.336927 0.27335593,-0.6102829 0.61028293,-0.6102829 h 1.1188522 l 0.156385,-0.4182983 c 0.089,-0.2377562 0.3165844,-0.3954127 0.5708693,-0.3954127 h 1.5956357 c 0.2542848,0 0.4818692,0.1576565 0.5708688,0.3954127 l 0.1576565,0.4182983 h 1.1188524 c 0.3369268,0 0.6102831,0.2733559 0.6102831,0.6102829 z M 5.5688718,4.5047966 c 0,-0.8416819 -0.6840254,-1.5257076 -1.5257076,-1.5257076 -0.8416819,0 -1.5257077,0.6840257 -1.5257077,1.5257076 0,0.8416823 0.6840258,1.5257077 1.5257077,1.5257077 0.8416822,0 1.5257076,-0.6840254 1.5257076,-1.5257077 z m -0.4068555,0 c 0,0.6166404 -0.5022119,1.1188523 -1.1188521,1.1188523 -0.61664,0 -1.1188523,-0.5022119 -1.1188523,-1.1188523 0,-0.6166399 0.5022123,-1.1188522 1.1188523,-1.1188522 0.6166402,0 1.1188521,0.5022123 1.1188521,1.1188522 z"
     inkscape:connector-curvature="0"
     style="display:none;fill:#8ad891;fill-opacity:1;stroke-width:0.0127143"
     inkscape:label="preview" />
  <path
     style="display:inline;fill:#d588f1;fill-opacity:1;stroke-width:0.0320229"
     d="M 0.61185934,5.7922703 C 0.61618078,4.6577248 1.0506854,3.5245214 1.9163145,2.658888 2.7601239,1.8150816 3.857236,1.3807203 4.9628968,1.3556552 V 0.44852662 c 0,-0.23998897 0.181447,-0.40423336 0.3838789,-0.42789085 0.121502,-0.01423923 0.2513294,0.02157078 0.3533154,0.12347731 L 7.4018736,1.8471181 c 0.1684258,0.1682515 0.1683456,0.4405268 0,0.6088272 L 5.7000911,4.1589503 C 5.4285739,4.4304469 4.9629112,4.2372276 4.9628968,3.8533141 V 2.7945905 c -0.7686899,0.025238 -1.488274,0.3344063 -2.0343147,0.8814548 -0.982847,0.9843328 -1.1570676,2.5099105 -0.4560096,3.67986 0.051071,0.085348 0.039673,0.192674 -0.030565,0.2628472 L 1.7133719,8.3473893 C 1.6180502,8.4425595 1.4592146,8.4280051 1.3832852,8.3168258 0.86515968,7.5582739 0.60885486,6.6746947 0.61185934,5.7922703 Z"
     id="path871"
     inkscape:label="import"
     inkscape:connector-curvature="0"
     sodipodi:nodetypes="cccsccccccccccccc" />
</svg>
