<?xml version="1.0" encoding="UTF-8" standalone="no"?>
<!-- Created with Inkscape (http://www.inkscape.org/) -->

<svg
   width="32"
   height="32"
   viewBox="0 0 8.4666666 8.4666666"
   version="1.1"
   id="svg8"
   inkscape:version="1.1 (c68e22c387, 2021-05-23)"
   sodipodi:docname="import-asset-property_sl.svg"
   xmlns:inkscape="http://www.inkscape.org/namespaces/inkscape"
   xmlns:sodipodi="http://sodipodi.sourceforge.net/DTD/sodipodi-0.dtd"
   xmlns="http://www.w3.org/2000/svg"
   xmlns:svg="http://www.w3.org/2000/svg"
   xmlns:rdf="http://www.w3.org/1999/02/22-rdf-syntax-ns#"
   xmlns:cc="http://creativecommons.org/ns#"
   xmlns:dc="http://purl.org/dc/elements/1.1/">
  <defs
     id="defs2">
    <style
       id="style857">.cls-1{fill:#e52120;}.cls-1,.cls-2,.cls-3,.cls-4,.cls-5{stroke:#000;stroke-miterlimit:10;stroke-width:1.2px;}.cls-2{fill:#6dbc88;}.cls-3{fill:#701034;}.cls-4{fill:#51aae0;}.cls-5{fill:none;}</style>
    <style
       id="style857-2">.cls-1{fill:#e52120;}.cls-1,.cls-2,.cls-3,.cls-4,.cls-5{stroke:#000;stroke-miterlimit:10;stroke-width:1.2px;}.cls-2{fill:#6dbc88;}.cls-3{fill:#701034;}.cls-4{fill:#51aae0;}.cls-5{fill:none;}</style>
  </defs>
  <sodipodi:namedview
     id="base"
     pagecolor="#ffffff"
     bordercolor="#666666"
     borderopacity="1.0"
     inkscape:pageopacity="0.0"
     inkscape:pageshadow="2"
     inkscape:zoom="16"
     inkscape:cx="-0.03125"
     inkscape:cy="9.15625"
     inkscape:document-units="mm"
     inkscape:current-layer="layer1"
     showgrid="false"
     units="px"
     inkscape:window-width="1920"
     inkscape:window-height="1027"
     inkscape:window-x="-8"
     inkscape:window-y="-8"
     inkscape:window-maximized="1"
     inkscape:pagecheckerboard="1"
     inkscape:snap-bbox="true"
     inkscape:bbox-paths="true"
     inkscape:bbox-nodes="true"
     inkscape:snap-bbox-edge-midpoints="true"
     inkscape:snap-bbox-midpoints="true"
     inkscape:snap-nodes="false">
    <sodipodi:guide
       position="8.4666666,0"
       orientation="-32,0"
       id="guide854"
       inkscape:locked="false" />
    <sodipodi:guide
       position="8.4666666,8.4666666"
       orientation="0,-32"
       id="guide856"
       inkscape:locked="false" />
    <sodipodi:guide
       position="0,8.4666814"
       orientation="32,0"
       id="guide858"
       inkscape:locked="false" />
  </sodipodi:namedview>
  <metadata
     id="metadata5">
    <rdf:RDF>
      <cc:Work
         rdf:about="">
        <dc:format>image/svg+xml</dc:format>
        <dc:type
           rdf:resource="http://purl.org/dc/dcmitype/StillImage" />
      </cc:Work>
    </rdf:RDF>
  </metadata>
  <g
     inkscape:label="Layer 1"
     inkscape:groupmode="layer"
     id="layer1"
     transform="translate(0,-288.53334)">
    <path
       id="path1112"
       style="fill:#d588f1;fill-opacity:1;stroke-width:0.0417547"
       d="m 16.96875,5.3105469 c -0.555338,0 -1.001953,0.4465515 -1.001953,1.0019531 v 7.173828 h 2.216797 v -3.351562 c 0,-0.750048 0.908003,-1.1173283 1.43164,-0.5937504 l 5.865235,5.8652344 c 0.324657,0.328101 0.324657,0.859059 0,1.1875 l -5.865235,5.863281 c -0.523639,0.523881 -1.43164,0.158742 -1.43164,-0.591797 V 18.513672 H 15.966797 V 25.6875 c 0,0.555364 0.446615,1.001953 1.001953,1.001953 H 30.998047 C 31.553386,26.689453 32,26.242864 32,25.6875 V 10.400391 C 32,10.137336 31.894934,9.8832306 31.707031,9.6953125 L 27.621094,5.6035156 C 27.433198,5.4152952 27.177387,5.3105469 26.910156,5.3105469 Z M 0,6.8125 v 2.9550781 c -0.00322182,0.5768689 0.46617539,1.0446689 1.0429688,1.0371099 h 1.140625 c 1.1889779,0.0031 2.1554963,0.961502 2.1679687,2.15039 v 1.710938 c -0.00313,1.198752 -0.9750748,2.16972 -2.1738281,2.171875 H 1.0371094 C 0.46254219,16.834716 -0.00319113,17.302352 0,17.876953 v 2.964844 h 2.9648438 c 0.5656589,0.0031 1.0242392,0.461775 1.0273437,1.027344 v 1.140625 c -3.67e-5,1.196522 0.9655933,2.170175 2.1621094,2.177734 h 1.7089843 c 1.202284,0 2.1769988,-0.975467 2.1738278,-2.177734 v -1.140625 c 0.0031,-0.570104 0.467002,-1.03067 1.03711,-1.027344 h 2.955078 c 0,-4.671458 -0.0072,-9.342252 0.0078,-14.013672 -1.042742,0 -2.056473,-7.815e-4 -3.089843,-0.00195 -0.509316,0.060888 -0.907269,0.4873726 -0.910157,1.0136719 v 1.140625 c 0.0032,1.2022672 -0.9715434,2.1777342 -2.1738278,2.1777342 H 6.1542969 C 4.9577816,11.14883 3.9921505,10.176954 3.9921875,8.9804688 V 7.8378906 C 3.9891333,7.282678 3.547293,6.8333508 2.9960938,6.8144531 2.0010702,6.8141508 0.99861304,6.8129157 0,6.8125 Z"
       transform="matrix(0.26458333,0,0,0.26458333,0,288.53334)" />
  </g>
  <style
     type="text/css"
     id="style815">
	.st0{fill:#00005B;}
	.st1{fill:#9999FF;}
</style>
  <style
     type="text/css"
     id="style815-2">
	.st0{fill:#00005B;}
	.st1{fill:#9999FF;}
</style>
</svg>
