<?xml version="1.0" encoding="UTF-8" standalone="no"?>
<!-- Created with Inkscape (http://www.inkscape.org/) -->

<svg
   xmlns:dc="http://purl.org/dc/elements/1.1/"
   xmlns:cc="http://creativecommons.org/ns#"
   xmlns:rdf="http://www.w3.org/1999/02/22-rdf-syntax-ns#"
   xmlns:svg="http://www.w3.org/2000/svg"
   xmlns="http://www.w3.org/2000/svg"
   xmlns:sodipodi="http://sodipodi.sourceforge.net/DTD/sodipodi-0.dtd"
   xmlns:inkscape="http://www.inkscape.org/namespaces/inkscape"
   width="32"
   height="32"
   viewBox="0 0 8.4666666 8.4666666"
   version="1.1"
   id="svg8"
   inkscape:version="0.92.5 (2060ec1f9f, 2020-04-08)"
   sodipodi:docname="login_sl.svg">
  <defs
     id="defs2">
    <style
       id="style1399">.cls-1{fill:#e3e3e3;}</style>
    <style
       id="style1399-1">.cls-1{fill:#e3e3e3;}</style>
    <style
       id="style1399-5">.cls-1{fill:#e3e3e3;}</style>
    <style
       id="style1399-8">.cls-1{fill:#e3e3e3;}</style>
    <style
       id="style1399-7">.cls-1{fill:#e3e3e3;}</style>
    <style
       id="style1399-1-5">.cls-1{fill:#e3e3e3;}</style>
    <style
       id="style1399-5-6">.cls-1{fill:#e3e3e3;}</style>
    <style
       id="style1399-8-9">.cls-1{fill:#e3e3e3;}</style>
    <style
       id="style1399-2">.cls-1{fill:#e3e3e3;}</style>
    <style
       id="style1399-1-1">.cls-1{fill:#e3e3e3;}</style>
    <style
       id="style1399-5-5">.cls-1{fill:#e3e3e3;}</style>
    <style
       id="style1399-8-99">.cls-1{fill:#e3e3e3;}</style>
  </defs>
  <sodipodi:namedview
     id="base"
     pagecolor="#ffffff"
     bordercolor="#666666"
     borderopacity="1.0"
     inkscape:pageopacity="0.0"
     inkscape:pageshadow="2"
     inkscape:zoom="7.9999995"
     inkscape:cx="-44.486533"
     inkscape:cy="8.8898052"
     inkscape:document-units="mm"
     inkscape:current-layer="svg8"
     showgrid="false"
     units="px"
     inkscape:window-width="1920"
     inkscape:window-height="1043"
     inkscape:window-x="1920"
     inkscape:window-y="120"
     inkscape:window-maximized="1">
    <sodipodi:guide
       position="8.4666666,0"
       orientation="-32,0"
       id="guide854"
       inkscape:locked="false" />
    <sodipodi:guide
       position="8.4666666,8.4666666"
       orientation="0,-32"
       id="guide856"
       inkscape:locked="false" />
    <sodipodi:guide
       position="0,8.4666814"
       orientation="1,6.123234e-17"
       id="guide858"
       inkscape:locked="false" />
  </sodipodi:namedview>
  <metadata
     id="metadata5">
    <rdf:RDF>
      <cc:Work
         rdf:about="">
        <dc:format>image/svg+xml</dc:format>
        <dc:type
           rdf:resource="http://purl.org/dc/dcmitype/StillImage" />
        <dc:title />
      </cc:Work>
    </rdf:RDF>
  </metadata>
  <path
     style="fill:#8cffef;fill-opacity:1;stroke-width:0.01106398"
     d="m 2.4696167,0.23386085 c -0.7822236,0 -1.416451,0.6342234 -1.416451,1.41645105 0,0.7822208 0.6342274,1.4159343 1.416451,1.4159343 0.7822236,0 1.4159342,-0.6337135 1.4159342,-1.4159343 0,-0.78222765 -0.6337106,-1.41645105 -1.4159342,-1.41645105 z M 1.4779459,3.4207465 c -0.82094737,0 -1.48673089,0.6657832 -1.48673089,1.4867308 v 0.4604372 c 0,0.2931906 0.23752147,0.5307168 0.53071694,0.5307168 H 2.6525513 v -0.014986 c 0,-0.4403744 0.3699132,-0.8102865 0.8102865,-0.8102865 h 0.839742 V 4.6454779 c 0,-0.2641388 0.1393311,-0.5024474 0.3317626,-0.6485392 C 4.3622333,3.6468362 3.9382869,3.4207465 3.4607706,3.4207465 H 3.2757689 C 3.0301485,3.5335979 2.7572803,3.5974797 2.4696167,3.5974797 c -0.2876635,0 -0.5599421,-0.063861 -0.8066691,-0.1767332 z m 5.1598918,0.8950357 c -0.068041,0 -0.1235067,0.055985 -0.1235067,0.1240234 v 0.412378 c 0,0.068064 0.055466,0.1235067 0.1235067,0.1235067 h 0.8660969 c 0.1824728,0 0.3302124,0.1472229 0.3302124,0.3296955 v 1.9797241 c 0,0.1824725 -0.1477396,0.3296957 -0.3302124,0.3296957 H 6.6378377 c -0.068041,0 -0.1235067,0.055462 -0.1235067,0.1235067 v 0.412378 c 0,0.068064 0.055466,0.1240234 0.1235067,0.1240234 h 0.8660969 c 0.5463879,0 0.9896036,-0.4432101 0.9896036,-0.9896038 V 5.3053858 c 0,-0.5463874 -0.4432157,-0.9896036 -0.9896036,-0.9896036 z M 5.0859943,4.399498 C 4.9697137,4.4129335 4.8648193,4.5074509 4.8648193,4.6459946 V 5.6355982 H 3.4628378 c -0.1371124,0 -0.2475302,0.1099 -0.2475302,0.2470134 v 0.9901206 c 0,0.1371134 0.1104178,0.2470131 0.2475302,0.2470131 h 1.4019815 v 0.9901206 c 0,0.2216451 0.2680748,0.3298195 0.4227132,0.175183 l 1.732194,-1.732194 c 0.095875,-0.096911 0.095875,-0.2534555 0,-0.350366 L 5.2875325,4.4702946 C 5.2295432,4.4123062 5.1557628,4.3914369 5.0859943,4.399498 Z"
     id="path1276"
     inkscape:connector-curvature="0" />
</svg>
