<?xml version="1.0" encoding="UTF-8" standalone="no"?>
<!-- Created with Inkscape (http://www.inkscape.org/) -->

<svg
   xmlns:dc="http://purl.org/dc/elements/1.1/"
   xmlns:cc="http://creativecommons.org/ns#"
   xmlns:rdf="http://www.w3.org/1999/02/22-rdf-syntax-ns#"
   xmlns:svg="http://www.w3.org/2000/svg"
   xmlns="http://www.w3.org/2000/svg"
   xmlns:sodipodi="http://sodipodi.sourceforge.net/DTD/sodipodi-0.dtd"
   xmlns:inkscape="http://www.inkscape.org/namespaces/inkscape"
   width="32"
   height="32"
   viewBox="0 0 8.4666666 8.4666666"
   version="1.1"
   id="svg8"
   inkscape:version="0.92.5 (2060ec1f9f, 2020-04-08)"
   sodipodi:docname="login_bl.svg">
  <defs
     id="defs2">
    <style
       id="style1399">.cls-1{fill:#e3e3e3;}</style>
    <style
       id="style1399-1">.cls-1{fill:#e3e3e3;}</style>
    <style
       id="style1399-5">.cls-1{fill:#e3e3e3;}</style>
    <style
       id="style1399-8">.cls-1{fill:#e3e3e3;}</style>
    <style
       id="style1399-7">.cls-1{fill:#e3e3e3;}</style>
    <style
       id="style1399-1-5">.cls-1{fill:#e3e3e3;}</style>
    <style
       id="style1399-5-6">.cls-1{fill:#e3e3e3;}</style>
    <style
       id="style1399-8-9">.cls-1{fill:#e3e3e3;}</style>
    <style
       id="style1399-2">.cls-1{fill:#e3e3e3;}</style>
    <style
       id="style1399-1-1">.cls-1{fill:#e3e3e3;}</style>
    <style
       id="style1399-5-5">.cls-1{fill:#e3e3e3;}</style>
    <style
       id="style1399-8-99">.cls-1{fill:#e3e3e3;}</style>
  </defs>
  <sodipodi:namedview
     id="base"
     pagecolor="#ffffff"
     bordercolor="#666666"
     borderopacity="1.0"
     inkscape:pageopacity="0.0"
     inkscape:pageshadow="2"
     inkscape:zoom="3.9999998"
     inkscape:cx="-6.9383312"
     inkscape:cy="24.762737"
     inkscape:document-units="mm"
     inkscape:current-layer="svg8"
     showgrid="false"
     units="px"
     inkscape:window-width="1920"
     inkscape:window-height="1043"
     inkscape:window-x="1920"
     inkscape:window-y="120"
     inkscape:window-maximized="1">
    <sodipodi:guide
       position="8.4666666,0"
       orientation="-32,0"
       id="guide854"
       inkscape:locked="false" />
    <sodipodi:guide
       position="8.4666666,8.4666666"
       orientation="0,-32"
       id="guide856"
       inkscape:locked="false" />
    <sodipodi:guide
       position="0,8.4666814"
       orientation="1,6.123234e-17"
       id="guide858"
       inkscape:locked="false" />
  </sodipodi:namedview>
  <metadata
     id="metadata5">
    <rdf:RDF>
      <cc:Work
         rdf:about="">
        <dc:format>image/svg+xml</dc:format>
        <dc:type
           rdf:resource="http://purl.org/dc/dcmitype/StillImage" />
        <dc:title />
      </cc:Work>
    </rdf:RDF>
  </metadata>
  <path
     style="fill:#e3e3e3;fill-opacity:1;stroke-width:0.04181662"
     d="M 9.3339844 0.88476562 C 6.3775487 0.88476562 3.9804687 3.2818303 3.9804688 6.2382812 C 3.9804688 9.1947063 6.3775487 11.589844 9.3339844 11.589844 C 12.29042 11.589844 14.685547 9.1947063 14.685547 6.2382812 C 14.685547 3.2818303 12.29042 0.88476563 9.3339844 0.88476562 z M 5.5859375 12.929688 C 2.4831443 12.929688 -0.033203125 15.446034 -0.033203125 18.548828 L -0.033203125 20.289062 C -0.033203125 21.397184 0.86451589 22.294922 1.9726562 22.294922 L 10.025391 22.294922 L 10.025391 22.238281 C 10.025391 20.573874 11.423488 19.175781 13.087891 19.175781 L 16.261719 19.175781 L 16.261719 17.558594 C 16.261719 16.560274 16.788325 15.65958 17.515625 15.107422 C 16.487181 13.7842 14.884864 12.929688 13.080078 12.929688 L 12.380859 12.929688 C 11.45253 13.356212 10.421217 13.597656 9.3339844 13.597656 C 8.2467522 13.597656 7.2176677 13.356291 6.2851562 12.929688 L 5.5859375 12.929688 z "
     transform="scale(0.26458333)"
     id="path833" />
  <path
     style="fill:#8cffef;fill-opacity:1;stroke-width:0.04181662"
     d="M 25.087891 16.3125 C 24.830728 16.3125 24.621094 16.524097 24.621094 16.78125 L 24.621094 18.339844 C 24.621094 18.597094 24.830729 18.806641 25.087891 18.806641 L 28.361328 18.806641 C 29.050989 18.806641 29.609375 19.363074 29.609375 20.052734 L 29.609375 27.535156 C 29.609375 28.224816 29.050989 28.78125 28.361328 28.78125 L 25.087891 28.78125 C 24.830728 28.78125 24.621094 28.99087 24.621094 29.248047 L 24.621094 30.806641 C 24.621094 31.06389 24.830729 31.275391 25.087891 31.275391 L 28.361328 31.275391 C 30.426416 31.275391 32.101563 29.600266 32.101562 27.535156 L 32.101562 20.052734 C 32.101562 17.987648 30.426416 16.3125 28.361328 16.3125 L 25.087891 16.3125 z M 19.222656 16.628906 C 18.783171 16.679686 18.386719 17.036917 18.386719 17.560547 L 18.386719 21.300781 L 13.087891 21.300781 C 12.569671 21.300781 12.152344 21.716151 12.152344 22.234375 L 12.152344 25.976562 C 12.152344 26.494786 12.569671 26.910156 13.087891 26.910156 L 18.386719 26.910156 L 18.386719 30.652344 C 18.386719 31.490058 19.399915 31.898906 19.984375 31.314453 L 26.53125 24.767578 C 26.893612 24.4013 26.893612 23.809635 26.53125 23.443359 L 19.984375 16.896484 C 19.765203 16.677316 19.486348 16.598439 19.222656 16.628906 z "
     transform="scale(0.26458333)"
     id="path829" />
</svg>
