<?xml version="1.0" encoding="UTF-8" standalone="no"?>
<svg
   xmlns:dc="http://purl.org/dc/elements/1.1/"
   xmlns:cc="http://creativecommons.org/ns#"
   xmlns:rdf="http://www.w3.org/1999/02/22-rdf-syntax-ns#"
   xmlns:svg="http://www.w3.org/2000/svg"
   xmlns="http://www.w3.org/2000/svg"
   xmlns:sodipodi="http://sodipodi.sourceforge.net/DTD/sodipodi-0.dtd"
   xmlns:inkscape="http://www.inkscape.org/namespaces/inkscape"
   width="32"
   height="32"
   viewBox="0 0 8.4666666 8.4666666"
   version="1.1"
   id="svg8"
   inkscape:version="1.0.2-2 (e86c870879, 2021-01-15)"
   sodipodi:docname="nuke.svg">
  <defs
     id="defs2">
    <style
       id="style1399">.cls-1{fill:#e3e3e3;}</style>
    <style
       id="style1399-9">.cls-1{fill:#e3e3e3;}</style>
  </defs>
  <sodipodi:namedview
     id="base"
     pagecolor="#ffffff"
     bordercolor="#666666"
     borderopacity="1.0"
     inkscape:pageopacity="0.0"
     inkscape:pageshadow="2"
     inkscape:zoom="16"
     inkscape:cx="13.955958"
     inkscape:cy="15.246048"
     inkscape:document-units="mm"
     inkscape:current-layer="svg8"
     showgrid="false"
     units="px"
     inkscape:window-width="3440"
     inkscape:window-height="1417"
     inkscape:window-x="1915"
     inkscape:window-y="-8"
     inkscape:window-maximized="1"
     inkscape:document-rotation="0">
    <sodipodi:guide
       position="8.4666666,0"
       orientation="-32,0"
       id="guide854"
       inkscape:locked="false" />
    <sodipodi:guide
       position="8.4666666,8.4666666"
       orientation="0,-32"
       id="guide856"
       inkscape:locked="false" />
    <sodipodi:guide
       position="0,8.4666814"
       orientation="32,0"
       id="guide858"
       inkscape:locked="false" />
  </sodipodi:namedview>
  <metadata
     id="metadata5">
    <rdf:RDF>
      <cc:Work
         rdf:about="">
        <dc:format>image/svg+xml</dc:format>
        <dc:type
           rdf:resource="http://purl.org/dc/dcmitype/StillImage" />
        <dc:title></dc:title>
      </cc:Work>
    </rdf:RDF>
  </metadata>
  <path
     style="display:inline;fill:#fcb434;fill-opacity:1;stroke-width:0.0145744;enable-background:new"
     d="M 3.9595363,8.4540827 C 3.7494343,8.435744 3.5808505,8.4127793 3.4145796,8.3807279 2.3158605,8.1680635 1.3266448,7.5037253 0.70651593,6.5621091 0.11764546,5.6679574 -0.1077882,4.5956706 0.06894064,3.5293994 0.34018802,1.8927963 1.5756215,0.54998911 3.1871137,0.14032576 5.1104794,-0.34865662 7.1076791,0.55737569 8.0066056,2.3266965 8.2303378,2.7670911 8.3731153,3.2420271 8.4360781,3.7552793 8.4605302,3.9549563 8.4605302,4.5058442 8.4360119,4.7099008 8.2463965,6.2874269 7.240296,7.5936824 5.7667073,8.1755509 5.4689431,8.2931825 5.1234157,8.3810088 4.7777064,8.4271562 4.614475,8.448815 4.0952095,8.4659654 3.9595528,8.453937 Z M 4.7392613,7.9901765 C 5.5820814,7.8675881 6.3217586,7.4997767 6.9108933,6.9106569 7.4902474,6.3313059 7.8574343,5.5998366 7.9837896,4.7733562 8.0217888,4.5245958 8.0292233,4.0301136 7.9986589,3.7917055 7.8073416,2.3055474 6.8143095,1.0981359 5.3993882,0.63125918 5.0116488,0.50338401 4.7017909,0.45646336 4.2365167,0.45543401 3.826622,0.45456011 3.6671415,0.47293023 3.3110403,0.56381412 2.6217862,0.73897345 2.0677097,1.0547922 1.561314,1.5611914 1.0541086,2.0683769 0.72442512,2.6495153 0.55777417,3.3301272 0.47335021,3.6750945 0.45501235,3.8361116 0.45501235,4.2363743 c 0,0.4096979 0.0189994,0.5711925 0.10887609,0.9264196 0.0721987,0.2851106 0.1358057,0.4560851 0.27676562,0.7443198 C 1.2137556,6.669774 1.8245829,7.2749476 2.5998967,7.6500796 3.0148469,7.8508338 3.4368352,7.9629808 3.9813623,8.0171707 4.097507,8.0287311 4.5969642,8.0105553 4.739246,7.99039 Z M 5.001455,7.4963551 C 4.9672559,7.4621724 4.950404,7.4294436 4.9436303,7.383349 4.9353697,7.3242026 4.9770035,6.3659661 5.0310283,5.3958325 5.0558103,4.9490275 5.0505235,4.8874855 4.9720471,4.7233807 4.9191787,4.6126877 4.775443,4.4506447 4.1792206,3.8296566 3.8730801,3.5107798 3.7817996,3.4383156 3.6253921,3.3899889 3.5325421,3.3612418 3.495369,3.3604157 2.3620375,3.3614236 1.5363171,3.3618614 1.1716085,3.3579505 1.1165428,3.3448851 1.0648303,3.3333247 1.024354,3.3138093 0.99593761,3.2855732 0.95612123,3.2457568 0.9538075,3.2371651 0.96140858,3.159846 0.97462283,3.0243711 1.1223263,2.6928041 1.2890269,2.4231922 1.6085828,1.9065845 2.0827786,1.4636174 2.6093635,1.1897926 c 0.125231,-0.065259 0.1506738,-0.073189 0.2316458,-0.073189 0.1698229,2.808e-4 0.1844939,0.013214 0.7063207,0.5626328 0.2573859,0.2716275 0.4868841,0.5078513 0.5099974,0.5249344 0.067573,0.049895 0.1813383,0.103258 0.2745684,0.1285354 0.059972,0.016538 0.1785791,0.025774 0.3854265,0.031721 0.3464692,0.00991 0.3747207,0.00131 0.4335201,-0.1128404 0.029903,-0.058321 0.035356,-0.1083799 0.063607,-0.5812393 0.0342,-0.572316 0.037008,-0.585614 0.1356403,-0.6324206 0.079137,-0.037668 0.1467095,-0.029227 0.2885949,0.036363 0.3920681,0.1805948 0.6978948,0.3925968 1.0234975,0.7094416 0.2850759,0.2774116 0.4898414,0.5589815 0.6637121,0.91274 0.1712934,0.3485012 0.2028657,0.4843876 0.1361364,0.5861428 -0.054686,0.083433 -0.066415,0.085085 -0.6632494,0.093016 -0.529592,0.00825 -0.5506236,0.00825 -0.5902583,0.037982 -0.022635,0.016853 -0.05419,0.053034 -0.070216,0.080294 -0.026764,0.045598 -0.029078,0.075832 -0.029078,0.3774137 0,0.3035154 0.00165,0.3351041 0.033208,0.4240204 0.018338,0.052868 0.054355,0.1293623 0.080129,0.1701533 0.025773,0.040825 0.2502488,0.2883835 0.4987463,0.5503097 C 6.9697934,5.2777345 7.1903699,5.5213929 7.2114677,5.5572739 7.3196806,5.7412726 7.2654907,5.9017461 6.955055,6.3165476 6.5631025,6.8402396 5.9562734,7.2786336 5.339201,7.4838288 5.1133212,7.5590008 5.0661528,7.5606528 5.0013726,7.4970458 Z M 5.4898426,3.9003829 C 5.6007,3.8445408 5.6524125,3.7468993 5.6519164,3.5935517 5.6510413,3.2454783 5.3068852,2.8586127 4.9403096,2.7931073 4.8530774,2.7765688 4.8282945,2.7782392 4.7551713,2.7997227 4.5898758,2.8479654 4.5073842,3.0052664 4.5428389,3.2051102 4.622637,3.6545405 5.17407,4.0594771 5.4898922,3.9004739 Z"
     id="path1069"
     inkscape:connector-curvature="0"
     sodipodi:nodetypes="ccsssssccccccsscccssssscsscccsccsscscscccccccsccsscscssccccscccccccc"
     inkscape:label="nuke" />
</svg>
