<?xml version="1.0" encoding="UTF-8" standalone="no"?>
<!-- Created with Inkscape (http://www.inkscape.org/) -->

<svg
   xmlns:dc="http://purl.org/dc/elements/1.1/"
   xmlns:cc="http://creativecommons.org/ns#"
   xmlns:rdf="http://www.w3.org/1999/02/22-rdf-syntax-ns#"
   xmlns:svg="http://www.w3.org/2000/svg"
   xmlns="http://www.w3.org/2000/svg"
   xmlns:sodipodi="http://sodipodi.sourceforge.net/DTD/sodipodi-0.dtd"
   xmlns:inkscape="http://www.inkscape.org/namespaces/inkscape"
   width="32"
   height="32"
   viewBox="0 0 8.4666666 8.4666666"
   version="1.1"
   id="svg8"
   inkscape:version="0.92.5 (2060ec1f9f, 2020-04-08)"
   sodipodi:docname="code_sl.svg">
  <defs
     id="defs2">
    <style
       id="style1399">.cls-1{fill:#e3e3e3;}</style>
  </defs>
  <sodipodi:namedview
     id="base"
     pagecolor="#ffffff"
     bordercolor="#666666"
     borderopacity="1.0"
     inkscape:pageopacity="0.0"
     inkscape:pageshadow="2"
     inkscape:zoom="16"
     inkscape:cx="1.8029855"
     inkscape:cy="12.30181"
     inkscape:document-units="mm"
     inkscape:current-layer="svg8"
     showgrid="false"
     units="px"
     inkscape:window-width="1920"
     inkscape:window-height="1043"
     inkscape:window-x="0"
     inkscape:window-y="120"
     inkscape:window-maximized="1">
    <sodipodi:guide
       position="8.4666666,0"
       orientation="-32,0"
       id="guide854"
       inkscape:locked="false" />
    <sodipodi:guide
       position="8.4666666,8.4666666"
       orientation="0,-32"
       id="guide856"
       inkscape:locked="false" />
    <sodipodi:guide
       position="0,8.4666814"
       orientation="32,0"
       id="guide858"
       inkscape:locked="false" />
  </sodipodi:namedview>
  <metadata
     id="metadata5">
    <rdf:RDF>
      <cc:Work
         rdf:about="">
        <dc:format>image/svg+xml</dc:format>
        <dc:type
           rdf:resource="http://purl.org/dc/dcmitype/StillImage" />
        <dc:title></dc:title>
      </cc:Work>
    </rdf:RDF>
  </metadata>
  <path
     id="path1369"
     d="M 3.6825137,7.4894256 2.8767337,7.2556171 C 2.7921927,7.2318399 2.7446385,7.1433365 2.7684156,7.0587959 L 4.5715135,0.84768518 C 4.5952906,0.76314435 4.6837943,0.71559 4.7683353,0.73936713 L 5.5741149,0.97317547 C 5.6586559,0.99695267 5.7062103,1.0854563 5.6824332,1.1699971 L 3.8793352,7.3811078 C 3.8542371,7.4656479 3.7670544,7.5145237 3.6825137,7.4894256 Z M 2.1766298,6.0073186 2.7512433,5.3943978 C 2.8120071,5.3296713 2.8080441,5.2266371 2.7406767,5.1671942 L 1.5438954,4.1143964 2.7406767,3.0615987 C 2.8080457,3.0021567 2.8133287,2.8991218 2.7512437,2.834395 L 2.1766298,2.2214739 c -0.059443,-0.063406 -0.1598351,-0.067369 -0.2245619,-0.0066 l -1.90348994,1.783282 c -0.06736868,0.062085 -0.06736868,0.1690818 0,0.2311663 L 1.9520679,6.013924 c 0.064727,0.060763 0.1651191,0.058122 0.2245619,-0.0066 z m 4.322151,0.00793 1.9034901,-1.7846045 c 0.067368,-0.062085 0.067368,-0.1690818 0,-0.2311665 L 6.4987808,2.2135486 c -0.063406,-0.059443 -0.1637983,-0.056801 -0.2245619,0.0066 L 5.6996056,2.8330743 c -0.060764,0.064727 -0.056801,0.1677609 0.010567,0.2272037 l 1.196781,1.0541186 -1.1967814,1.0527979 c -0.067368,0.059443 -0.072652,0.1624769 -0.010567,0.2272035 l 0.5746133,0.6129206 c 0.059443,0.064727 0.1598351,0.06737 0.2245623,0.00793 z"
     inkscape:connector-curvature="0"
     style="stroke-width:0.0132095;fill:#e3e3e3;fill-opacity:1" />
</svg>
