<?xml version="1.0" encoding="utf-8"?>
<svg width="32" height="32" viewBox="0 0 8.4666666 8.4666666" version="1.1" id="svg8" xmlns="http://www.w3.org/2000/svg">
  <defs id="defs2">
    <style id="style1399">.cls-1{fill:#e3e3e3;}</style>
    <style id="style1399-4">.cls-1{fill:#e3e3e3;}</style>
    <style id="style1399-8">.cls-1{fill:#e3e3e3;}</style>
    <style id="style1399-4-5">.cls-1{fill:#e3e3e3;}</style>
    <style id="style1399-0">.cls-1{fill:#e3e3e3;}</style>
    <style id="style854">.cls-1{fill:#e3e3e3;}</style>
    <style id="style1399-84">.cls-1{fill:#e3e3e3;}</style>
    <style id="style1399-4-8">.cls-1{fill:#e3e3e3;}</style>
    <style id="style1399-8-10">.cls-1{fill:#e3e3e3;}</style>
    <style id="style1399-4-5-3">.cls-1{fill:#e3e3e3;}</style>
    <style id="style1399-0-0">.cls-1{fill:#e3e3e3;}</style>
    <style id="style1399-5">.cls-1{fill:#e3e3e3;}</style>
    <style id="style1399-4-6">.cls-1{fill:#e3e3e3;}</style>
    <style id="style1399-8-1">.cls-1{fill:#e3e3e3;}</style>
    <style id="style1399-4-5-1">.cls-1{fill:#e3e3e3;}</style>
    <style id="style1399-0-5">.cls-1{fill:#e3e3e3;}</style>
  </defs>
  <path id="path834" d="M 8.005 6.482 C 8.005 1.852 8.005 1.487 8.005 1.487 C 8.005 1.382 7.963 1.281 7.888 1.207 L 6.798 0.116 C 6.724 0.042 6.623 0 6.517 0 C 6.153 0 3.11 0 3.11 0 C 2.891 0 2.713 0.178 2.713 0.397 L 2.713 6.482 C 2.713 6.701 2.891 6.879 3.11 6.879 L 7.608 6.879 C 7.827 6.879 8.005 6.701 8.005 6.482 Z M 5.888 7.408 L 5.888 8.07 C 5.888 8.289 5.71 8.467 5.491 8.467 L 0.993 8.467 C 0.774 8.467 0.596 8.289 0.596 8.07 L 0.596 1.984 C 0.596 1.765 0.774 1.587 0.993 1.587 L 2.184 1.587 L 2.184 6.482 C 2.184 6.993 2.599 7.408 3.11 7.408 L 5.888 7.408 Z" style="stroke-width:0.01653646;fill:#e3e3e3;fill-opacity:1"/>
</svg>