<?xml version="1.0" encoding="utf-8"?>
<svg width="32" height="32" viewBox="0 0 8.4666666 8.4666666" version="1.1" id="svg8" xmlns="http://www.w3.org/2000/svg">
  <defs id="defs2">
    <style id="style1399">.cls-1{fill:#e3e3e3;}</style>
    <style id="style1399-4">.cls-1{fill:#e3e3e3;}</style>
    <style id="style1399-8">.cls-1{fill:#e3e3e3;}</style>
    <style id="style1399-4-5">.cls-1{fill:#e3e3e3;}</style>
    <style id="style1399-0">.cls-1{fill:#e3e3e3;}</style>
    <style id="style854">.cls-1{fill:#e3e3e3;}</style>
    <style id="style1399-84">.cls-1{fill:#e3e3e3;}</style>
    <style id="style1399-4-8">.cls-1{fill:#e3e3e3;}</style>
    <style id="style1399-8-10">.cls-1{fill:#e3e3e3;}</style>
    <style id="style1399-4-5-3">.cls-1{fill:#e3e3e3;}</style>
    <style id="style1399-0-0">.cls-1{fill:#e3e3e3;}</style>
    <style id="style1399-5">.cls-1{fill:#e3e3e3;}</style>
    <style id="style1399-4-6">.cls-1{fill:#e3e3e3;}</style>
    <style id="style1399-8-1">.cls-1{fill:#e3e3e3;}</style>
    <style id="style1399-4-5-1">.cls-1{fill:#e3e3e3;}</style>
    <style id="style1399-0-5">.cls-1{fill:#e3e3e3;}</style>
  </defs>
  <path id="path853" d="M 8.07 4.133 C 8.07 4.498 8.07 8.07 8.07 8.07 C 8.07 8.289 7.892 8.467 7.673 8.467 L 3.704 8.467 C 3.485 8.467 3.307 8.289 3.307 8.07 L 3.307 3.043 C 3.307 2.824 3.485 2.646 3.704 2.646 C 6.218 2.646 6.582 2.646 6.582 2.646 C 6.688 2.646 6.789 2.688 6.863 2.762 L 7.954 3.852 C 8.028 3.927 8.07 4.028 8.07 4.133 Z M 1.058 0.529 C 0.839 0.529 0.661 0.707 0.661 0.926 L 0.661 6.482 C 0.661 6.701 0.839 6.879 1.058 6.879 L 2.778 6.879 L 2.778 3.043 C 2.778 2.532 3.194 2.117 3.704 2.117 L 5.953 2.117 L 5.953 0.926 C 5.953 0.707 5.775 0.529 5.556 0.529 L 4.223 0.529 C 4.04 0.213 3.698 0 3.307 0 C 2.916 0 2.575 0.213 2.391 0.529 L 1.058 0.529 M 3.307 0.661 C 3.526 0.661 3.704 0.839 3.704 1.058 C 3.704 1.278 3.526 1.455 3.307 1.455 C 3.088 1.455 2.91 1.278 2.91 1.058 C 2.91 0.839 3.088 0.661 3.307 0.661 Z" style="stroke-width:0.01653646;fill:#d588f1;fill-opacity:1"/>
</svg>