<?xml version="1.0" encoding="UTF-8" standalone="no"?>
<!-- Created with Inkscape (http://www.inkscape.org/) -->

<svg
   xmlns:dc="http://purl.org/dc/elements/1.1/"
   xmlns:cc="http://creativecommons.org/ns#"
   xmlns:rdf="http://www.w3.org/1999/02/22-rdf-syntax-ns#"
   xmlns:svg="http://www.w3.org/2000/svg"
   xmlns="http://www.w3.org/2000/svg"
   xmlns:sodipodi="http://sodipodi.sourceforge.net/DTD/sodipodi-0.dtd"
   xmlns:inkscape="http://www.inkscape.org/namespaces/inkscape"
   width="32"
   height="32"
   viewBox="0 0 8.4666666 8.4666666"
   version="1.1"
   id="svg8"
   inkscape:version="0.92.4 (5da689c313, 2019-01-14)"
   sodipodi:docname="redo_sl.svg">
  <defs
     id="defs2" />
  <sodipodi:namedview
     id="base"
     pagecolor="#ffffff"
     bordercolor="#666666"
     borderopacity="1.0"
     inkscape:pageopacity="0.0"
     inkscape:pageshadow="2"
     inkscape:zoom="9.8125"
     inkscape:cx="35.632592"
     inkscape:cy="31.118097"
     inkscape:document-units="mm"
     inkscape:current-layer="svg8"
     showgrid="false"
     units="px"
     inkscape:window-width="3440"
     inkscape:window-height="1417"
     inkscape:window-x="-8"
     inkscape:window-y="288"
     inkscape:window-maximized="1">
    <sodipodi:guide
       position="8.4666666,0"
       orientation="-32,0"
       id="guide854"
       inkscape:locked="false" />
    <sodipodi:guide
       position="8.4666666,8.4666666"
       orientation="0,-32"
       id="guide856"
       inkscape:locked="false" />
    <sodipodi:guide
       position="0,8.4666814"
       orientation="32,0"
       id="guide858"
       inkscape:locked="false" />
  </sodipodi:namedview>
  <metadata
     id="metadata5">
    <rdf:RDF>
      <cc:Work
         rdf:about="">
        <dc:format>image/svg+xml</dc:format>
        <dc:type
           rdf:resource="http://purl.org/dc/dcmitype/StillImage" />
        <dc:title></dc:title>
      </cc:Work>
    </rdf:RDF>
  </metadata>
  <path
     id="path826"
     d="M 4.2450606,2.8714154e-6 C 5.3767145,0.0020613 6.4042011,0.44797568 7.1627812,1.172915 L 7.7726576,0.56303852 C 8.030857,0.30483928 8.4723061,0.48769996 8.4723061,0.85283003 V 3.1421117 c 0,0.2263513 -0.1834888,0.4098402 -0.4098402,0.4098402 H 5.7731837 c -0.3651333,0 -0.5479904,-0.4414491 -0.2898081,-0.6996484 L 6.1963267,2.1393522 C 5.6692722,1.6458534 4.9872809,1.3724899 4.2627348,1.36624 2.6848842,1.35262 1.3548668,2.6295211 1.368511,4.259746 c 0.012951,1.5464808 1.266714,2.8441544 2.8687794,2.8441544 0.7023125,0 1.3660829,-0.2506513 1.8891927,-0.7096381 0.080994,-0.071055 0.203315,-0.066736 0.279511,0.00945 l 0.6772953,0.677287 c 0.083197,0.083198 0.079081,0.2188372 -0.00823,0.2976976 C 6.3240955,8.0569991 5.328935,8.470033 4.2372913,8.470033 1.8983676,8.470033 0.00229247,6.5739584 0.00227557,4.2350514 0.00225507,1.8988102 1.9088145,-0.00418089 4.2450579,2.8714154e-6 Z"
     inkscape:connector-curvature="0"
     style="fill:#d588f1;fill-opacity:1;stroke-width:0.01707667" />
</svg>
