<?xml version="1.0" encoding="utf-8"?>
<svg width="32" height="32" viewBox="0 0 8.4666666 8.4666666" version="1.1" id="svg8" xmlns="http://www.w3.org/2000/svg">
  <defs id="defs2">
    <style id="style1399">.cls-1{fill:#e3e3e3;}</style>
    <style id="style1399-1">.cls-1{fill:#e3e3e3;}</style>
    <style id="style1399-5">.cls-1{fill:#e3e3e3;}</style>
    <style id="style1399-8">.cls-1{fill:#e3e3e3;}</style>
    <style id="style1399-7">.cls-1{fill:#e3e3e3;}</style>
    <style id="style1399-1-5">.cls-1{fill:#e3e3e3;}</style>
    <style id="style1399-5-6">.cls-1{fill:#e3e3e3;}</style>
    <style id="style1399-8-9">.cls-1{fill:#e3e3e3;}</style>
    <style id="style1399-2">.cls-1{fill:#e3e3e3;}</style>
    <style id="style1399-1-1">.cls-1{fill:#e3e3e3;}</style>
    <style id="style1399-5-5">.cls-1{fill:#e3e3e3;}</style>
    <style id="style1399-8-99">.cls-1{fill:#e3e3e3;}</style>
  </defs>
  <path style="fill-opacity: 1; stroke-width: 0.0170679; fill: rgb(131, 211, 246);" d="M 8.1819107,5.250147 7.4548194,4.8302861 c 0.07339,-0.3959839 0.07339,-0.8021909 0,-1.1981654 L 8.1819107,3.2122409 C 8.2655433,3.1644266 8.3030932,3.0654593 8.2757834,2.9732992 8.0863305,2.3656797 7.7637473,1.8160919 7.3421715,1.3586736 7.2773137,1.2887534 7.1714921,1.2716646 7.0895664,1.3193658 L 6.3624752,1.7392362 C 6.0569604,1.4763893 5.7053622,1.2732755 5.3247488,1.1401573 V 0.30212726 c 0,-0.0955156 -0.066565,-0.17922366 -0.1604374,-0.19969235 -0.626391,-0.13997252 -1.268143,-0.13314459 -1.8638118,0 -0.093873,0.0204083 -0.1604375,0.10407874 -0.1604375,0.19969235 V 1.1418586 C 2.7611552,1.2767008 2.4095569,1.4797994 2.1023351,1.7409356 L 1.3769509,1.3210766 C 1.2933182,1.2732623 1.1892036,1.2886722 1.1243463,1.3603844 0.70276987,1.8160919 0.38018708,2.3656797 0.19073361,2.97501 0.16171869,3.0672244 0.2009755,3.1661712 0.28460628,3.2139516 L 1.0116977,3.6338314 c -0.0733908,0.3959632 -0.0733908,0.8021816 0,1.198156 L 0.28460628,5.2518559 c -0.0836327,0.047814 -0.1211825,0.1468005 -0.0938727,0.2389511 0.18945347,0.6076214 0.51203626,1.1571979 0.93361269,1.6146256 0.064858,0.06992 0.1706792,0.087009 0.2526046,0.039308 L 2.1040421,6.7248699 C 2.4095569,6.987715 2.7611552,7.1908194 3.1417688,7.3239584 v 0.8397294 c 0,0.095516 0.066565,0.1792237 0.1604374,0.1996924 0.6263909,0.1399725 1.2681429,0.1331446 1.8638118,0 C 5.2598902,8.342972 5.3264554,8.2593014 5.3264554,8.1636878 V 7.3239584 C 5.7053621,7.1891162 6.0569603,6.9860061 6.3641819,6.7248699 l 0.7270915,0.4198705 c 0.083633,0.047814 0.1877473,0.032404 0.252605,-0.039308 C 7.7654544,6.649725 8.0880374,6.1001372 8.2774906,5.490807 8.3030934,5.396989 8.2655511,5.2979464 8.1819107,5.250147 Z M 4.2324046,5.5966304 c -0.7526932,0 -1.3654299,-0.6127404 -1.3654299,-1.3654326 0,-0.7526904 0.6127367,-1.3654309 1.3654299,-1.3654309 0.7526932,0 1.3654299,0.6127405 1.3654299,1.3654309 0,0.7526922 -0.6127367,1.3654326 -1.3654299,1.3654326 z" id="path818-9"/>
</svg>