<?xml version="1.0" encoding="UTF-8" standalone="no"?>
<!-- Created with Inkscape (http://www.inkscape.org/) -->

<svg
   xmlns:dc="http://purl.org/dc/elements/1.1/"
   xmlns:cc="http://creativecommons.org/ns#"
   xmlns:rdf="http://www.w3.org/1999/02/22-rdf-syntax-ns#"
   xmlns:svg="http://www.w3.org/2000/svg"
   xmlns="http://www.w3.org/2000/svg"
   xmlns:sodipodi="http://sodipodi.sourceforge.net/DTD/sodipodi-0.dtd"
   xmlns:inkscape="http://www.inkscape.org/namespaces/inkscape"
   width="32"
   height="32"
   viewBox="0 0 8.4666666 8.4666666"
   version="1.1"
   id="svg8"
   inkscape:version="0.92.5 (2060ec1f9f, 2020-04-08)"
   sodipodi:docname="admininstrator_sl.svg">
  <defs
     id="defs2" />
  <sodipodi:namedview
     id="base"
     pagecolor="#ffffff"
     bordercolor="#666666"
     borderopacity="1.0"
     inkscape:pageopacity="0.0"
     inkscape:pageshadow="2"
     inkscape:zoom="7.9999996"
     inkscape:cx="11.38033"
     inkscape:cy="23.254031"
     inkscape:document-units="mm"
     inkscape:current-layer="layer1"
     showgrid="false"
     units="px"
     inkscape:window-width="1848"
     inkscape:window-height="1136"
     inkscape:window-x="0"
     inkscape:window-y="27"
     inkscape:window-maximized="1">
    <sodipodi:guide
       position="8.4666666,0"
       orientation="-32,0"
       id="guide854"
       inkscape:locked="false" />
    <sodipodi:guide
       position="8.4666666,8.4666666"
       orientation="0,-32"
       id="guide856"
       inkscape:locked="false" />
    <sodipodi:guide
       position="0,8.4666814"
       orientation="32,0"
       id="guide858"
       inkscape:locked="false" />
  </sodipodi:namedview>
  <metadata
     id="metadata5">
    <rdf:RDF>
      <cc:Work
         rdf:about="">
        <dc:format>image/svg+xml</dc:format>
        <dc:type
           rdf:resource="http://purl.org/dc/dcmitype/StillImage" />
        <dc:title />
      </cc:Work>
    </rdf:RDF>
  </metadata>
  <g
     inkscape:label="Layer 1"
     inkscape:groupmode="layer"
     id="layer1"
     transform="translate(0,-288.53334)">
    <path
       id="path1276"
       d="M 5.7130245,293.30117 H 5.4382574 c -0.3652588,0.16782 -0.7716502,0.26325 -1.1994306,0.26325 -0.4277805,0 -0.8325262,-0.0954 -1.1994306,-0.26325 H 2.7646299 c -1.2208197,0 -2.21129619,0.99048 -2.21129619,2.2113 v 0.68445 c 0,0.436 0.35374185,0.78974 0.78974889,0.78974 h 5.7914883 c 0.436007,0 0.7897488,-0.35374 0.7897488,-0.78974 v -0.68445 c 0,-1.22082 -0.9904755,-2.2113 -2.2112952,-2.2113 z"
       inkscape:connector-curvature="0"
       style="fill:#232323;fill-opacity:1;stroke-width:0.0164531"
       sodipodi:nodetypes="scscssssssss" />
    <g
       transform="matrix(0.53028892,0,0,0.53028892,1.9672081,135.55578)"
       id="layer1-1"
       inkscape:label="Layer 1"
       style="fill:#232323">
      <path
         style="fill:#232323;fill-opacity:1;stroke-width:0.01706422"
         inkscape:connector-curvature="0"
         d="M 8.2211128,293.78943 7.494177,293.36966 c 0.073375,-0.3959 0.073375,-0.80202 0,-1.19791 l 0.7269358,-0.41979 c 0.083614,-0.0478 0.1211559,-0.14674 0.093853,-0.23889 -0.1894125,-0.60749 -0.5119267,-1.15696 -0.9334124,-1.61428 -0.064844,-0.0699 -0.1706428,-0.087 -0.252551,-0.0393 l -0.7269361,0.41978 C 6.096617,290.01648 5.7450939,289.81341 5.3645619,289.68032 v -0.83785 c 0,-0.0955 -0.06655,-0.17918 -0.1604038,-0.19965 -0.626257,-0.13994 -1.2678719,-0.13311 -1.8634133,0 -0.093853,0.0204 -0.1604036,0.10405 -0.1604036,0.19965 v 0.83955 c -0.3788259,0.13481 -0.730349,0.33787 -1.0375051,0.59895 L 1.4176068,289.8612 c -0.083615,-0.0478 -0.1877066,-0.0324 -0.2525506,0.0393 -0.42148635,0.45561 -0.74400008,1.00508 -0.93341302,1.61428 -0.029009,0.0922 0.0102373,0.19112 0.093853,0.23889 l 0.72693602,0.41979 c -0.073376,0.39588 -0.073376,0.80201 0,1.1979 l -0.72693602,0.41978 c -0.0836146,0.0478 -0.12115594,0.14676 -0.093853,0.2389 0.18941294,0.60749 0.51192667,1.15695 0.93341302,1.61428 0.064844,0.0699 0.1706422,0.087 0.2525506,0.0393 l 0.7269359,-0.41978 c 0.3054495,0.26279 0.6569726,0.46585 1.0375048,0.59896 v 0.83955 c 0,0.0955 0.06655,0.17918 0.1604038,0.19965 0.626257,0.13994 1.2678717,0.13311 1.8634133,0 0.093853,-0.0204 0.1604036,-0.10405 0.1604036,-0.19965 v -0.83955 c 0.3788257,-0.13482 0.7303488,-0.33788 1.0375047,-0.59896 l 0.726936,0.41978 c 0.083615,0.0478 0.1877067,0.0324 0.2525509,-0.0393 0.4214859,-0.45561 0.744,-1.00508 0.9334125,-1.61428 0.025597,-0.0938 -0.011945,-0.19282 -0.09556,-0.24061 z m -3.9486616,0.34641 c -0.7525323,0 -1.365138,-0.61261 -1.365138,-1.36514 0,-0.75253 0.6126057,-1.36514 1.365138,-1.36514 0.7525321,0 1.3651378,0.61261 1.3651378,1.36514 0,0.75253 -0.6126057,1.36514 -1.3651378,1.36514 z"
         id="path818" />
    </g>
  </g>
</svg>
