<svg xmlns="http://www.w3.org/2000/svg" viewBox="0 0 512 512"><defs><style>.a{fill:#710132;}.b{fill:#e3e3e3;}</style></defs><title>logo</title><circle class="a" cx="256" cy="251.08" r="246.08"/><path class="b" d="M255.81,41.07A210.42,210.42,0,0,0,146.92,71.24c55.43-16.05,108.75-5.46,139.26,15,13.15,9.65,20.61,27.19,27.19,32.89s14.91,12.28,16.66,19.73,4.38,22.8,15.35,27.62,36.39,13.15,51.3,58.76c-3.07,7.89-19.29,9.65-21,21S385.72,277,385.72,277a8.78,8.78,0,0,1-5.26,10.09,49,49,0,0,0-.44,10.67s3.51.73,3.07,5.12-4.81,6.58-5.7,7.89-7.9,26.31-7.9,27.62,11,16.22,5.26,28.5-29.38,11.4-42.53,6.58c-12.92-4.74-57.68,10.94-41.93,87.63,100.36-16.46,176.93-103.58,176.93-208.6C467.23,135.72,372.57,41.07,255.81,41.07Z"/><path class="b" d="M175.25,347.15c-14-13.59-42.53-14-85.5-34.2-21.09-9.9-35.83-27.73-45-48A211.42,211.42,0,0,0,157.18,439.51C200.24,393.83,189.12,360.58,175.25,347.15Z"/><path class="b" d="M322.15,159.34s-13.14,8-16.79,18.25c16.79,4.38,25.54,0,25.54,0C332.43,165.81,322.15,159.34,322.15,159.34Z"/></svg>