<svg xmlns="http://www.w3.org/2000/svg" viewBox="0 0 512 512"><defs><style>.a{fill:#710132;}.b{fill:#e3e3e3;}.c{fill:#838383;}</style></defs><title>logo</title><circle class="a" cx="256" cy="194.71" r="146.36"/><path class="b" d="M255.89,69.81a125.15,125.15,0,0,0-64.76,17.94c33-9.55,64.68-3.25,82.83,8.93,7.82,5.74,12.26,16.17,16.17,19.56S299,123.54,300,128s2.61,13.56,9.13,16.43,21.65,7.82,30.51,34.95c-1.83,4.69-11.47,5.74-12.52,12.52s6,18.26,6,18.26a5.22,5.22,0,0,1-3.13,6,29.13,29.13,0,0,0-.26,6.34,2.57,2.57,0,0,1,1.83,3c-.26,2.61-2.86,3.91-3.39,4.69s-4.7,15.65-4.7,16.43,6.52,9.65,3.13,17-17.47,6.78-25.3,3.91S267,274,276.4,319.62A125.75,125.75,0,0,0,255.89,69.81Z"/><path class="b" d="M208,251.85c-8.35-8.08-25.3-8.35-50.85-20.34C144.57,225.62,135.81,215,130.37,203a125.74,125.74,0,0,0,66.85,103.82C222.83,279.62,216.22,259.84,208,251.85Z"/><path class="b" d="M295.34,140.15s-7.81,4.77-10,10.85c10,2.6,15.19,0,15.19,0C301.46,144,295.34,140.15,295.34,140.15Z"/><path class="c" d="M178.89,406.81H169l9.9,32.88h-6.31L162.5,406.81h-3.82v32.88H146.06V373.91h32.83Zm-12.63-26.57h-7.59v20.24h7.59Z"/><path class="c" d="M214.7,373.91v65.77H202.16V406.8h-7.6v32.89H182V373.91Zm-12.55,26.56V380.23h-7.6v20.24h7.6Z"/><path class="c" d="M272.72,373.91v65.77h-12V385.15l-19.63,31L231,397v42.72H219V373.91h14.27l12.37,23.7,15-23.7h12.07Z"/><path class="c" d="M288.68,400.53h13.77l-.21,39.15H276.55v-6.27h13.57V406.8H276.55V373.91h25.69v6.32l-13.55,0Z"/><path class="c" d="M312.66,386.49v13.92h19.73v6.31H312.66V427h19.73v12.73h-26V373.91h26v12.58Z"/><path class="c" d="M348.28,400.53h13.77l-.21,39.15H336.15v-6.27h13.57V406.8H336.15V373.91h25.69v6.32l-13.55,0Z"/><path class="c" d="M153.34,459.47a.2.2,0,0,1,0,.09.16.16,0,0,1-.07.06l-.14,0h-.44l-.14,0a.29.29,0,0,1-.1-.09.59.59,0,0,1-.07-.14l-.88-2.29q-.15-.39-.33-.73a2.39,2.39,0,0,0-.42-.59,1.78,1.78,0,0,0-.6-.4,2.17,2.17,0,0,0-.84-.15h-1v4.26a.15.15,0,0,1,0,.08.15.15,0,0,1-.07.06l-.14,0h-.43l-.14,0a.15.15,0,0,1-.07-.06.15.15,0,0,1,0-.08v-8.84a.42.42,0,0,1,.14-.36.47.47,0,0,1,.27-.1h1.77l.58,0,.42,0a3.16,3.16,0,0,1,.94.31,2.19,2.19,0,0,1,.66.52,2.07,2.07,0,0,1,.39.7,2.7,2.7,0,0,1,.13.84,2.47,2.47,0,0,1-.13.84,2,2,0,0,1-.37.65,2.4,2.4,0,0,1-.58.49,3.84,3.84,0,0,1-.74.34,1.91,1.91,0,0,1,.43.27,2.07,2.07,0,0,1,.36.39,3.57,3.57,0,0,1,.31.52c.1.2.19.42.29.66l.88,2.21c.06.17.1.29.12.35A.58.58,0,0,1,153.34,459.47Zm-1.57-6.75a1.85,1.85,0,0,0-.27-1,1.52,1.52,0,0,0-.91-.6,2.84,2.84,0,0,0-.46-.08q-.25,0-.65,0h-1.17v3.47h1.36a2.93,2.93,0,0,0,.94-.13,1.86,1.86,0,0,0,.65-.37,1.41,1.41,0,0,0,.38-.55A1.89,1.89,0,0,0,151.77,452.71Z"/><path class="c" d="M163.59,459.48a.14.14,0,0,1,0,.11.29.29,0,0,1-.12.06l-.21,0-.21,0a.3.3,0,0,1-.14-.06.14.14,0,0,1,0-.11v-.74a3.32,3.32,0,0,1-1,.75,2.51,2.51,0,0,1-1.11.26,3,3,0,0,1-.93-.13,1.94,1.94,0,0,1-.7-.39,1.7,1.7,0,0,1-.44-.61,2,2,0,0,1-.15-.8,1.83,1.83,0,0,1,.87-1.63,3.12,3.12,0,0,1,1-.41,5.79,5.79,0,0,1,1.3-.13h1.05v-.57a2.88,2.88,0,0,0-.09-.75,1.31,1.31,0,0,0-.29-.54,1.21,1.21,0,0,0-.51-.33,2.34,2.34,0,0,0-.77-.11,2.73,2.73,0,0,0-.79.11,3.89,3.89,0,0,0-.61.24l-.43.24a.59.59,0,0,1-.25.11h-.08a.13.13,0,0,1-.06-.05.29.29,0,0,1,0-.1.93.93,0,0,1,0-.15,1.1,1.1,0,0,1,0-.25.4.4,0,0,1,.11-.18,1.47,1.47,0,0,1,.33-.21,3.93,3.93,0,0,1,.54-.23,4.41,4.41,0,0,1,.65-.17,3.78,3.78,0,0,1,.7-.07,3.49,3.49,0,0,1,1.15.16,1.87,1.87,0,0,1,.76.47,1.78,1.78,0,0,1,.41.75,3.82,3.82,0,0,1,.12,1Zm-.87-3.12h-1.21a4,4,0,0,0-.92.09,1.94,1.94,0,0,0-.66.28,1.17,1.17,0,0,0-.39.44,1.29,1.29,0,0,0-.13.58,1.19,1.19,0,0,0,.36.91,1.43,1.43,0,0,0,1,.34,1.86,1.86,0,0,0,1-.27,4.36,4.36,0,0,0,1-.82Z"/><path class="c" d="M170.74,450.65a.68.68,0,0,1-.12.47.64.64,0,0,1-.45.12.62.62,0,0,1-.44-.12,1,1,0,0,1,0-.95.64.64,0,0,1,.45-.12.62.62,0,0,1,.44.12A.67.67,0,0,1,170.74,450.65Zm-.13,8.83a.15.15,0,0,1-.09.14l-.13,0H170l-.13,0a.13.13,0,0,1-.07-.06.19.19,0,0,1,0-.08v-6.61a.18.18,0,0,1,0-.08.15.15,0,0,1,.07-.06l.13,0h.42l.13,0a.18.18,0,0,1,.07.06.15.15,0,0,1,0,.08Z"/><path class="c" d="M182.13,459.48a.16.16,0,0,1,0,.08.15.15,0,0,1-.07.06l-.13,0h-.42l-.13,0a.14.14,0,0,1-.07-.06.16.16,0,0,1,0-.08v-3.92a4.25,4.25,0,0,0-.09-1,2,2,0,0,0-.29-.66,1.29,1.29,0,0,0-.49-.42,1.51,1.51,0,0,0-.69-.15,1.73,1.73,0,0,0-1,.36,5.47,5.47,0,0,0-1.06,1.05v4.74a.15.15,0,0,1-.09.14l-.13,0H177l-.13,0a.13.13,0,0,1-.07-.06.19.19,0,0,1,0-.08v-6.61a.18.18,0,0,1,0-.08.15.15,0,0,1,.07-.06l.13,0h.41l.12,0a.16.16,0,0,1,.06.06.18.18,0,0,1,0,.08v.93a4.07,4.07,0,0,1,1.12-.92,2.34,2.34,0,0,1,1.09-.29,2.46,2.46,0,0,1,1.09.22,1.93,1.93,0,0,1,.72.59,2.4,2.4,0,0,1,.39.87,5.1,5.1,0,0,1,.12,1.2Z"/><path class="c" d="M194,456.1a5.82,5.82,0,0,1-.18,1.52,3.3,3.3,0,0,1-.54,1.15,2.43,2.43,0,0,1-.89.73,2.75,2.75,0,0,1-1.21.26,2.45,2.45,0,0,1-.57-.06,2,2,0,0,1-.51-.2,3.5,3.5,0,0,1-.51-.35c-.17-.14-.36-.31-.56-.51v.85a.17.17,0,0,1,0,.09.15.15,0,0,1-.07.06l-.12,0h-.37l-.12,0a.13.13,0,0,1-.07-.06.2.2,0,0,1,0-.09v-9.84a.18.18,0,0,1,0-.08.15.15,0,0,1,.07-.06l.13,0h.42l.13,0a.18.18,0,0,1,.07.06.15.15,0,0,1,0,.08v4.13a5.84,5.84,0,0,1,.6-.55,3.37,3.37,0,0,1,.55-.36,2.33,2.33,0,0,1,.54-.19,2.56,2.56,0,0,1,.55-.06,2.52,2.52,0,0,1,1.22.28,2.31,2.31,0,0,1,.83.75,3.31,3.31,0,0,1,.46,1.11A6,6,0,0,1,194,456.1Zm-.91.14a6.41,6.41,0,0,0-.09-1.07,3.07,3.07,0,0,0-.3-.92,1.8,1.8,0,0,0-.56-.65,1.49,1.49,0,0,0-.88-.24,1.81,1.81,0,0,0-.51.07,2,2,0,0,0-.51.24,3.74,3.74,0,0,0-.54.43,6.43,6.43,0,0,0-.59.66v2.88a5.5,5.5,0,0,0,1.05,1,1.82,1.82,0,0,0,1.06.35,1.49,1.49,0,0,0,.86-.25,1.92,1.92,0,0,0,.58-.64,3,3,0,0,0,.33-.89A4.93,4.93,0,0,0,193.13,456.23Z"/><path class="c" d="M205.63,456.11a4.9,4.9,0,0,1-.21,1.45,3.3,3.3,0,0,1-.61,1.15,2.79,2.79,0,0,1-1,.76,3.39,3.39,0,0,1-1.41.27,3.46,3.46,0,0,1-1.35-.24,2.56,2.56,0,0,1-1-.7,3,3,0,0,1-.58-1.11,5.14,5.14,0,0,1-.19-1.47,5,5,0,0,1,.2-1.45,3.22,3.22,0,0,1,.61-1.15,2.74,2.74,0,0,1,1-.76,3.46,3.46,0,0,1,1.42-.27,3.52,3.52,0,0,1,1.35.24,2.51,2.51,0,0,1,1,.7,3.07,3.07,0,0,1,.58,1.11A5,5,0,0,1,205.63,456.11Zm-.92.08a5.09,5.09,0,0,0-.11-1.07,2.63,2.63,0,0,0-.36-.9,1.84,1.84,0,0,0-.69-.62,2.26,2.26,0,0,0-1.07-.23,2.29,2.29,0,0,0-1,.21,1.88,1.88,0,0,0-.7.59,2.59,2.59,0,0,0-.41.89,4.4,4.4,0,0,0-.13,1.1,5.19,5.19,0,0,0,.11,1.08,2.59,2.59,0,0,0,.36.9,1.83,1.83,0,0,0,.69.61,2.61,2.61,0,0,0,2.1,0,1.9,1.9,0,0,0,.7-.58,2.55,2.55,0,0,0,.41-.88A4.43,4.43,0,0,0,204.71,456.19Z"/><path class="c" d="M215.64,459.34a.33.33,0,0,1,.06.15.12.12,0,0,1,0,.1.34.34,0,0,1-.16.06l-.27,0H215l-.15,0a.22.22,0,0,1-.09-.06l-.06-.08-1.78-2.76-1.77,2.76-.06.08a.23.23,0,0,1-.09.06l-.15,0h-.24l-.25,0a.31.31,0,0,1-.15-.06.12.12,0,0,1,0-.1.29.29,0,0,1,.07-.15l2.17-3.2L210.32,453a.31.31,0,0,1-.06-.15.11.11,0,0,1,.05-.1.35.35,0,0,1,.16-.06H211l.14,0,.08.05.06.08,1.68,2.58,1.72-2.58.06-.08.08-.05.13,0h.49a.36.36,0,0,1,.16.05.11.11,0,0,1,0,.1.34.34,0,0,1-.07.16l-2.09,3.1Z"/><path class="c" d="M235,459.33a.44.44,0,0,1,0,.18.13.13,0,0,1-.05.11.3.3,0,0,1-.15,0h-.5l-.14,0a.17.17,0,0,1-.08-.06l0-.09-.91-2.52H229l-.87,2.5a.27.27,0,0,1,0,.09l-.08.06-.14,0h-.49a.34.34,0,0,1-.15-.05.13.13,0,0,1-.05-.1.43.43,0,0,1,0-.18l3.31-9a.25.25,0,0,1,.07-.1.3.3,0,0,1,.11-.06l.17,0h.45l.17,0a.27.27,0,0,1,.11.06.28.28,0,0,1,.06.1Zm-3.92-8.19h0l-1.78,5.08h3.61Z"/><path class="c" d="M244.19,457.72a2,2,0,0,1-.18.85,1.78,1.78,0,0,1-.5.64,2.3,2.3,0,0,1-.78.4,3.39,3.39,0,0,1-1,.14,3.74,3.74,0,0,1-.65-.05,3.86,3.86,0,0,1-.55-.14,2.56,2.56,0,0,1-.42-.18,1.4,1.4,0,0,1-.25-.17.43.43,0,0,1-.12-.18.94.94,0,0,1,0-.29.86.86,0,0,1,0-.17.63.63,0,0,1,0-.12.18.18,0,0,1,.06-.08l.08,0a.49.49,0,0,1,.23.1l.38.22a3.52,3.52,0,0,0,.55.22,2.64,2.64,0,0,0,1.35,0,1.48,1.48,0,0,0,.48-.22,1,1,0,0,0,.32-.38,1.21,1.21,0,0,0,.11-.54.89.89,0,0,0-.15-.52,1.38,1.38,0,0,0-.38-.37,2.94,2.94,0,0,0-.54-.28l-.62-.25-.62-.28a2.36,2.36,0,0,1-.54-.37,1.62,1.62,0,0,1-.53-1.26,1.83,1.83,0,0,1,.13-.67,1.68,1.68,0,0,1,.41-.6,2,2,0,0,1,.7-.42,2.86,2.86,0,0,1,1-.16,3.08,3.08,0,0,1,.49,0,3,3,0,0,1,.45.11,2.23,2.23,0,0,1,.35.14l.22.13a.45.45,0,0,1,.1.1.28.28,0,0,1,0,.08,1,1,0,0,1,0,.11,1.33,1.33,0,0,1,0,.15,1.07,1.07,0,0,1,0,.16.51.51,0,0,1,0,.12.18.18,0,0,1-.05.08.12.12,0,0,1-.08,0,.37.37,0,0,1-.18-.08l-.31-.17a2.92,2.92,0,0,0-.45-.18,2.07,2.07,0,0,0-.61-.08,2,2,0,0,0-.6.08,1.17,1.17,0,0,0-.43.23,1,1,0,0,0-.25.34,1.1,1.1,0,0,0-.08.43,1,1,0,0,0,.15.54,1.37,1.37,0,0,0,.39.38,3,3,0,0,0,.55.29l.62.25q.32.12.62.27a2.53,2.53,0,0,1,.55.36,1.64,1.64,0,0,1,.39.51A1.59,1.59,0,0,1,244.19,457.72Z"/><path class="c" d="M253.71,457.72a2,2,0,0,1-.18.85,1.78,1.78,0,0,1-.5.64,2.3,2.3,0,0,1-.78.4,3.39,3.39,0,0,1-1,.14,3.74,3.74,0,0,1-.65-.05,3.86,3.86,0,0,1-.55-.14,2.56,2.56,0,0,1-.42-.18,1.4,1.4,0,0,1-.25-.17.43.43,0,0,1-.12-.18.94.94,0,0,1,0-.29.86.86,0,0,1,0-.17.63.63,0,0,1,0-.12.18.18,0,0,1,.06-.08l.08,0a.49.49,0,0,1,.23.1l.38.22a3.52,3.52,0,0,0,.55.22,2.64,2.64,0,0,0,1.35,0,1.48,1.48,0,0,0,.48-.22,1,1,0,0,0,.32-.38,1.21,1.21,0,0,0,.11-.54.89.89,0,0,0-.15-.52,1.38,1.38,0,0,0-.38-.37,2.94,2.94,0,0,0-.54-.28l-.62-.25-.62-.28a2.36,2.36,0,0,1-.54-.37,1.62,1.62,0,0,1-.53-1.26,1.83,1.83,0,0,1,.13-.67,1.68,1.68,0,0,1,.41-.6,2,2,0,0,1,.7-.42,2.86,2.86,0,0,1,1-.16,3.08,3.08,0,0,1,.49,0,3,3,0,0,1,.45.11,2.23,2.23,0,0,1,.35.14l.22.13a.45.45,0,0,1,.1.1.28.28,0,0,1,0,.08,1,1,0,0,1,0,.11,1.33,1.33,0,0,1,0,.15,1.07,1.07,0,0,1,0,.16.51.51,0,0,1,0,.12.18.18,0,0,1-.05.08.12.12,0,0,1-.08,0,.37.37,0,0,1-.18-.08l-.31-.17a2.92,2.92,0,0,0-.45-.18,2.07,2.07,0,0,0-.61-.08,2,2,0,0,0-.6.08,1.17,1.17,0,0,0-.43.23,1,1,0,0,0-.25.34,1.1,1.1,0,0,0-.08.43,1,1,0,0,0,.15.54,1.37,1.37,0,0,0,.39.38,3,3,0,0,0,.55.29l.62.25q.32.12.62.27a2.53,2.53,0,0,1,.55.36,1.64,1.64,0,0,1,.39.51A1.59,1.59,0,0,1,253.71,457.72Z"/><path class="c" d="M264.73,455.84a.42.42,0,0,1-.14.36.47.47,0,0,1-.27.1h-4.5a4.72,4.72,0,0,0,.12,1.11,2.2,2.2,0,0,0,.4.85,1.79,1.79,0,0,0,.72.54,2.79,2.79,0,0,0,1.1.19,3.83,3.83,0,0,0,.82-.08,4.73,4.73,0,0,0,.63-.18l.44-.18a.69.69,0,0,1,.24-.08l.08,0a.15.15,0,0,1,.06.07.48.48,0,0,1,0,.12,1.33,1.33,0,0,1,0,.18.64.64,0,0,1,0,.1l0,.09,0,.08-.06.07a1.09,1.09,0,0,1-.23.13,3.32,3.32,0,0,1-.5.18,6.5,6.5,0,0,1-.71.16,4.9,4.9,0,0,1-.87.07,3.73,3.73,0,0,1-1.36-.23,2.55,2.55,0,0,1-1-.68,3,3,0,0,1-.61-1.11,5.16,5.16,0,0,1-.21-1.54,4.87,4.87,0,0,1,.22-1.5,3.21,3.21,0,0,1,.62-1.13,2.65,2.65,0,0,1,1-.71,3.14,3.14,0,0,1,1.26-.25,3,3,0,0,1,1.27.25,2.45,2.45,0,0,1,.87.67,2.71,2.71,0,0,1,.5,1,4.27,4.27,0,0,1,.16,1.17Zm-.9-.26a2.38,2.38,0,0,0-.48-1.64,1.82,1.82,0,0,0-1.47-.59,1.94,1.94,0,0,0-.87.19,2,2,0,0,0-.64.49,2.17,2.17,0,0,0-.4.71,3.05,3.05,0,0,0-.16.84Z"/><path class="c" d="M273.58,459.09a1,1,0,0,1,0,.25.33.33,0,0,1-.08.15.53.53,0,0,1-.16.1l-.24.08-.29.05-.3,0a2.35,2.35,0,0,1-.83-.13,1.33,1.33,0,0,1-.56-.4,1.66,1.66,0,0,1-.32-.67,4.16,4.16,0,0,1-.1-1v-4.11h-1a.18.18,0,0,1-.16-.09.51.51,0,0,1-.06-.27.74.74,0,0,1,0-.16.35.35,0,0,1,0-.12.2.2,0,0,1,.07-.07l.09,0h1V451.1a.17.17,0,0,1,0-.08.15.15,0,0,1,.07-.06l.13,0h.42l.13,0a.17.17,0,0,1,.07.06.15.15,0,0,1,0,.08v1.62h1.83l.09,0a.2.2,0,0,1,.07.07.38.38,0,0,1,0,.12.8.8,0,0,1,0,.16.48.48,0,0,1-.06.27.18.18,0,0,1-.16.09h-1.83v4a2.44,2.44,0,0,0,.21,1.15.82.82,0,0,0,.79.39,1.28,1.28,0,0,0,.32,0l.25-.08.19-.08a.32.32,0,0,1,.13,0h.07a.11.11,0,0,1,0,.05.5.5,0,0,1,0,.1A1,1,0,0,1,273.58,459.09Z"/><path class="c" d="M296.2,459.48a.15.15,0,0,1,0,.08.15.15,0,0,1-.08.06l-.14,0h-.42l-.14,0a.15.15,0,0,1-.07-.06.16.16,0,0,1,0-.08V451h0l-3.72,8.57,0,.05-.08,0-.12,0H291l-.12,0-.08,0a.11.11,0,0,1,0-.05L287.22,451h0v8.52a.14.14,0,0,1-.1.14l-.14,0h-.43l-.13,0a.13.13,0,0,1-.07-.06.17.17,0,0,1,0-.08v-8.84a.42.42,0,0,1,.14-.36.47.47,0,0,1,.27-.1h.48a1.18,1.18,0,0,1,.32,0,.8.8,0,0,1,.24.12.71.71,0,0,1,.18.19,1.51,1.51,0,0,1,.13.25l3.12,7.5h0l3.25-7.48a1.59,1.59,0,0,1,.16-.3.9.9,0,0,1,.18-.19.54.54,0,0,1,.2-.1.87.87,0,0,1,.23,0h.53l.14,0a.34.34,0,0,1,.13.08.45.45,0,0,1,.1.14.53.53,0,0,1,0,.22Z"/><path class="c" d="M307.16,459.48a.14.14,0,0,1,0,.11.29.29,0,0,1-.12.06l-.21,0-.21,0a.3.3,0,0,1-.14-.06.14.14,0,0,1,0-.11v-.74a3.32,3.32,0,0,1-1,.75,2.51,2.51,0,0,1-1.11.26,3,3,0,0,1-.93-.13,1.94,1.94,0,0,1-.7-.39,1.7,1.7,0,0,1-.44-.61,2,2,0,0,1-.15-.8,1.83,1.83,0,0,1,.87-1.63,3.12,3.12,0,0,1,1-.41,5.79,5.79,0,0,1,1.3-.13h1.05v-.57a2.88,2.88,0,0,0-.09-.75,1.31,1.31,0,0,0-.29-.54,1.21,1.21,0,0,0-.51-.33,2.34,2.34,0,0,0-.77-.11,2.73,2.73,0,0,0-.79.11,3.89,3.89,0,0,0-.61.24l-.43.24a.59.59,0,0,1-.25.11h-.08a.13.13,0,0,1-.06-.05.29.29,0,0,1,0-.1.93.93,0,0,1,0-.15,1.1,1.1,0,0,1,0-.25.4.4,0,0,1,.11-.18,1.47,1.47,0,0,1,.33-.21,3.93,3.93,0,0,1,.54-.23,4.41,4.41,0,0,1,.65-.17,3.78,3.78,0,0,1,.7-.07,3.49,3.49,0,0,1,1.15.16,1.87,1.87,0,0,1,.76.47,1.78,1.78,0,0,1,.41.75,3.82,3.82,0,0,1,.12,1Zm-.87-3.12h-1.21a4,4,0,0,0-.92.09,1.94,1.94,0,0,0-.66.28,1.17,1.17,0,0,0-.39.44,1.29,1.29,0,0,0-.13.58,1.19,1.19,0,0,0,.36.91,1.43,1.43,0,0,0,1,.34,1.86,1.86,0,0,0,1-.27,4.36,4.36,0,0,0,1-.82Z"/><path class="c" d="M318.67,459.48a.16.16,0,0,1,0,.08.15.15,0,0,1-.07.06l-.13,0H318l-.13,0a.14.14,0,0,1-.07-.06.16.16,0,0,1,0-.08v-3.92a4.25,4.25,0,0,0-.09-1,2,2,0,0,0-.29-.66,1.29,1.29,0,0,0-.49-.42,1.51,1.51,0,0,0-.69-.15,1.73,1.73,0,0,0-1,.36,5.47,5.47,0,0,0-1.06,1.05v4.74a.15.15,0,0,1-.09.14l-.13,0h-.42l-.13,0a.13.13,0,0,1-.07-.06.19.19,0,0,1,0-.08v-6.61a.18.18,0,0,1,0-.08.15.15,0,0,1,.07-.06l.13,0h.41l.12,0a.16.16,0,0,1,.06.06.18.18,0,0,1,0,.08v.93a4.07,4.07,0,0,1,1.12-.92,2.34,2.34,0,0,1,1.09-.29,2.46,2.46,0,0,1,1.09.22,1.93,1.93,0,0,1,.72.59,2.4,2.4,0,0,1,.39.87,5.1,5.1,0,0,1,.12,1.2Z"/><path class="c" d="M329.44,459.48a.14.14,0,0,1,0,.11.29.29,0,0,1-.12.06l-.21,0-.21,0a.3.3,0,0,1-.14-.06.14.14,0,0,1,0-.11v-.74a3.32,3.32,0,0,1-1,.75,2.51,2.51,0,0,1-1.11.26,3,3,0,0,1-.93-.13,1.94,1.94,0,0,1-.7-.39,1.7,1.7,0,0,1-.44-.61,2,2,0,0,1-.15-.8,1.83,1.83,0,0,1,.87-1.63,3.12,3.12,0,0,1,1-.41,5.79,5.79,0,0,1,1.3-.13h1.05v-.57a2.88,2.88,0,0,0-.09-.75,1.31,1.31,0,0,0-.29-.54,1.21,1.21,0,0,0-.51-.33,2.34,2.34,0,0,0-.77-.11,2.73,2.73,0,0,0-.79.11,3.89,3.89,0,0,0-.61.24l-.43.24a.59.59,0,0,1-.25.11h-.08a.13.13,0,0,1-.06-.05.29.29,0,0,1,0-.1.93.93,0,0,1,0-.15,1.1,1.1,0,0,1,0-.25.4.4,0,0,1,.11-.18,1.47,1.47,0,0,1,.33-.21,3.93,3.93,0,0,1,.54-.23,4.41,4.41,0,0,1,.65-.17,3.78,3.78,0,0,1,.7-.07,3.49,3.49,0,0,1,1.15.16,1.87,1.87,0,0,1,.76.47,1.78,1.78,0,0,1,.41.75,3.82,3.82,0,0,1,.12,1Zm-.87-3.12h-1.21a4,4,0,0,0-.92.09,1.94,1.94,0,0,0-.66.28,1.17,1.17,0,0,0-.39.44,1.29,1.29,0,0,0-.13.58,1.19,1.19,0,0,0,.36.91,1.43,1.43,0,0,0,1,.34,1.86,1.86,0,0,0,1-.27,4.36,4.36,0,0,0,1-.82Z"/><path class="c" d="M340.88,453.09a.46.46,0,0,1-.07.29.21.21,0,0,1-.17.08h-1a1.75,1.75,0,0,1,.43.68,2.47,2.47,0,0,1,.12.78,2.63,2.63,0,0,1-.18,1,2,2,0,0,1-.51.74,2.24,2.24,0,0,1-.78.46,3,3,0,0,1-1,.16,2.84,2.84,0,0,1-.85-.12,1.88,1.88,0,0,1-.63-.31,1.3,1.3,0,0,0-.24.34,1,1,0,0,0-.09.44.56.56,0,0,0,.27.47,1.23,1.23,0,0,0,.69.2l1.79.07a3.63,3.63,0,0,1,.85.12,2.18,2.18,0,0,1,.7.33,1.63,1.63,0,0,1,.47.53,1.49,1.49,0,0,1,.17.74,2,2,0,0,1-.18.84,1.89,1.89,0,0,1-.55.7,2.86,2.86,0,0,1-1,.48,4.8,4.8,0,0,1-1.39.18,5.51,5.51,0,0,1-1.32-.14,2.74,2.74,0,0,1-.89-.37,1.46,1.46,0,0,1-.5-.56,1.55,1.55,0,0,1-.16-.69,1.91,1.91,0,0,1,.06-.48,1.66,1.66,0,0,1,.18-.43,2.18,2.18,0,0,1,.3-.39,4.74,4.74,0,0,1,.41-.39,1.39,1.39,0,0,1-.55-.46,1,1,0,0,1-.17-.58,1.75,1.75,0,0,1,.17-.8,2.9,2.9,0,0,1,.42-.62,2.21,2.21,0,0,1-.33-.61,2.36,2.36,0,0,1-.12-.79,2.58,2.58,0,0,1,.18-1,2.11,2.11,0,0,1,.51-.75,2.23,2.23,0,0,1,.78-.47,2.9,2.9,0,0,1,1-.16,4.05,4.05,0,0,1,.54,0l.46.08h1.95a.19.19,0,0,1,.18.09A.56.56,0,0,1,340.88,453.09Zm-.93,7a.83.83,0,0,0-.39-.74,2,2,0,0,0-1-.28l-1.92-.07a3.46,3.46,0,0,0-.43.39,2,2,0,0,0-.27.35,1.17,1.17,0,0,0-.14.34,1.52,1.52,0,0,0,0,.33.88.88,0,0,0,.54.82,3.39,3.39,0,0,0,1.51.28,3.73,3.73,0,0,0,1-.12,2,2,0,0,0,.67-.32,1.14,1.14,0,0,0,.36-.45A1.33,1.33,0,0,0,339.95,460.14Zm-.69-5.21a1.62,1.62,0,0,0-.41-1.18,1.56,1.56,0,0,0-1.17-.42,1.65,1.65,0,0,0-.68.13,1.33,1.33,0,0,0-.48.36,1.54,1.54,0,0,0-.28.53,2.08,2.08,0,0,0-.09.63,1.57,1.57,0,0,0,.41,1.15,1.55,1.55,0,0,0,1.16.42,1.68,1.68,0,0,0,.69-.13,1.35,1.35,0,0,0,.49-.35,1.5,1.5,0,0,0,.28-.52A2,2,0,0,0,339.25,454.93Z"/><path class="c" d="M351.61,455.84a.42.42,0,0,1-.14.36.47.47,0,0,1-.27.1h-4.5a4.72,4.72,0,0,0,.12,1.11,2.2,2.2,0,0,0,.4.85,1.79,1.79,0,0,0,.72.54,2.79,2.79,0,0,0,1.1.19,3.83,3.83,0,0,0,.82-.08,4.73,4.73,0,0,0,.63-.18l.44-.18a.69.69,0,0,1,.24-.08l.08,0a.15.15,0,0,1,.06.07.48.48,0,0,1,0,.12,1.33,1.33,0,0,1,0,.18.64.64,0,0,1,0,.1l0,.09,0,.08-.06.07a1.09,1.09,0,0,1-.23.13,3.32,3.32,0,0,1-.5.18,6.5,6.5,0,0,1-.71.16,4.9,4.9,0,0,1-.87.07,3.73,3.73,0,0,1-1.36-.23,2.55,2.55,0,0,1-1-.68,3,3,0,0,1-.61-1.11,5.16,5.16,0,0,1-.21-1.54,4.87,4.87,0,0,1,.22-1.5,3.21,3.21,0,0,1,.62-1.13,2.65,2.65,0,0,1,1-.71,3.14,3.14,0,0,1,1.26-.25,3,3,0,0,1,1.27.25,2.45,2.45,0,0,1,.87.67,2.71,2.71,0,0,1,.5,1,4.27,4.27,0,0,1,.16,1.17Zm-.9-.26a2.38,2.38,0,0,0-.48-1.64,1.82,1.82,0,0,0-1.47-.59,1.94,1.94,0,0,0-.87.19,2,2,0,0,0-.64.49,2.17,2.17,0,0,0-.4.71,3.05,3.05,0,0,0-.16.84Z"/><path class="c" d="M361,453.21c0,.07,0,.13,0,.19a.49.49,0,0,1,0,.12.21.21,0,0,1,0,.07.09.09,0,0,1-.07,0l-.15,0-.21-.07-.25-.07a1.31,1.31,0,0,0-.31,0,1,1,0,0,0-.39.08,1.55,1.55,0,0,0-.4.27,3.41,3.41,0,0,0-.44.49q-.23.31-.51.75v4.47a.15.15,0,0,1-.09.14l-.13,0h-.42l-.13,0a.13.13,0,0,1-.07-.06.19.19,0,0,1,0-.08v-6.61a.18.18,0,0,1,0-.08.15.15,0,0,1,.07-.06l.13,0H358l.12,0a.16.16,0,0,1,.06.06.18.18,0,0,1,0,.08v1a5.77,5.77,0,0,1,.53-.67,2.63,2.63,0,0,1,.46-.4,1.42,1.42,0,0,1,.43-.19,1.78,1.78,0,0,1,.43-.05h.22l.27,0,.26.07.16.07.06.06,0,.07a.63.63,0,0,1,0,.11S361,453.14,361,453.21Z"/></svg>