<?xml version="1.0" encoding="UTF-8" standalone="no"?>
<!-- Created with Inkscape (http://www.inkscape.org/) -->

<svg
   width="512"
   height="512"
   viewBox="0 0 135.46666 135.46667"
   version="1.1"
   id="svg8"
   inkscape:version="1.1.1 (3bf5ae0d25, 2021-09-20)"
   sodipodi:docname="ramses-logo-large.svg"
   inkscape:export-filename="D:\RxLab\src\RxOT\Ramses\Ramses-Client\src\resources\icons\logo_large.png"
   inkscape:export-xdpi="48.000004"
   inkscape:export-ydpi="48.000004"
   xmlns:inkscape="http://www.inkscape.org/namespaces/inkscape"
   xmlns:sodipodi="http://sodipodi.sourceforge.net/DTD/sodipodi-0.dtd"
   xmlns="http://www.w3.org/2000/svg"
   xmlns:svg="http://www.w3.org/2000/svg"
   xmlns:rdf="http://www.w3.org/1999/02/22-rdf-syntax-ns#"
   xmlns:cc="http://creativecommons.org/ns#"
   xmlns:dc="http://purl.org/dc/elements/1.1/">
  <defs
     id="defs2">
    <style
       id="style2">.a{filter:url(#a);}.b{fill:#710132;}.c{fill:#e3e3e3;}</style>
    <filter
       name="AI_FlouGaussien_4"
       id="a">
      <feGaussianBlur
         id="feGaussianBlur4"
         stdDeviation="4" />
    </filter>
    <style
       id="style2-7">.a{filter:url(#a);}.b{fill:#710132;}.c{fill:#e3e3e3;}</style>
    <filter
       name="AI_FlouGaussien_4"
       id="a-1">
      <feGaussianBlur
         id="feGaussianBlur4-9"
         stdDeviation="4" />
    </filter>
    <style
       id="style2-8">.a{filter:url(#a);}.b{fill:#710132;}.c{fill:#e3e3e3;}</style>
    <filter
       name="AI_FlouGaussien_4"
       id="a-98">
      <feGaussianBlur
         id="feGaussianBlur4-6"
         stdDeviation="4" />
    </filter>
    <style
       id="style2-5">.a{filter:url(#a);}.b{fill:#710132;}.c{fill:#e3e3e3;}</style>
    <filter
       name="AI_FlouGaussien_4"
       id="a-9">
      <feGaussianBlur
         id="feGaussianBlur4-5"
         stdDeviation="4" />
    </filter>
    <style
       id="style2-1">.a{filter:url(#a);}.b{fill:#710132;}.c{fill:#e3e3e3;}</style>
    <filter
       name="AI_FlouGaussien_4"
       id="a-3">
      <feGaussianBlur
         id="feGaussianBlur4-3"
         stdDeviation="4" />
    </filter>
  </defs>
  <sodipodi:namedview
     id="base"
     pagecolor="#ffffff"
     bordercolor="#666666"
     borderopacity="1.0"
     inkscape:pageopacity="0.0"
     inkscape:pageshadow="2"
     inkscape:zoom="0.70710678"
     inkscape:cx="-95.459416"
     inkscape:cy="277.89297"
     inkscape:document-units="mm"
     inkscape:current-layer="g910"
     showgrid="false"
     units="px"
     inkscape:window-width="1294"
     inkscape:window-height="1081"
     inkscape:window-x="553"
     inkscape:window-y="143"
     inkscape:window-maximized="0"
     fit-margin-top="0"
     fit-margin-left="0"
     fit-margin-right="0"
     fit-margin-bottom="0"
     inkscape:snap-nodes="false"
     inkscape:snap-bbox="true"
     inkscape:bbox-paths="true"
     inkscape:bbox-nodes="true"
     inkscape:snap-bbox-edge-midpoints="true"
     inkscape:snap-bbox-midpoints="true"
     inkscape:snap-global="false"
     inkscape:snap-others="true"
     inkscape:snap-object-midpoints="true"
     inkscape:snap-center="true"
     inkscape:pagecheckerboard="0" />
  <metadata
     id="metadata5">
    <rdf:RDF>
      <cc:Work
         rdf:about="">
        <dc:format>image/svg+xml</dc:format>
        <dc:type
           rdf:resource="http://purl.org/dc/dcmitype/StillImage" />
      </cc:Work>
    </rdf:RDF>
  </metadata>
  <g
     inkscape:label="Calque 1"
     inkscape:groupmode="layer"
     id="layer1"
     transform="translate(-41.884402,-131.97524)" />
  <g
     inkscape:groupmode="layer"
     id="layer2"
     inkscape:label="Calque 2">
    <g
       id="g1019"
       transform="translate(0,3.5827551)">
      <g
         id="g910"
         transform="matrix(0.67116327,0,0,0.67116327,22.350199,35.341844)">
        <g
           aria-label="RAMSES"
           id="text842"
           style="font-weight:800;font-size:35.6051px;line-height:1.25;font-family:Domus;-inkscape-font-specification:'Domus, Ultra-Bold';letter-spacing:0px;word-spacing:0px;fill:#e3e3e3;stroke-width:0.890127">
          <path
             d="m 22.016505,123.34127 -3.133249,-4.34382 c 2.563568,-1.3886 4.058982,-3.77414 4.058982,-6.90739 0,-4.8779 -3.63172,-7.6907 -9.791402,-7.6907 -1.53102,0 -3.4893001,0.17802 -4.5574531,0.49847 -2.2075161,0.64089 -2.2431212,2.1007 -2.2431212,3.4893 v 17.4465 c 0,1.4242 0.8545224,2.1363 2.5991722,2.1363 1.7446501,0 2.5991721,-0.7121 2.5991721,-2.1363 v -5.44758 c 0.142421,0 0.249236,0.0356 1.032548,0.0356 0.391656,0 0.818917,0 1.210573,-0.0356 l 3.453695,5.23395 c 1.068153,1.63783 1.81586,2.34993 4.023376,2.34993 1.88707,0 2.527962,-0.53407 2.527962,-1.4242 0,-0.74771 -0.498471,-1.4242 -1.780255,-3.20446 z m -10.574714,-7.33465 v -6.90739 c 0.569681,-0.10681 1.103758,-0.14242 1.602229,-0.14242 2.777198,0 4.415033,1.24618 4.415033,3.4893 0,2.27873 -1.709045,3.63172 -4.735479,3.63172 -0.462866,0 -0.890127,-0.0356 -1.281783,-0.0712 z"
             id="path1061" />
          <path
             d="m 45.978689,124.69426 -6.266498,-17.37528 c -0.747707,-2.1007 -1.566624,-2.84841 -3.952166,-2.84841 -2.349936,0 -3.168854,0.74771 -3.916561,2.84841 l -6.302102,17.37528 c -0.284841,0.85453 -0.427261,1.31739 -0.427261,1.78026 0,0.85452 0.640891,1.49541 2.421146,1.49541 1.81586,0 2.527962,-0.64089 2.919618,-1.85146 l 1.032548,-3.24007 h 8.331593 l 1.068153,3.24007 c 0.391657,1.21057 1.068153,1.85146 2.990829,1.85146 1.88707,0 2.527962,-0.64089 2.527962,-1.49541 0,-0.46287 -0.142421,-0.92573 -0.427261,-1.78026 z m -13.031467,-6.3377 2.670383,-8.29599 2.705987,8.29599 z"
             id="path1063" />
          <path
             d="m 68.908333,110.91509 0.712102,14.91854 c 0.07121,1.4242 0.996942,2.1363 2.741592,2.1363 1.780255,0 2.634778,-0.7121 2.527962,-2.1363 l -1.210573,-18.123 c -0.142421,-2.1363 -0.818917,-3.24006 -3.453695,-3.24006 -2.456751,0 -3.56051,0.96134 -4.450637,3.34688 l -3.916561,10.75274 -3.916561,-10.75274 c -0.925732,-2.52796 -2.171911,-3.34688 -4.521847,-3.34688 -2.705988,0 -3.382485,1.06815 -3.524905,3.24006 l -1.210573,18.123 c -0.106816,1.4242 0.712102,2.1363 2.385541,2.1363 1.709045,0 2.599172,-0.7121 2.670383,-2.1363 l 0.712102,-14.91854 4.130191,11.74968 c 0.534077,1.53102 1.495414,2.20752 3.097644,2.20752 1.602229,0 2.563567,-0.6765 3.097643,-2.20752 z"
             id="path1065" />
          <path
             d="m 88.206266,121.38299 c 0,1.24618 -1.210574,2.1007 -2.990829,2.1007 -1.566624,0 -2.563567,-0.64089 -3.667325,-1.28178 -0.676497,-0.39166 -1.139363,-0.64089 -1.637834,-0.64089 -1.174968,0 -2.314332,1.53102 -2.314332,2.77719 0,0.81892 0.498472,1.45981 1.424204,2.1007 1.566625,1.10376 3.809746,1.74465 6.159682,1.74465 4.806689,0 8.367199,-2.63477 8.367199,-7.08541 0,-7.58389 -10.432294,-7.08541 -10.432294,-10.25427 0,-0.99694 0.961337,-1.88707 2.741592,-1.88707 1.210574,0 2.207516,0.42726 3.34688,0.99694 0.783312,0.39166 1.174968,0.56969 1.566624,0.56969 1.246178,0 2.278726,-1.53102 2.278726,-2.7416 0,-0.81891 -0.427261,-1.35299 -1.388599,-1.95828 -1.531019,-0.96134 -3.596115,-1.56662 -5.803631,-1.56662 -4.735478,0 -8.082357,2.74159 -8.082357,6.87178 0,7.26344 10.432294,6.55134 10.432294,10.25427 z"
             id="path1067" />
          <path
             d="m 101.62936,113.62108 v -4.30822 h 7.47707 c 1.4242,0 2.1363,-0.78331 2.1363,-2.31433 0,-1.56662 -0.7121,-2.34994 -2.1363,-2.34994 h -9.898219 c -1.88707,0 -2.705987,0.81892 -2.705987,2.70599 v 17.73134 c 0,1.88707 0.818917,2.70599 2.705987,2.70599 h 10.076239 c 1.42421,0 2.13631,-0.78331 2.13631,-2.31433 0,-1.56663 -0.7121,-2.34994 -2.13631,-2.34994 h -7.65509 v -4.84229 h 5.98165 c 1.42421,0 2.13631,-0.78332 2.13631,-2.31433 0,-1.56663 -0.7121,-2.34994 -2.13631,-2.34994 z"
             id="path1069" />
          <path
             d="m 123.77564,121.38299 c 0,1.24618 -1.21057,2.1007 -2.99083,2.1007 -1.56662,0 -2.56357,-0.64089 -3.66732,-1.28178 -0.6765,-0.39166 -1.13937,-0.64089 -1.63784,-0.64089 -1.17497,0 -2.31433,1.53102 -2.31433,2.77719 0,0.81892 0.49847,1.45981 1.4242,2.1007 1.56663,1.10376 3.80975,1.74465 6.15969,1.74465 4.80668,0 8.36719,-2.63477 8.36719,-7.08541 0,-7.58389 -10.43229,-7.08541 -10.43229,-10.25427 0,-0.99694 0.96134,-1.88707 2.74159,-1.88707 1.21058,0 2.20752,0.42726 3.34688,0.99694 0.78331,0.39166 1.17497,0.56969 1.56663,0.56969 1.24618,0 2.27872,-1.53102 2.27872,-2.7416 0,-0.81891 -0.42726,-1.35299 -1.3886,-1.95828 -1.53101,-0.96134 -3.59611,-1.56662 -5.80363,-1.56662 -4.73547,0 -8.08235,2.74159 -8.08235,6.87178 0,7.26344 10.43229,6.55134 10.43229,10.25427 z"
             id="path1071" />
        </g>
        <g
           aria-label="Rx Asset Management System"
           id="text846"
           style="font-weight:800;font-size:9.68333px;line-height:1.25;font-family:Domus;-inkscape-font-specification:'Domus, Ultra-Bold';letter-spacing:0px;word-spacing:0px;fill:#e3e3e3;stroke-width:0.242084">
          <path
             d="m 10.3815,134.96132 -0.8521331,-1.18136 c 0.6972001,-0.37765 1.1039001,-1.02644 1.1039001,-1.87857 0,-1.32662 -0.9877001,-2.0916 -2.6629161,-2.0916 -0.4163832,0 -0.9489663,0.0484 -1.2394662,0.13557 -0.6003665,0.1743 -0.6100498,0.57131 -0.6100498,0.94896 v 4.74483 c 0,0.38734 0.2323999,0.581 0.7068831,0.581 0.4744831,0 0.706883,-0.19366 0.706883,-0.581 v -1.48154 c 0.038733,0 0.067783,0.01 0.2808166,0.01 0.1065166,0 0.2227166,0 0.3292332,-0.01 l 0.939283,1.42344 c 0.2904999,0.44544 0.4938498,0.6391 1.0942162,0.6391 0.513216,0 0.687516,-0.14525 0.687516,-0.38733 0,-0.20335 -0.135566,-0.38733 -0.484166,-0.8715 z m -2.875949,-1.99476 v -1.87857 c 0.1549333,-0.029 0.3001833,-0.0387 0.4357499,-0.0387 0.7552997,0 1.2007328,0.33891 1.2007328,0.94896 0,0.61974 -0.4647998,0.9877 -1.2878828,0.9877 -0.1258833,0 -0.2420832,-0.01 -0.3485999,-0.0194 z"
             id="path1093" />
          <path
             d="m 13.480152,133.02466 -0.55195,-0.82309 c -0.2324,-0.35828 -0.49385,-0.49385 -1.016749,-0.49385 -0.513217,0 -0.66815,0.15494 -0.66815,0.36797 0,0.18398 0.125883,0.37765 0.242083,0.53258 l 0.997383,1.31694 -1.055483,1.39439 c -0.1162,0.15494 -0.242083,0.3486 -0.242083,0.53259 0,0.21303 0.154933,0.36796 0.6391,0.36796 0.542266,0 0.745616,-0.16461 0.968333,-0.49385 l 0.619733,-0.91991 0.619733,0.91991 c 0.242083,0.36797 0.503533,0.49385 1.016749,0.49385 0.513217,0 0.66815,-0.15493 0.66815,-0.36796 0,-0.18399 -0.125883,-0.37765 -0.242083,-0.53259 l -1.065166,-1.41376 0.987699,-1.29757 c 0.1162,-0.15493 0.242084,-0.3486 0.242084,-0.53258 0,-0.21303 -0.154934,-0.36797 -0.6391,-0.36797 -0.455117,0 -0.716567,0.10652 -0.968333,0.49385 z"
             id="path1095" />
          <path
             d="m 23.483016,135.32929 -1.704266,-4.72547 c -0.20335,-0.57131 -0.426066,-0.77466 -1.07485,-0.77466 -0.639099,0 -0.861816,0.20335 -1.065166,0.77466 l -1.713949,4.72547 c -0.07747,0.2324 -0.1162,0.35828 -0.1162,0.48416 0,0.2324 0.1743,0.4067 0.658466,0.4067 0.49385,0 0.687517,-0.1743 0.794033,-0.50353 l 0.280817,-0.88118 H 21.8078 l 0.2905,0.88118 c 0.106517,0.32923 0.2905,0.50353 0.8134,0.50353 0.513216,0 0.687516,-0.1743 0.687516,-0.4067 0,-0.12588 -0.03873,-0.25176 -0.1162,-0.48416 z m -3.544099,-1.72363 0.72625,-2.25622 0.735933,2.25622 z"
             id="path1097" />
          <path
             d="m 26.368638,134.88385 c 0,0.15494 -0.154934,0.22272 -0.4067,0.22272 -0.338917,0 -0.590683,-0.13557 -0.890867,-0.2905 -0.14525,-0.0775 -0.280816,-0.13557 -0.416383,-0.13557 -0.387333,0 -0.571316,0.43575 -0.571316,0.67784 0,0.22271 0.14525,0.37765 0.387333,0.5229 0.387333,0.2324 0.84245,0.35828 1.423449,0.35828 1.210417,0 1.8592,-0.54227 1.8592,-1.36535 0,-1.52996 -2.246533,-1.28788 -2.246533,-1.84951 0,-0.13557 0.135567,-0.20335 0.3486,-0.20335 0.213033,0 0.474483,0.0678 0.832766,0.21303 0.2324,0.0968 0.31955,0.12588 0.416384,0.12588 0.348599,0 0.551949,-0.39701 0.551949,-0.66815 0,-0.21303 -0.135566,-0.35828 -0.358283,-0.48416 -0.367966,-0.21304 -0.861816,-0.31955 -1.365349,-0.31955 -1.200733,0 -1.810783,0.59068 -1.810783,1.37503 0,1.49123 2.246533,1.23947 2.246533,1.82046 z"
             id="path1099" />
          <path
             d="m 30.600237,134.88385 c 0,0.15494 -0.154933,0.22272 -0.406699,0.22272 -0.338917,0 -0.590684,-0.13557 -0.890867,-0.2905 -0.14525,-0.0775 -0.280816,-0.13557 -0.416383,-0.13557 -0.387333,0 -0.571316,0.43575 -0.571316,0.67784 0,0.22271 0.14525,0.37765 0.387333,0.5229 0.387333,0.2324 0.842449,0.35828 1.423449,0.35828 1.210416,0 1.859199,-0.54227 1.859199,-1.36535 0,-1.52996 -2.246532,-1.28788 -2.246532,-1.84951 0,-0.13557 0.135567,-0.20335 0.3486,-0.20335 0.213033,0 0.474483,0.0678 0.832766,0.21303 0.2324,0.0968 0.31955,0.12588 0.416383,0.12588 0.3486,0 0.55195,-0.39701 0.55195,-0.66815 0,-0.21303 -0.135566,-0.35828 -0.358283,-0.48416 -0.367967,-0.21304 -0.861816,-0.31955 -1.365349,-0.31955 -1.200733,0 -1.810783,0.59068 -1.810783,1.37503 0,1.49123 2.246532,1.23947 2.246532,1.82046 z"
             id="path1101" />
          <path
             d="m 36.080993,134.76765 c -0.1162,0 -0.2324,0.0484 -0.397017,0.12589 -0.232399,0.10651 -0.464799,0.19366 -0.784349,0.19366 -0.542267,0 -0.84245,-0.24208 -0.95865,-0.70688 h 2.023816 c 0.43575,0 0.803716,-0.0968 0.803716,-0.8134 0,-0.96833 -0.687516,-1.89793 -2.062549,-1.89793 -1.345983,0 -2.159382,0.90055 -2.159382,2.31432 0,1.43313 0.832766,2.26589 2.333682,2.26589 0.61005,0 1.084533,-0.13556 1.413766,-0.32923 0.242083,-0.14525 0.358283,-0.2905 0.358283,-0.49385 0,-0.30987 -0.26145,-0.65847 -0.571316,-0.65847 z m -1.384716,-2.02381 c 0.503533,0 0.716566,0.33892 0.716566,0.73593 h -1.500916 c 0.08715,-0.48416 0.338917,-0.73593 0.78435,-0.73593 z"
             id="path1103" />
          <path
             d="m 40.34163,134.95164 c -0.08715,0 -0.154933,0.0194 -0.222716,0.0291 -0.06778,0.01 -0.1743,0.029 -0.271133,0.029 -0.135567,0 -0.251767,-0.0387 -0.31955,-0.1743 -0.07747,-0.15494 -0.07747,-0.37765 -0.07747,-0.53258 v -1.29757 h 0.716566 c 0.387334,0 0.581,-0.20335 0.581,-0.60037 0,-0.4067 -0.193666,-0.61005 -0.581,-0.61005 h -0.716566 v -0.79403 c 0,-0.38733 -0.242083,-0.581 -0.72625,-0.581 -0.484166,0 -0.726249,0.19367 -0.726249,0.581 v 0.79403 h -0.280817 c -0.387333,0 -0.581,0.20335 -0.581,0.60037 0,0.4067 0.193667,0.61005 0.581,0.61005 h 0.280817 v 1.30725 c 0,0.44543 0.01937,0.8715 0.213033,1.22978 0.2324,0.42607 0.716566,0.6972 1.404083,0.6972 0.387333,0 0.774666,-0.0872 0.987699,-0.21303 0.193667,-0.1162 0.242083,-0.26145 0.242083,-0.41639 0,-0.2324 -0.106516,-0.65846 -0.503533,-0.65846 z"
             id="path1105" />
          <path
             d="m 48.78547,131.58184 0.193667,4.05731 c 0.01937,0.38734 0.271133,0.581 0.745616,0.581 0.484167,0 0.716566,-0.19366 0.687516,-0.581 l -0.329233,-4.92881 c -0.03873,-0.581 -0.222716,-0.88118 -0.939283,-0.88118 -0.668149,0 -0.968333,0.26145 -1.210416,0.91023 l -1.065166,2.92437 -1.065166,-2.92437 c -0.251767,-0.68752 -0.590684,-0.91023 -1.229783,-0.91023 -0.735933,0 -0.919917,0.2905 -0.95865,0.88118 l -0.329233,4.92881 c -0.02905,0.38734 0.193666,0.581 0.648783,0.581 0.4648,0 0.706883,-0.19366 0.72625,-0.581 l 0.193666,-4.05731 1.123267,3.1955 c 0.145249,0.41638 0.406699,0.60036 0.842449,0.60036 0.43575,0 0.6972,-0.18398 0.84245,-0.60036 z"
             id="path1107" />
          <path
             d="m 53.723957,133.36357 v 0.0484 c -1.878566,0.1743 -2.556399,0.65847 -2.556399,1.52996 0,0.78435 0.561633,1.2782 1.471866,1.2782 0.513216,0 0.910233,-0.15493 1.171682,-0.4648 v 0.01 c 0,0.31955 0.164617,0.45511 0.600367,0.45511 0.49385,0 0.716566,-0.1743 0.716566,-0.581 v -2.35304 c 0,-0.47449 -0.106516,-0.84245 -0.31955,-1.08454 -0.300183,-0.33891 -0.832766,-0.51321 -1.568699,-0.51321 -0.571316,0 -1.1039,0.10651 -1.520283,0.32923 -0.251766,0.13557 -0.367966,0.27113 -0.367966,0.47448 0,0.28082 0.213033,0.67784 0.542266,0.67784 0.1162,0 0.251767,-0.0484 0.416383,-0.1162 0.338917,-0.13557 0.561634,-0.19367 0.8134,-0.19367 0.474483,0 0.600367,0.19367 0.600367,0.50353 z m 0,0.85214 v 0.68751 c -0.193667,0.16462 -0.426067,0.25177 -0.66815,0.25177 -0.309867,0 -0.43575,-0.14525 -0.43575,-0.3486 0,-0.32924 0.358283,-0.49385 1.1039,-0.59068 z"
             id="path1109" />
          <path
             d="m 56.841986,131.70772 c -0.4648,0 -0.6972,0.19367 -0.6972,0.581 v 3.35043 c 0,0.38734 0.242083,0.581 0.726249,0.581 0.484167,0 0.72625,-0.19366 0.72625,-0.581 v -2.40146 c 0.1743,-0.1743 0.37765,-0.26145 0.6391,-0.26145 0.242083,0 0.416383,0.0775 0.5229,0.24208 0.06778,0.10652 0.106516,0.25177 0.106516,0.45512 v 1.96571 c 0,0.38734 0.242084,0.581 0.72625,0.581 0.484167,0 0.72625,-0.19366 0.72625,-0.581 v -2.20779 c 0,-0.4648 -0.08715,-0.84245 -0.26145,-1.11359 -0.271133,-0.42606 -0.706883,-0.61005 -1.258833,-0.61005 -0.590683,0 -1.01675,0.21304 -1.278199,0.61974 v -0.0387 c 0.0097,-0.33891 -0.1743,-0.581 -0.677833,-0.581 z"
             id="path1111" />
          <path
             d="m 63.629993,133.36357 v 0.0484 c -1.878566,0.1743 -2.556399,0.65847 -2.556399,1.52996 0,0.78435 0.561633,1.2782 1.471866,1.2782 0.513216,0 0.910233,-0.15493 1.171683,-0.4648 v 0.01 c 0,0.31955 0.164616,0.45511 0.600366,0.45511 0.49385,0 0.716567,-0.1743 0.716567,-0.581 v -2.35304 c 0,-0.47449 -0.106517,-0.84245 -0.31955,-1.08454 -0.300183,-0.33891 -0.832767,-0.51321 -1.5687,-0.51321 -0.571316,0 -1.103899,0.10651 -1.520282,0.32923 -0.251767,0.13557 -0.367967,0.27113 -0.367967,0.47448 0,0.28082 0.213033,0.67784 0.542267,0.67784 0.1162,0 0.251766,-0.0484 0.416383,-0.1162 0.338916,-0.13557 0.561633,-0.19367 0.813399,-0.19367 0.474484,0 0.600367,0.19367 0.600367,0.50353 z m 0,0.85214 v 0.68751 c -0.193667,0.16462 -0.426067,0.25177 -0.66815,0.25177 -0.309866,0 -0.43575,-0.14525 -0.43575,-0.3486 0,-0.32924 0.358284,-0.49385 1.1039,-0.59068 z"
             id="path1113" />
          <path
             d="m 70.369583,132.34682 c 0,-0.38733 -0.1743,-0.56163 -0.551949,-0.56163 -0.26145,0 -0.513217,0.0775 -0.745617,0.24208 -0.31955,-0.22271 -0.7553,-0.3486 -1.258833,-0.3486 -1.103899,0 -1.878566,0.56164 -1.878566,1.44282 0,0.5229 0.271134,0.93928 0.716567,1.19105 -0.358283,0.1743 -0.55195,0.44543 -0.55195,0.8134 0,0.26145 0.106517,0.49385 0.300183,0.66815 -0.513216,0.19366 -0.784349,0.51321 -0.784349,0.95865 0,0.76498 0.842449,1.29756 2.265899,1.29756 1.578382,0 2.217482,-0.67783 2.217482,-1.59775 0,-0.47448 -0.1743,-0.8134 -0.5229,-1.03611 -0.387333,-0.25177 -0.900549,-0.30019 -1.617116,-0.30019 -0.426066,0 -0.61005,-0.0872 -0.61005,-0.30018 0,-0.0872 0.02905,-0.18398 0.09683,-0.25177 0.1162,0.01 0.242083,0.0194 0.367966,0.0194 1.07485,0 1.83015,-0.57131 1.83015,-1.46218 0,-0.0872 -0.0097,-0.1743 -0.01937,-0.25177 h 0.309866 c 0.2905,0 0.43575,-0.1743 0.43575,-0.5229 z m -2.556399,1.28789 c -0.367966,0 -0.571316,-0.19367 -0.571316,-0.50354 0,-0.30018 0.20335,-0.49385 0.571316,-0.49385 0.367967,0 0.571317,0.19367 0.571317,0.49385 0,0.30987 -0.20335,0.50354 -0.571317,0.50354 z m -0.0581,2.53703 c 0.687517,0 0.95865,0.0968 0.95865,0.39701 0,0.27114 -0.251767,0.47449 -0.823083,0.47449 -0.561633,0 -0.794033,-0.18399 -0.794033,-0.44544 0,-0.1743 0.09683,-0.32923 0.280816,-0.44543 0.09683,0.01 0.280817,0.0194 0.37765,0.0194 z"
             id="path1115" />
          <path
             d="m 74.107341,134.76765 c -0.1162,0 -0.2324,0.0484 -0.397016,0.12589 -0.2324,0.10651 -0.4648,0.19366 -0.78435,0.19366 -0.542267,0 -0.84245,-0.24208 -0.95865,-0.70688 h 2.023816 c 0.43575,0 0.803716,-0.0968 0.803716,-0.8134 0,-0.96833 -0.687516,-1.89793 -2.062549,-1.89793 -1.345983,0 -2.159382,0.90055 -2.159382,2.31432 0,1.43313 0.832766,2.26589 2.333682,2.26589 0.61005,0 1.084533,-0.13556 1.413766,-0.32923 0.242084,-0.14525 0.358284,-0.2905 0.358284,-0.49385 0,-0.30987 -0.26145,-0.65847 -0.571317,-0.65847 z m -1.384716,-2.02381 c 0.503533,0 0.716566,0.33892 0.716566,0.73593 h -1.500916 c 0.08715,-0.48416 0.338917,-0.73593 0.78435,-0.73593 z"
             id="path1117" />
          <path
             d="m 76.315119,131.70772 c -0.4648,0 -0.6972,0.19367 -0.6972,0.581 v 3.35043 c 0,0.38734 0.242083,0.581 0.72625,0.581 0.484166,0 0.726249,-0.19366 0.726249,-0.581 v -2.39178 c 0.14525,-0.1743 0.367967,-0.27113 0.619733,-0.27113 0.2324,0 0.4067,0.0775 0.503534,0.22272 0.07747,0.10651 0.106516,0.27113 0.106516,0.47448 v 1.96571 c 0,0.38734 0.242083,0.581 0.72625,0.581 0.484166,0 0.72625,-0.19366 0.72625,-0.581 v -2.39178 c 0.14525,-0.1743 0.367966,-0.27113 0.619733,-0.27113 0.2324,0 0.4067,0.0775 0.503533,0.22272 0.07747,0.10651 0.106516,0.27113 0.106516,0.47448 v 1.96571 c 0,0.38734 0.242084,0.581 0.72625,0.581 0.484167,0 0.72625,-0.19366 0.72625,-0.581 v -2.20779 c 0,-0.4648 -0.08715,-0.84245 -0.26145,-1.11359 -0.26145,-0.4067 -0.66815,-0.61005 -1.210416,-0.61005 -0.6391,0 -1.152316,0.2905 -1.3944,0.76499 -0.2324,-0.50354 -0.668149,-0.76499 -1.297566,-0.76499 -0.590683,0 -1.045799,0.2324 -1.278199,0.61974 v -0.0387 c 0.0097,-0.33891 -0.1743,-0.581 -0.677833,-0.581 z"
             id="path1119" />
          <path
             d="m 86.744045,134.76765 c -0.1162,0 -0.2324,0.0484 -0.397017,0.12589 -0.2324,0.10651 -0.4648,0.19366 -0.78435,0.19366 -0.542266,0 -0.842449,-0.24208 -0.958649,-0.70688 h 2.023816 c 0.435749,0 0.803716,-0.0968 0.803716,-0.8134 0,-0.96833 -0.687516,-1.89793 -2.062549,-1.89793 -1.345983,0 -2.159383,0.90055 -2.159383,2.31432 0,1.43313 0.832767,2.26589 2.333683,2.26589 0.610049,0 1.084533,-0.13556 1.413766,-0.32923 0.242083,-0.14525 0.358283,-0.2905 0.358283,-0.49385 0,-0.30987 -0.26145,-0.65847 -0.571316,-0.65847 z m -1.384717,-2.02381 c 0.503534,0 0.716567,0.33892 0.716567,0.73593 h -1.500916 c 0.08715,-0.48416 0.338916,-0.73593 0.784349,-0.73593 z"
             id="path1121" />
          <path
             d="m 88.95183,131.70772 c -0.4648,0 -0.6972,0.19367 -0.6972,0.581 v 3.35043 c 0,0.38734 0.242083,0.581 0.72625,0.581 0.484166,0 0.726249,-0.19366 0.726249,-0.581 v -2.40146 c 0.1743,-0.1743 0.37765,-0.26145 0.6391,-0.26145 0.242083,0 0.416383,0.0775 0.5229,0.24208 0.06778,0.10652 0.106517,0.25177 0.106517,0.45512 v 1.96571 c 0,0.38734 0.242083,0.581 0.726249,0.581 0.484167,0 0.72625,-0.19366 0.72625,-0.581 v -2.20779 c 0,-0.4648 -0.08715,-0.84245 -0.26145,-1.11359 -0.271133,-0.42606 -0.706883,-0.61005 -1.258833,-0.61005 -0.590683,0 -1.016749,0.21304 -1.278199,0.61974 v -0.0387 c 0.0097,-0.33891 -0.1743,-0.581 -0.677833,-0.581 z"
             id="path1123" />
          <path
             d="m 96.185262,134.95164 c -0.08715,0 -0.154933,0.0194 -0.222716,0.0291 -0.06778,0.01 -0.1743,0.029 -0.271134,0.029 -0.135566,0 -0.251766,-0.0387 -0.31955,-0.1743 -0.07747,-0.15494 -0.07747,-0.37765 -0.07747,-0.53258 v -1.29757 h 0.716566 c 0.387333,0 0.581,-0.20335 0.581,-0.60037 0,-0.4067 -0.193667,-0.61005 -0.581,-0.61005 h -0.716566 v -0.79403 c 0,-0.38733 -0.242083,-0.581 -0.72625,-0.581 -0.484166,0 -0.72625,0.19367 -0.72625,0.581 v 0.79403 H 93.56108 c -0.387333,0 -0.581,0.20335 -0.581,0.60037 0,0.4067 0.193667,0.61005 0.581,0.61005 h 0.280816 v 1.30725 c 0,0.44543 0.01937,0.8715 0.213034,1.22978 0.232399,0.42607 0.716566,0.6972 1.404082,0.6972 0.387334,0 0.774667,-0.0872 0.9877,-0.21303 0.193667,-0.1162 0.242083,-0.26145 0.242083,-0.41639 0,-0.2324 -0.106516,-0.65846 -0.503533,-0.65846 z"
             id="path1125" />
          <path
             d="m 101.85967,134.42874 c 0,0.33891 -0.32923,0.57131 -0.8134,0.57131 -0.42606,0 -0.6972,-0.1743 -0.99738,-0.3486 -0.183982,-0.10651 -0.309866,-0.1743 -0.445432,-0.1743 -0.31955,0 -0.629417,0.41639 -0.629417,0.7553 0,0.22272 0.135567,0.39702 0.387333,0.57132 0.426067,0.30018 1.036116,0.47448 1.675216,0.47448 1.30725,0 2.27558,-0.71656 2.27558,-1.92698 0,-2.06255 -2.83721,-1.92698 -2.83721,-2.7888 0,-0.27113 0.26145,-0.51321 0.74561,-0.51321 0.32924,0 0.60037,0.1162 0.91024,0.27113 0.21303,0.10652 0.31955,0.15493 0.42606,0.15493 0.33892,0 0.61974,-0.41638 0.61974,-0.74561 0,-0.22272 -0.1162,-0.36797 -0.37765,-0.53259 -0.41639,-0.26145 -0.97802,-0.42606 -1.57839,-0.42606 -1.287879,0 -2.198112,0.74561 -2.198112,1.86888 0,1.9754 2.837212,1.78173 2.837212,2.7888 z"
             id="path1127" />
          <path
             d="m 107.43726,131.70772 c -0.61005,0 -0.66815,0.27114 -0.73593,0.581 -0.21304,0.95865 -0.5229,1.87857 -0.72625,2.33368 l -0.83277,-2.34336 c -0.14525,-0.39702 -0.31955,-0.57132 -0.84245,-0.57132 -0.53258,0 -0.6972,0.20335 -0.6972,0.44544 0,0.14525 0.0678,0.2905 0.12588,0.43575 l 1.43314,3.37948 c -0.0872,0.16461 -0.44544,0.57131 -0.68752,0.8134 -0.18398,0.18398 -0.3486,0.36796 -0.3486,0.60036 0,0.37765 0.4067,0.66815 0.78435,0.66815 0.28082,0 0.49385,-0.16461 0.82308,-0.57131 0.95865,-1.18137 1.83984,-3.18582 2.19812,-4.45433 0.10652,-0.37765 0.16462,-0.67784 0.16462,-0.85214 0,-0.25176 -0.1162,-0.4648 -0.65847,-0.4648 z"
             id="path1129" />
          <path
             d="m 110.90388,134.88385 c 0,0.15494 -0.15493,0.22272 -0.4067,0.22272 -0.33892,0 -0.59068,-0.13557 -0.89087,-0.2905 -0.14525,-0.0775 -0.28081,-0.13557 -0.41638,-0.13557 -0.38733,0 -0.57132,0.43575 -0.57132,0.67784 0,0.22271 0.14525,0.37765 0.38734,0.5229 0.38733,0.2324 0.84245,0.35828 1.42345,0.35828 1.21041,0 1.8592,-0.54227 1.8592,-1.36535 0,-1.52996 -2.24654,-1.28788 -2.24654,-1.84951 0,-0.13557 0.13557,-0.20335 0.3486,-0.20335 0.21304,0 0.47449,0.0678 0.83277,0.21303 0.2324,0.0968 0.31955,0.12588 0.41638,0.12588 0.3486,0 0.55195,-0.39701 0.55195,-0.66815 0,-0.21303 -0.13556,-0.35828 -0.35828,-0.48416 -0.36797,-0.21304 -0.86182,-0.31955 -1.36535,-0.31955 -1.20073,0 -1.81078,0.59068 -1.81078,1.37503 0,1.49123 2.24653,1.23947 2.24653,1.82046 z"
             id="path1131" />
          <path
             d="m 115.85206,134.95164 c -0.0871,0 -0.15494,0.0194 -0.22272,0.0291 -0.0678,0.01 -0.1743,0.029 -0.27113,0.029 -0.13557,0 -0.25177,-0.0387 -0.31955,-0.1743 -0.0775,-0.15494 -0.0775,-0.37765 -0.0775,-0.53258 v -1.29757 h 0.71657 c 0.38733,0 0.581,-0.20335 0.581,-0.60037 0,-0.4067 -0.19367,-0.61005 -0.581,-0.61005 h -0.71657 v -0.79403 c 0,-0.38733 -0.24208,-0.581 -0.72625,-0.581 -0.48417,0 -0.72625,0.19367 -0.72625,0.581 v 0.79403 h -0.28082 c -0.38733,0 -0.581,0.20335 -0.581,0.60037 0,0.4067 0.19367,0.61005 0.581,0.61005 h 0.28082 v 1.30725 c 0,0.44543 0.0194,0.8715 0.21303,1.22978 0.2324,0.42607 0.71657,0.6972 1.40409,0.6972 0.38733,0 0.77466,-0.0872 0.9877,-0.21303 0.19366,-0.1162 0.24208,-0.26145 0.24208,-0.41639 0,-0.2324 -0.10652,-0.65846 -0.50353,-0.65846 z"
             id="path1133" />
          <path
             d="m 120.32572,134.76765 c -0.1162,0 -0.2324,0.0484 -0.39701,0.12589 -0.2324,0.10651 -0.4648,0.19366 -0.78435,0.19366 -0.54227,0 -0.84245,-0.24208 -0.95865,-0.70688 h 2.02381 c 0.43575,0 0.80372,-0.0968 0.80372,-0.8134 0,-0.96833 -0.68752,-1.89793 -2.06255,-1.89793 -1.34598,0 -2.15938,0.90055 -2.15938,2.31432 0,1.43313 0.83277,2.26589 2.33368,2.26589 0.61005,0 1.08453,-0.13556 1.41377,-0.32923 0.24208,-0.14525 0.35828,-0.2905 0.35828,-0.49385 0,-0.30987 -0.26145,-0.65847 -0.57132,-0.65847 z m -1.38471,-2.02381 c 0.50353,0 0.71657,0.33892 0.71657,0.73593 h -1.50092 c 0.0871,-0.48416 0.33892,-0.73593 0.78435,-0.73593 z"
             id="path1135" />
          <path
             d="m 122.53351,131.70772 c -0.4648,0 -0.6972,0.19367 -0.6972,0.581 v 3.35043 c 0,0.38734 0.24208,0.581 0.72625,0.581 0.48417,0 0.72625,-0.19366 0.72625,-0.581 v -2.39178 c 0.14525,-0.1743 0.36797,-0.27113 0.61973,-0.27113 0.2324,0 0.4067,0.0775 0.50354,0.22272 0.0775,0.10651 0.10651,0.27113 0.10651,0.47448 v 1.96571 c 0,0.38734 0.24209,0.581 0.72625,0.581 0.48417,0 0.72625,-0.19366 0.72625,-0.581 v -2.39178 c 0.14525,-0.1743 0.36797,-0.27113 0.61974,-0.27113 0.2324,0 0.40669,0.0775 0.50353,0.22272 0.0775,0.10651 0.10651,0.27113 0.10651,0.47448 v 1.96571 c 0,0.38734 0.24209,0.581 0.72625,0.581 0.48417,0 0.72625,-0.19366 0.72625,-0.581 v -2.20779 c 0,-0.4648 -0.0872,-0.84245 -0.26145,-1.11359 -0.26145,-0.4067 -0.66815,-0.61005 -1.21041,-0.61005 -0.6391,0 -1.15232,0.2905 -1.3944,0.76499 -0.2324,-0.50354 -0.66815,-0.76499 -1.29757,-0.76499 -0.59068,0 -1.0458,0.2324 -1.2782,0.61974 v -0.0387 c 0.01,-0.33891 -0.1743,-0.581 -0.67783,-0.581 z"
             id="path1137" />
        </g>
        <g
           inkscape:label="Calque 1"
           id="layer1-8"
           transform="matrix(1.2153232,0,0,1.2153232,-65.602362,-218.78672)">
          <circle
             style="display:none;opacity:1;fill:#e3e3e3;fill-opacity:1;fill-rule:nonzero;stroke:#a526c4;stroke-width:5.519;stroke-linecap:butt;stroke-linejoin:round;stroke-miterlimit:4;stroke-dasharray:none;stroke-opacity:1;paint-order:markers fill stroke"
             id="circle834-6"
             cx="109.61774"
             cy="199.70857"
             r="64.927773" />
          <path
             sodipodi:type="star"
             style="fill:#e3e3e3;fill-opacity:1;stroke:#a526c4;stroke-width:21.2455;stroke-linejoin:round;stroke-miterlimit:4;stroke-dasharray:none;stroke-opacity:1"
             id="path845"
             inkscape:flatsided="true"
             sodipodi:sides="6"
             sodipodi:cx="-85.862968"
             sodipodi:cy="16.162441"
             sodipodi:r1="260.73874"
             sodipodi:r2="225.80638"
             sodipodi:arg1="1.0471976"
             sodipodi:arg2="1.5707963"
             inkscape:rounded="0"
             inkscape:randomized="0"
             d="m 44.50639,241.96882 -260.73874,-1e-5 -130.36936,-225.806381 130.36938,-225.806369 260.738742,2e-5 130.369358,225.806374 z"
             transform="matrix(0.24823347,0,0,0.24823347,130.9318,195.69651)" />
          <path
             sodipodi:nodetypes="saascccsscsccssssscccsccccc"
             inkscape:connector-curvature="0"
             id="circle15-1-9"
             d="m 47.636491,191.72583 c -3.765105,6.51266 -3.530965,8.60927 -2.265284,12.72884 1.58342,5.15375 6.771036,8.63963 11.286166,11.5861 7.289068,4.75675 15.539888,6.30257 24.457257,9.14653 3.168533,1.01051 8.572445,16.19996 0.908373,30.67876 15.59599,1.25651 22.145407,0.59857 33.384097,1.10302 -1.33278,-20.82528 8.95568,-19.64547 12.98811,-18.86909 4.06757,1.32096 11.29084,1.31959 12.9023,-2.49321 1.61157,-3.81253 -1.86479,-6.8912 -1.92978,-8.63636 -0.19588,-5.24339 1.83927,-8.10853 2.09594,-8.5185 0.25692,-0.40655 1.58498,-1.12656 1.64912,-2.47215 0.1054,-2.20783 -2.05609,-3.31207 -2.05609,-3.31207 0.79159,-1.25934 3.33064,-2.01331 2.56335,-4.61522 0,0 -3.80694,-5.78888 -3.41447,-9.2715 0.39243,-3.48278 7.63005,-3.01189 6.16858,-6.64743 -5.0056,-12.45215 -12.92071,-15.99954 -16.32303,-17.34539 -3.4023,-1.3456 -4.38025,-5.99954 -4.99923,-8.25336 -0.61885,-2.253 -3.23572,-4.1657 -5.3085,-5.82994 -2.07277,-1.66439 -4.54887,-6.93173 -8.67147,-9.72637 -6.26258,-3.86878 -14.612686,-7.41925 -22.337232,-7.17846 -7.724579,0.23818 -12.062081,1.00022 -18.778228,11.41713 -5.922397,9.88776 -12.443878,19.42556 -22.319979,36.50867 z m 70.499649,-19.40454 c 0,0 5.98842,3.46415 5.36809,10.20137 0,0 -4.88756,2.6794 -14.53663,0.54344 1.85955,-5.91138 9.16859,-10.74412 9.16859,-10.74412 z"
             style="display:inline;fill:#a526c4;fill-opacity:1;stroke-width:0.305353" />
        </g>
      </g>
    </g>
  </g>
</svg>
