<?xml version="1.0" encoding="UTF-8" standalone="no"?>
<!-- Created with Inkscape (http://www.inkscape.org/) -->

<svg
   xmlns:dc="http://purl.org/dc/elements/1.1/"
   xmlns:cc="http://creativecommons.org/ns#"
   xmlns:rdf="http://www.w3.org/1999/02/22-rdf-syntax-ns#"
   xmlns:svg="http://www.w3.org/2000/svg"
   xmlns="http://www.w3.org/2000/svg"
   xmlns:sodipodi="http://sodipodi.sourceforge.net/DTD/sodipodi-0.dtd"
   xmlns:inkscape="http://www.inkscape.org/namespaces/inkscape"
   width="32"
   height="32"
   viewBox="0 0 8.4666666 8.4666666"
   version="1.1"
   id="svg8"
   inkscape:version="0.92.5 (2060ec1f9f, 2020-04-08)"
   sodipodi:docname="assets_sl.svg">
  <defs
     id="defs2">
    <style
       id="style1399">.cls-1{fill:#e3e3e3;}</style>
    <style
       id="style857">.cls-1{fill:#e52120;}.cls-1,.cls-2,.cls-3,.cls-4,.cls-5{stroke:#000;stroke-miterlimit:10;stroke-width:1.2px;}.cls-2{fill:#6dbc88;}.cls-3{fill:#701034;}.cls-4{fill:#51aae0;}.cls-5{fill:none;}</style>
    <style
       id="style857-2">.cls-1{fill:#e52120;}.cls-1,.cls-2,.cls-3,.cls-4,.cls-5{stroke:#000;stroke-miterlimit:10;stroke-width:1.2px;}.cls-2{fill:#6dbc88;}.cls-3{fill:#701034;}.cls-4{fill:#51aae0;}.cls-5{fill:none;}</style>
  </defs>
  <sodipodi:namedview
     id="base"
     pagecolor="#ffffff"
     bordercolor="#666666"
     borderopacity="1.0"
     inkscape:pageopacity="0.0"
     inkscape:pageshadow="2"
     inkscape:zoom="16"
     inkscape:cx="-10.810313"
     inkscape:cy="22.473373"
     inkscape:document-units="mm"
     inkscape:current-layer="layer1"
     showgrid="false"
     units="px"
     inkscape:window-width="1868"
     inkscape:window-height="1016"
     inkscape:window-x="0"
     inkscape:window-y="27"
     inkscape:window-maximized="1"
     inkscape:snap-bbox="true"
     inkscape:bbox-nodes="true"
     inkscape:bbox-paths="true"
     inkscape:snap-bbox-edge-midpoints="true"
     inkscape:snap-bbox-midpoints="true"
     inkscape:object-paths="true"
     inkscape:snap-nodes="false">
    <sodipodi:guide
       position="8.4666666,0"
       orientation="-32,0"
       id="guide854"
       inkscape:locked="false" />
    <sodipodi:guide
       position="8.4666666,8.4666666"
       orientation="0,-32"
       id="guide856"
       inkscape:locked="false" />
    <sodipodi:guide
       position="0,8.4666814"
       orientation="32,0"
       id="guide858"
       inkscape:locked="false" />
  </sodipodi:namedview>
  <metadata
     id="metadata5">
    <rdf:RDF>
      <cc:Work
         rdf:about="">
        <dc:format>image/svg+xml</dc:format>
        <dc:type
           rdf:resource="http://purl.org/dc/dcmitype/StillImage" />
        <dc:title />
      </cc:Work>
    </rdf:RDF>
  </metadata>
  <g
     inkscape:label="Layer 1"
     inkscape:groupmode="layer"
     id="layer1"
     transform="translate(0,-288.53334)">
    <path
       style="fill:#e3e3e3;fill-opacity:1;stroke:none;stroke-width:0.17830071px;stroke-miterlimit:10"
       d="m 3.7634709,288.53334 c -0.2601696,1.1e-4 -0.5211486,5.7e-4 -0.780383,6.6e-4 -0.1436044,0.005 -0.2584612,0.12248 -0.259257,0.2671 v 0.29713 c 9.7e-6,0.31173 -0.2518444,0.56505 -0.5635738,0.56749 H 1.7148837 c -0.313232,10e-6 -0.567011,-0.25427 -0.5661859,-0.56749 v -0.29713 c -7.355e-4,-0.1371 -0.1043614,-0.24862 -0.23705359,-0.26449 -0.26922525,3.2e-4 -0.5335317,6.6e-4 -0.80519864,6.6e-4 0.003904,1.21704 0.001959,2.43408 0.001959,3.65115 h 0.80781105 c 0.14853088,-0.001 0.26954028,0.1192 0.27035878,0.26774 v 0.29713 c -8.493e-4,0.31323 0.2523008,0.56749 0.5655328,0.56749 H 1.91602 c 0.31173,-0.002 0.5629305,-0.25575 0.5629208,-0.56749 v -0.29713 c 8.024e-4,-0.14737 0.120375,-0.26694 0.2677463,-0.26774 h 1.0167838 v -0.77255 c 8.359e-4,-0.1497 -0.1206666,-0.2712 -0.2703587,-0.27036 H 3.1959789 c -0.3123122,-5.7e-4 -0.5653692,-0.25387 -0.5661858,-0.56619 v -0.44538 c 0.00324,-0.30973 0.2551144,-0.55951 0.5648797,-0.5603 h 0.2971334 c 0.1502726,10e-4 0.272504,-0.12008 0.2716647,-0.27036 z m 4.6999308,0.0333 c -1.2170413,0.003 -2.4347474,9.9e-4 -3.6518011,9.9e-4 v 0.89533 c 0.00113,0.14854 -0.1185698,0.26955 -0.2670937,0.27036 h -0.297133 c -0.3132361,-8.6e-4 -0.5674921,0.25294 -0.5674921,0.56619 v 0.23638 c 0.00254,0.31174 0.2557473,0.56294 0.5674921,0.56293 h 0.297133 c 0.1473741,8.1e-4 0.266285,0.12036 0.2670937,0.26776 v 0.85613 h 0.7725467 c 0.1496989,8.2e-4 0.2718456,-0.12071 0.2710115,-0.27036 v -0.29713 c 5.683e-4,-0.31232 0.2532196,-0.56537 0.565533,-0.56619 h 0.4460263 c 0.3097481,0.003 0.5595125,0.2551 0.5603085,0.56488 v 0.29714 c -0.00127,0.15026 0.1200786,0.27248 0.2703588,0.27166 l 0.7692813,6.6e-4 c -1.011e-4,-0.26017 -5.685e-4,-0.52116 -6.687e-4,-0.78039 -0.00506,-0.14359 -0.1218341,-0.2591 -0.2664405,-0.2599 H 7.9017713 c -0.3117321,0 -0.5650529,-0.25119 -0.5674922,-0.56292 v -0.44539 c -1.24e-5,-0.31323 0.2542688,-0.56701 0.5674922,-0.56619 h 0.2977862 c 0.1371,-7.2e-4 0.2479563,-0.10434 0.2638285,-0.23705 -3.16e-4,-0.26922 0,-0.53353 0,-0.80519 z m -1.9016531,3.58714 c -0.3117321,0.002 -0.5629335,0.25576 -0.5629209,0.56749 v 0.29715 c -8.024e-4,0.14736 -0.1203473,0.26693 -0.2677464,0.26773 H 4.7626224 v 0.77255 c -8.358e-4,0.1497 0.1207101,0.27119 0.2703588,0.27036 h 0.2971334 c 0.312313,5.7e-4 0.5653769,0.25387 0.5661856,0.56618 v 0.44538 c -0.0038,0.30974 -0.2551063,0.56017 -0.5648797,0.56096 H 5.0342872 c -0.1502803,-9.9e-4 -0.2724986,0.11943 -0.2716648,0.26971 l -6.686e-4,0.76994 c 0.2601725,-1e-4 0.5211581,-5.8e-4 0.7803832,-6.7e-4 0.1436079,-0.005 0.2591137,-0.12249 0.2599098,-0.2671 v -0.29713 c 0,-0.31173 0.2511887,-0.56505 0.5629207,-0.5675 h 0.4453734 c 0.3132359,-10e-6 0.56702,0.25428 0.5661861,0.5675 v 0.29713 c 7.356e-4,0.1371 0.1043012,0.24862 0.2370535,0.26449 0.2692209,-3.1e-4 0.5335261,-6.7e-4 0.8051986,-6.7e-4 -0.0038,-1.21705 -0.0013,-2.43409 -0.0013,-3.65115 H 7.5778652 c -0.1485366,10e-4 -0.2695499,-0.11922 -0.2703587,-0.26774 v -0.29713 c 8.359e-4,-0.31324 -0.25295,-0.5675 -0.5661857,-0.5675 z M 0,293.28028 c 1.0110719e-4,0.26016 5.6505521e-4,0.52181 6.5198832e-4,0.78104 0.005054072,0.14359 0.12248711168,0.25846 0.26709345168,0.25925 h 0.29713332 c 0.31173196,0 0.56505314,0.25118 0.56749204,0.56292 v 0.44603 c 1.26e-5,0.31323 -0.25426888,0.56702 -0.56749204,0.56619 H 0.26774652 c -0.13709993,7.3e-4 -0.24860912,0.10433 -0.26448133,0.23704 3.1592e-4,0.26924 6.5199e-4,0.5329 6.5199e-4,0.80456 1.21704132,-0.003 2.43409422,-9.9e-4 3.65114792,-9.9e-4 v -0.89858 c -0.00113,-0.14855 0.1192229,-0.26955 0.2677467,-0.27037 h 0.2971331 c 0.313236,8.4e-4 0.5674921,-0.25229 0.5674921,-0.56553 v -0.21093 c -0.00254,-0.31173 -0.2557473,-0.56293 -0.5674921,-0.56292 H 3.9228118 c -0.1473739,-8.1e-4 -0.2669379,-0.12036 -0.2677467,-0.26775 v -0.87899 H 2.8825185 c -0.1496988,-8.4e-4 -0.2711927,0.1207 -0.2703585,0.27036 v 0.29778 c -5.683e-4,0.31231 -0.2538726,0.56472 -0.566186,0.56553 H 1.6006016 c -0.3097479,-0.003 -0.5595123,-0.2551 -0.5603085,-0.56488 v -0.29714 c 0.00127,-0.15027 -0.12007827,-0.2725 -0.27035864,-0.27166 z"
       id="path877"
       inkscape:connector-curvature="0" />
  </g>
  <style
     id="style815"
     type="text/css">
	.st0{fill:#00005B;}
	.st1{fill:#9999FF;}
</style>
  <style
     id="style815-2"
     type="text/css">
	.st0{fill:#00005B;}
	.st1{fill:#9999FF;}
</style>
</svg>
