<?xml version="1.0" encoding="UTF-8" standalone="no"?>
<!-- Created with Inkscape (http://www.inkscape.org/) -->

<svg
   xmlns:dc="http://purl.org/dc/elements/1.1/"
   xmlns:cc="http://creativecommons.org/ns#"
   xmlns:rdf="http://www.w3.org/1999/02/22-rdf-syntax-ns#"
   xmlns:svg="http://www.w3.org/2000/svg"
   xmlns="http://www.w3.org/2000/svg"
   xmlns:sodipodi="http://sodipodi.sourceforge.net/DTD/sodipodi-0.dtd"
   xmlns:inkscape="http://www.inkscape.org/namespaces/inkscape"
   width="32"
   height="32"
   viewBox="0 0 8.4666666 8.4666666"
   version="1.1"
   id="svg8"
   inkscape:version="0.92.5 (2060ec1f9f, 2020-04-08)"
   sodipodi:docname="assets-properties-group_sl.svg">
  <defs
     id="defs2">
    <style
       id="style857">.cls-1{fill:#e52120;}.cls-1,.cls-2,.cls-3,.cls-4,.cls-5{stroke:#000;stroke-miterlimit:10;stroke-width:1.2px;}.cls-2{fill:#6dbc88;}.cls-3{fill:#701034;}.cls-4{fill:#51aae0;}.cls-5{fill:none;}</style>
    <style
       id="style857-2">.cls-1{fill:#e52120;}.cls-1,.cls-2,.cls-3,.cls-4,.cls-5{stroke:#000;stroke-miterlimit:10;stroke-width:1.2px;}.cls-2{fill:#6dbc88;}.cls-3{fill:#701034;}.cls-4{fill:#51aae0;}.cls-5{fill:none;}</style>
  </defs>
  <sodipodi:namedview
     id="base"
     pagecolor="#ffffff"
     bordercolor="#666666"
     borderopacity="1.0"
     inkscape:pageopacity="0.0"
     inkscape:pageshadow="2"
     inkscape:zoom="2.8284271"
     inkscape:cx="17.736595"
     inkscape:cy="27.27603"
     inkscape:document-units="mm"
     inkscape:current-layer="svg8"
     showgrid="false"
     units="px"
     inkscape:window-width="1848"
     inkscape:window-height="1136"
     inkscape:window-x="0"
     inkscape:window-y="27"
     inkscape:window-maximized="1">
    <sodipodi:guide
       position="8.4666666,0"
       orientation="-32,0"
       id="guide854"
       inkscape:locked="false" />
    <sodipodi:guide
       position="8.4666666,8.4666666"
       orientation="0,-32"
       id="guide856"
       inkscape:locked="false" />
    <sodipodi:guide
       position="0,8.4666814"
       orientation="32,0"
       id="guide858"
       inkscape:locked="false" />
  </sodipodi:namedview>
  <metadata
     id="metadata5">
    <rdf:RDF>
      <cc:Work
         rdf:about="">
        <dc:format>image/svg+xml</dc:format>
        <dc:type
           rdf:resource="http://purl.org/dc/dcmitype/StillImage" />
        <dc:title></dc:title>
      </cc:Work>
    </rdf:RDF>
  </metadata>
  <path
     style="fill:#e3e3e3;fill-opacity:1;stroke-width:0.06233257"
     d="M 0.80078125 1.9277344 C 0.38770332 1.9277344 0.052734375 2.2627034 0.052734375 2.6757812 L 0.052734375 5.1699219 C 0.052734375 5.583 0.38770325 5.9179688 0.80078125 5.9179688 L 2.0488281 5.9179688 L 2.0488281 25.863281 L 0.80078125 25.863281 C 0.38770332 25.863281 0.052734375 26.198248 0.052734375 26.611328 L 0.052734375 29.105469 C 0.052734375 29.518545 0.38770325 29.853516 0.80078125 29.853516 L 3.2949219 29.853516 C 3.7079998 29.853516 4.0429687 29.518545 4.0429688 29.105469 L 4.0429688 27.857422 L 27.978516 27.857422 L 27.978516 29.105469 C 27.978516 29.518545 28.313489 29.853516 28.726562 29.853516 L 31.220703 29.853516 C 31.633781 29.853516 31.96875 29.518545 31.96875 29.105469 L 31.96875 26.611328 C 31.96875 26.198249 31.633779 25.863281 31.220703 25.863281 L 29.972656 25.863281 L 29.972656 7.9121094 L 29.972656 5.9179688 L 31.220703 5.9179688 C 31.633781 5.9179688 31.96875 5.5829978 31.96875 5.1699219 L 31.96875 2.6757812 C 31.96875 2.2627035 31.633779 1.9277344 31.220703 1.9277344 L 28.726562 1.9277344 C 28.313488 1.9277344 27.978516 2.2627034 27.978516 2.6757812 L 27.978516 3.921875 L 4.0429688 3.921875 L 4.0429688 2.6757812 C 4.0429688 2.2627035 3.708 1.9277344 3.2949219 1.9277344 L 0.80078125 1.9277344 z M 7.34375 6.4042969 L 9.1660156 6.4042969 C 9.5192238 6.4023425 9.8066445 6.6897606 9.8046875 7.0429688 L 9.8046875 7.7441406 C 9.8066094 8.4810585 10.403707 9.0781513 11.140625 9.0800781 L 12.193359 9.0800781 C 12.92423 9.0724057 13.513747 8.4770018 13.515625 7.7460938 L 13.515625 7.0449219 C 13.511694 6.6903455 13.797751 6.4023164 14.152344 6.4042969 L 15.96875 6.4042969 C 15.968515 7.0181817 15.967439 7.6344161 15.966797 8.2460938 C 15.954891 8.584936 15.679208 8.8574977 15.337891 8.859375 L 14.636719 8.859375 C 13.901153 8.8593523 13.302647 9.4519574 13.296875 10.1875 L 13.296875 11.238281 C 13.296872 11.97737 13.897633 12.576166 14.636719 12.574219 L 15.337891 12.574219 C 15.661388 12.575994 15.923501 12.821673 15.960938 13.134766 C 15.960201 13.770017 15.959334 14.392191 15.958984 15.033203 C 13.087294 15.023981 10.215461 15.029297 7.34375 15.029297 L 7.34375 13.212891 C 7.3456983 12.862423 7.063359 12.57615 6.7128906 12.574219 L 6.0117188 12.574219 C 5.2726329 12.576167 4.6718727 11.97737 4.671875 11.238281 L 4.671875 10.1875 C 4.6776577 9.4519574 5.2761531 8.8593523 6.0117188 8.859375 L 6.7128906 8.859375 C 7.0606223 8.8574667 7.3418338 8.5742949 7.34375 8.2265625 L 7.34375 6.4042969 z M 19.576172 7.4570312 L 20.626953 7.4570312 C 21.362496 7.4628139 21.955101 8.0613094 21.955078 8.796875 L 21.955078 9.4980469 C 21.956986 9.8457785 22.240158 10.12699 22.587891 10.128906 L 24.410156 10.128906 L 24.410156 11.951172 C 24.412111 12.30438 24.124693 12.591801 23.771484 12.589844 L 23.070312 12.589844 C 22.333398 12.591766 21.736302 13.188864 21.734375 13.925781 L 21.734375 14.976562 C 21.734592 14.997206 21.739092 15.016701 21.740234 15.037109 C 20.494441 15.038435 19.2493 15.037253 18.003906 15.037109 C 18.004258 14.393057 18.003175 13.76417 18.003906 13.132812 A 2.0451105 2.0451105 0 0 0 17.990234 12.888672 C 17.856083 11.766714 16.933837 10.946548 15.820312 10.710938 C 16.281025 10.612578 16.706235 10.409133 17.060547 10.128906 L 17.601562 10.128906 C 17.952031 10.130855 18.238303 9.8485153 18.240234 9.4980469 L 18.240234 8.796875 C 18.238286 8.0577891 18.837083 7.4570293 19.576172 7.4570312 z M 15.783203 16.845703 C 18.654894 16.854925 21.526726 16.849609 24.398438 16.849609 L 24.398438 18.666016 C 24.396489 19.016484 24.678829 19.302756 25.029297 19.304688 L 25.730469 19.304688 C 26.469555 19.302735 27.068362 19.899583 27.068359 20.638672 L 27.068359 21.691406 C 27.062577 22.426948 26.466034 23.019554 25.730469 23.019531 L 25.029297 23.019531 C 24.681565 23.02144 24.400352 23.302659 24.398438 23.650391 L 24.398438 25.474609 L 22.574219 25.474609 C 22.221011 25.476564 21.93359 25.189143 21.935547 24.835938 L 21.935547 24.134766 C 21.933625 23.397848 21.33848 22.800755 20.601562 22.798828 L 19.548828 22.798828 C 18.817957 22.806501 18.228441 23.401906 18.226562 24.132812 L 18.226562 24.832031 C 18.230493 25.186608 17.944436 25.47659 17.589844 25.474609 L 15.773438 25.474609 C 15.773671 24.860725 15.772795 24.24449 15.773438 23.632812 C 15.785341 23.293972 16.06298 23.021409 16.404297 23.019531 L 17.105469 23.019531 C 17.841035 23.019554 18.439542 22.426949 18.445312 21.691406 L 18.445312 20.638672 C 18.445316 19.899583 17.844555 19.30274 17.105469 19.304688 L 16.404297 19.304688 C 16.0808 19.302913 15.818686 19.057233 15.78125 18.744141 C 15.781986 18.108889 15.782854 17.486716 15.783203 16.845703 z "
     transform="scale(0.26458333)"
     id="path1010" />
  <style
     id="style815"
     type="text/css">
	.st0{fill:#00005B;}
	.st1{fill:#9999FF;}
</style>
  <style
     id="style815-2"
     type="text/css">
	.st0{fill:#00005B;}
	.st1{fill:#9999FF;}
</style>
</svg>
