<?xml version="1.0" encoding="UTF-8" standalone="no"?>
<!-- Created with Inkscape (http://www.inkscape.org/) -->

<svg
   xmlns:dc="http://purl.org/dc/elements/1.1/"
   xmlns:cc="http://creativecommons.org/ns#"
   xmlns:rdf="http://www.w3.org/1999/02/22-rdf-syntax-ns#"
   xmlns:svg="http://www.w3.org/2000/svg"
   xmlns="http://www.w3.org/2000/svg"
   xmlns:sodipodi="http://sodipodi.sourceforge.net/DTD/sodipodi-0.dtd"
   xmlns:inkscape="http://www.inkscape.org/namespaces/inkscape"
   width="32"
   height="32"
   viewBox="0 0 8.4666666 8.4666666"
   version="1.1"
   id="svg8"
   inkscape:version="0.92.5 (2060ec1f9f, 2020-04-08)"
   sodipodi:docname="comment_sl.svg">
  <defs
     id="defs2" />
  <sodipodi:namedview
     id="base"
     pagecolor="#ffffff"
     bordercolor="#666666"
     borderopacity="1.0"
     inkscape:pageopacity="0.0"
     inkscape:pageshadow="2"
     inkscape:zoom="7.9999995"
     inkscape:cx="-8.5649164"
     inkscape:cy="15.212675"
     inkscape:document-units="mm"
     inkscape:current-layer="svg8"
     showgrid="false"
     units="px"
     inkscape:window-width="1868"
     inkscape:window-height="1016"
     inkscape:window-x="0"
     inkscape:window-y="27"
     inkscape:window-maximized="1"
     showguides="false"
     inkscape:snap-bbox="true"
     inkscape:bbox-nodes="true"
     inkscape:snap-bbox-edge-midpoints="true"
     inkscape:bbox-paths="true"
     inkscape:snap-bbox-midpoints="true"
     inkscape:snap-nodes="false">
    <sodipodi:guide
       position="8.4666666,0"
       orientation="-32,0"
       id="guide854"
       inkscape:locked="false" />
    <sodipodi:guide
       position="8.4666666,8.4666666"
       orientation="0,-32"
       id="guide856"
       inkscape:locked="false" />
    <sodipodi:guide
       position="0,8.4666814"
       orientation="32,0"
       id="guide858"
       inkscape:locked="false" />
  </sodipodi:namedview>
  <metadata
     id="metadata5">
    <rdf:RDF>
      <cc:Work
         rdf:about="">
        <dc:format>image/svg+xml</dc:format>
        <dc:type
           rdf:resource="http://purl.org/dc/dcmitype/StillImage" />
        <dc:title />
      </cc:Work>
    </rdf:RDF>
  </metadata>
  <path
     style="fill:#8ad891;fill-opacity:1;stroke-width:0.06224579"
     d="M 3.6464844 0.125 C 1.6308976 0.125 0.009765625 1.7480851 0.009765625 3.7636719 C 0.012837575 12.184965 0.009765625 20.588327 0.009765625 29.007812 C 0.009765625 30.657949 1.3459607 31.994141 2.9960938 31.994141 L 15.703125 31.994141 C 16.49505 31.993807 17.254449 31.679089 17.814453 31.119141 L 29.28125 19.654297 C 30.470876 18.550483 31.878906 17.366213 31.878906 16.183594 L 31.878906 15.818359 L 31.878906 3.7636719 C 31.878906 1.7480851 30.255821 0.125 28.240234 0.125 L 16.185547 0.125 L 3.6464844 0.125 z M 7.7539062 3.6113281 L 24.134766 3.6113281 C 24.677536 3.6113281 25.117188 4.0509823 25.117188 4.59375 L 25.117188 7.2148438 C 25.117188 7.7576164 24.677534 8.1972656 24.134766 8.1972656 L 7.7539062 8.1972656 C 7.2111362 8.1972656 6.7714844 7.7576138 6.7714844 7.2148438 L 6.7714844 4.59375 C 6.7714844 4.05098 7.2111385 3.6113281 7.7539062 3.6113281 z M 7.7539062 11.472656 L 24.134766 11.472656 C 24.677536 11.472656 25.117188 11.912308 25.117188 12.455078 L 25.117188 15.076172 C 25.117188 15.618944 24.677534 16.058594 24.134766 16.058594 L 7.7539062 16.058594 C 7.2111362 16.058594 6.7714844 15.618941 6.7714844 15.076172 L 6.7714844 12.455078 C 6.7714844 11.912306 7.2111385 11.472656 7.7539062 11.472656 z M 6.9804688 22.035156 C 8.6306096 22.035156 9.96875 23.373302 9.96875 25.023438 C 9.96875 26.673573 8.6306096 28.011719 6.9804688 28.011719 C 5.3303353 28.011719 3.9921875 26.673573 3.9921875 25.023438 C 3.9921875 23.373301 5.3303353 22.035156 6.9804688 22.035156 z "
     transform="scale(0.26458333)"
     id="path4518" />
</svg>
