<?xml version="1.0" encoding="UTF-8" standalone="no"?>
<!-- Created with Inkscape (http://www.inkscape.org/) -->

<svg
   width="32"
   height="32"
   viewBox="0 0 8.4666666 8.4666666"
   version="1.1"
   id="svg8"
   inkscape:version="1.1.1 (3bf5ae0d25, 2021-09-20)"
   sodipodi:docname="create-from-template.svg"
   xmlns:inkscape="http://www.inkscape.org/namespaces/inkscape"
   xmlns:sodipodi="http://sodipodi.sourceforge.net/DTD/sodipodi-0.dtd"
   xmlns="http://www.w3.org/2000/svg"
   xmlns:svg="http://www.w3.org/2000/svg"
   xmlns:rdf="http://www.w3.org/1999/02/22-rdf-syntax-ns#"
   xmlns:cc="http://creativecommons.org/ns#"
   xmlns:dc="http://purl.org/dc/elements/1.1/">
  <defs
     id="defs2">
    <style
       id="style1399">.cls-1{fill:#e3e3e3;}</style>
    <style
       id="style1399-4">.cls-1{fill:#e3e3e3;}</style>
    <style
       id="style1399-8">.cls-1{fill:#e3e3e3;}</style>
    <style
       id="style1399-4-5">.cls-1{fill:#e3e3e3;}</style>
    <style
       id="style1399-9">.cls-1{fill:#e3e3e3;}</style>
    <style
       id="style1399-4-6">.cls-1{fill:#e3e3e3;}</style>
    <style
       id="style1399-8-4">.cls-1{fill:#e3e3e3;}</style>
    <style
       id="style1399-4-5-3">.cls-1{fill:#e3e3e3;}</style>
    <style
       id="style1399-88">.cls-1{fill:#e3e3e3;}</style>
  </defs>
  <sodipodi:namedview
     id="base"
     pagecolor="#ffffff"
     bordercolor="#666666"
     borderopacity="1.0"
     inkscape:pageopacity="0.0"
     inkscape:pageshadow="2"
     inkscape:zoom="16"
     inkscape:cx="27.75"
     inkscape:cy="21.53125"
     inkscape:document-units="mm"
     inkscape:current-layer="svg8"
     showgrid="false"
     units="px"
     inkscape:window-width="3378"
     inkscape:window-height="1417"
     inkscape:window-x="1974"
     inkscape:window-y="-8"
     inkscape:window-maximized="1"
     inkscape:pagecheckerboard="0"
     inkscape:snap-bbox="true"
     inkscape:bbox-paths="true"
     inkscape:bbox-nodes="true"
     inkscape:snap-bbox-edge-midpoints="true"
     inkscape:snap-bbox-midpoints="true"
     inkscape:snap-nodes="false">
    <sodipodi:guide
       position="8.4666666,0"
       orientation="-32,0"
       id="guide854"
       inkscape:locked="false" />
    <sodipodi:guide
       position="8.5622298,8.4657622"
       orientation="0,-32"
       id="guide856"
       inkscape:locked="false" />
    <sodipodi:guide
       position="0,8.4666814"
       orientation="32,0"
       id="guide858"
       inkscape:locked="false" />
  </sodipodi:namedview>
  <metadata
     id="metadata5">
    <rdf:RDF>
      <cc:Work
         rdf:about="">
        <dc:format>image/svg+xml</dc:format>
        <dc:type
           rdf:resource="http://purl.org/dc/dcmitype/StillImage" />
      </cc:Work>
    </rdf:RDF>
  </metadata>
  <path
     id="path1112"
     style="fill:#8ad891;fill-opacity:1;stroke-width:0.0624884"
     d="m 9.5058594,0.00390625 c -0.8310955,0 -1.5,0.66888189 -1.5,1.49999995 v 3.1601563 c 0.9486116,-0.7049011 2.1203016,-1.125 3.3847656,-1.125 3.13831,0 5.712891,2.5765338 5.712891,5.7148437 0,0.6497054 -0.256759,1.1995478 -0.457032,1.7714848 l 1.742188,3.019531 c 0.04554,-0.06619 0.126136,-0.0964 0.169922,-0.164063 0.586266,-0.905255 1.865625,-1.279643 2.855468,-0.730468 v 0.002 0.002 0.002 0.002 l 1.248047,0.693359 c 1.047169,0.584233 1.464727,1.956289 0.791016,3.019532 -0.598094,0.94488 -1.327248,1.780884 -2.111328,2.546875 0.08635,0.04817 0.167507,0.105115 0.242187,0.169922 l 2.451172,4.236328 c 0.157324,0.270125 0.222454,0.584118 0.185547,0.894531 l -0.310547,2.589844 c -0.167734,1.387744 -1.700718,2.262265 -2.982422,1.720703 l -2.398437,-1.019531 c -0.287815,-0.119554 -0.529064,-0.329275 -0.6875,-0.597657 l -2.421875,-4.191406 c -0.02214,-0.107256 -0.03197,-0.216688 -0.0293,-0.326172 -1.287677,0.378616 -2.621373,0.621094 -4,0.621094 -1.176081,0 -2.2861399,-0.286104 -3.3847656,-0.595703 v 7.576172 c 0,0.831118 0.6689045,1.5 1.5,1.5 H 30.501953 c 0.831099,0 1.498047,-0.668882 1.498047,-1.5 V 8.0019531 7.6191406 C 32,7.225465 31.843697,6.8456878 31.5625,6.5644531 L 25.445312,0.44140625 c -0.281196,-0.2815748 -0.662573,-0.4375 -1.0625,-0.4375 H 24.001953 Z M 11.390625,9.2382812 c -0.0049,0.00492 -0.0049,0.024376 0,0.029297 0.0074,-0.00492 0.0074,-0.024375 0,-0.029297 z m 0.0078,7.0058598 -0.820313,1.410156 c 0.268326,0.09973 0.538038,0.132812 0.8125,0.132812 0.277633,0 0.51594,-0.07097 0.78125,-0.199218 z"
     transform="scale(0.26458333)"
     sodipodi:nodetypes="sscssccccccccccccccccccccscsssscsccscscccccscc" />
  <path
     id="path5149"
     d="M 5.3816685,5.3739547 C 5.0866842,5.6133573 4.7619069,5.8117798 4.4096924,5.9515586 L 5.0500613,7.0607234 5.6853667,7.3320383 C 5.800888,7.3813788 5.931364,7.3060137 5.946437,7.1813078 L 6.0291032,6.4953659 Z M 5.882023,4.260433 C 5.9392536,4.1701123 5.9042796,4.0485858 5.8107795,3.9967723 L 5.480232,3.8134226 C 5.3921489,3.7645532 5.2846356,3.796229 5.2298782,3.88078 4.7457743,4.628898 3.9125171,5.0863887 3.0146104,5.0863887 c -0.2817952,0 -0.556172,-0.050047 -0.8173595,-0.1357753 L 2.9904702,3.5766109 c 0.00825,2.279e-4 0.01578,0.00247 0.024022,0.00247 0.00825,0 0.015899,-0.00224 0.024022,-0.00247 L 3.6401424,4.6187711 C 4.0079012,4.5132598 4.3415102,4.3155437 4.6129429,4.0426979 L 4.0030731,2.986289 c 0.08773,-0.1605044 0.1420165,-0.3418522 0.1420165,-0.5376838 0,-0.6243543 -0.5061248,-1.1304791 -1.1304792,-1.1304791 -0.6243539,0 -1.1304787,0.5061248 -1.1304787,1.1304791 0,0.1958316 0.054286,0.3771794 0.1418986,0.5376838 L 1.2217417,4.3794866 C 1.0739551,4.2427693 0.93959309,4.089919 0.82513214,3.9202294 0.76872585,3.8366211 0.66062383,3.8069461 0.57336492,3.8574644 L 0.24658591,4.0467018 C 0.15414569,4.1001642 0.12140905,4.2221616 0.18017002,4.3113045 0.36351969,4.5896849 0.58867347,4.8319136 0.83938058,5.0416411 L 0,6.4954839 0.08266635,7.1814258 c 0.01507425,0.1247055 0.14554908,0.2000709 0.26106993,0.15073 L 0.97904175,7.0608409 1.8127699,5.6167723 c 0.3790639,0.1441359 0.785212,0.2232694 1.2018404,0.2232694 1.1663953,0 2.2477689,-0.6006846 2.8674127,-1.5796087 z M 3.0146104,2.0717787 c 0.2080791,0 0.3768266,0.1687475 0.3768266,0.3768266 0,0.2080786 -0.1687475,0.3768261 -0.3768266,0.3768261 -0.2080787,0 -0.3768261,-0.1687475 -0.3768261,-0.3768261 0,-0.2080791 0.1687474,-0.3768266 0.3768261,-0.3768266 z"
     inkscape:connector-curvature="0"
     style="fill:#8ad891;fill-opacity:1;stroke-width:0.0117758" />
</svg>
