<?xml version="1.0" encoding="UTF-8" standalone="no"?>
<!-- Created with Inkscape (http://www.inkscape.org/) -->

<svg
   xmlns:dc="http://purl.org/dc/elements/1.1/"
   xmlns:cc="http://creativecommons.org/ns#"
   xmlns:rdf="http://www.w3.org/1999/02/22-rdf-syntax-ns#"
   xmlns:svg="http://www.w3.org/2000/svg"
   xmlns="http://www.w3.org/2000/svg"
   xmlns:sodipodi="http://sodipodi.sourceforge.net/DTD/sodipodi-0.dtd"
   xmlns:inkscape="http://www.inkscape.org/namespaces/inkscape"
   width="32"
   height="32"
   viewBox="0 0 8.4666666 8.4666666"
   version="1.1"
   id="svg8"
   inkscape:version="0.92.5 (2060ec1f9f, 2020-04-08)"
   sodipodi:docname="cut_sl.svg">
  <defs
     id="defs2">
    <style
       id="style1399">.cls-1{fill:#e3e3e3;}</style>
    <style
       id="style1399-4">.cls-1{fill:#e3e3e3;}</style>
    <style
       id="style1399-8">.cls-1{fill:#e3e3e3;}</style>
    <style
       id="style1399-4-5">.cls-1{fill:#e3e3e3;}</style>
    <style
       id="style1399-0">.cls-1{fill:#e3e3e3;}</style>
    <style
       id="style854">.cls-1{fill:#e3e3e3;}</style>
    <style
       id="style1399-84">.cls-1{fill:#e3e3e3;}</style>
    <style
       id="style1399-4-8">.cls-1{fill:#e3e3e3;}</style>
    <style
       id="style1399-8-10">.cls-1{fill:#e3e3e3;}</style>
    <style
       id="style1399-4-5-3">.cls-1{fill:#e3e3e3;}</style>
    <style
       id="style1399-0-0">.cls-1{fill:#e3e3e3;}</style>
    <style
       id="style1399-5">.cls-1{fill:#e3e3e3;}</style>
    <style
       id="style1399-4-6">.cls-1{fill:#e3e3e3;}</style>
    <style
       id="style1399-8-1">.cls-1{fill:#e3e3e3;}</style>
    <style
       id="style1399-4-5-1">.cls-1{fill:#e3e3e3;}</style>
    <style
       id="style1399-0-5">.cls-1{fill:#e3e3e3;}</style>
  </defs>
  <sodipodi:namedview
     id="base"
     pagecolor="#ffffff"
     bordercolor="#666666"
     borderopacity="1.0"
     inkscape:pageopacity="0.0"
     inkscape:pageshadow="2"
     inkscape:zoom="5.656854"
     inkscape:cx="-39.651309"
     inkscape:cy="7.1410167"
     inkscape:document-units="mm"
     inkscape:current-layer="svg8"
     showgrid="false"
     units="px"
     inkscape:window-width="1868"
     inkscape:window-height="1016"
     inkscape:window-x="0"
     inkscape:window-y="27"
     inkscape:window-maximized="1"
     inkscape:snap-bbox="true"
     inkscape:bbox-paths="true"
     inkscape:bbox-nodes="true"
     inkscape:snap-bbox-edge-midpoints="true"
     inkscape:snap-bbox-midpoints="true"
     inkscape:snap-nodes="true"
     inkscape:snap-others="true"
     inkscape:snap-object-midpoints="true"
     inkscape:snap-page="true"
     showguides="false">
    <sodipodi:guide
       position="8.4666666,0"
       orientation="-32,0"
       id="guide854"
       inkscape:locked="false" />
    <sodipodi:guide
       position="8.4666666,8.4666666"
       orientation="0,-32"
       id="guide856"
       inkscape:locked="false" />
    <sodipodi:guide
       position="0,8.4666814"
       orientation="32,0"
       id="guide858"
       inkscape:locked="false" />
  </sodipodi:namedview>
  <metadata
     id="metadata5">
    <rdf:RDF>
      <cc:Work
         rdf:about="">
        <dc:format>image/svg+xml</dc:format>
        <dc:type
           rdf:resource="http://purl.org/dc/dcmitype/StillImage" />
        <dc:title />
      </cc:Work>
    </rdf:RDF>
  </metadata>
  <path
     id="path834-3"
     d="m 5.25505,4.2333335 3.1451399,-3.145329 c 0.088636,-0.0886358 0.088636,-0.23226639 0,-0.32071284 -0.6198807,-0.61988094 -1.6251087,-0.61988094 -2.2449896,0 L 3.9721987,2.9504822 3.5023743,2.4806578 C 3.5838279,2.2742827 3.6286186,2.0495759 3.6286186,1.8142858 3.6286186,0.81227081 2.8163471,0 1.8143329,0 0.81231781,0 4.7348179e-5,0.81227081 4.7348179e-5,1.8142858 c 0,1.0020149 0.812270461821,1.8142858 1.814285551821,1.8142858 0.0858,0 0.1698999,-0.00605 0.2524878,-0.017576 l 0.622338,0.6223381 -0.622338,0.6223377 c -0.082588,-0.011528 -0.1668764,-0.017576 -0.2524878,-0.017576 -1.00201509,0 -1.814285551821,0.8122711 -1.814285551821,1.814286 0,1.0020148 0.812270461821,1.8142854 1.814285551821,1.8142854 1.0020142,0 1.8142857,-0.8122706 1.8142857,-1.8142854 0,-0.2352901 -0.04479,-0.4599969 -0.1262443,-0.6663722 L 3.9721987,5.5161847 6.1552003,7.6993754 c 0.6198809,0.6198805 1.6251089,0.6198805 2.2449896,0 0.088636,-0.088446 0.088636,-0.2320781 0,-0.3207132 z M 1.8143329,2.4190476 c -0.3333751,0 -0.6047622,-0.2713868 -0.6047622,-0.6047618 0,-0.333375 0.2713871,-0.604762 0.6047622,-0.604762 0.3333749,0 0.6047614,0.271387 0.6047614,0.604762 0,0.333375 -0.2713865,0.6047618 -0.6047614,0.6047618 z m 0,4.8380953 c -0.3333751,0 -0.6047622,-0.2713869 -0.6047622,-0.6047616 0,-0.3333751 0.2713871,-0.6047621 0.6047622,-0.6047621 0.3333749,0 0.6047614,0.271387 0.6047614,0.6047621 0,0.3333747 -0.2713865,0.6047616 -0.6047614,0.6047616 z"
     inkscape:connector-curvature="0"
     style="stroke-width:0.01889881;fill:#d588f1;fill-opacity:1" />
</svg>
