<?xml version="1.0" encoding="UTF-8" standalone="no"?>
<!-- Created with Inkscape (http://www.inkscape.org/) -->

<svg
   xmlns:dc="http://purl.org/dc/elements/1.1/"
   xmlns:cc="http://creativecommons.org/ns#"
   xmlns:rdf="http://www.w3.org/1999/02/22-rdf-syntax-ns#"
   xmlns:svg="http://www.w3.org/2000/svg"
   xmlns="http://www.w3.org/2000/svg"
   xmlns:xlink="http://www.w3.org/1999/xlink"
   xmlns:sodipodi="http://sodipodi.sourceforge.net/DTD/sodipodi-0.dtd"
   xmlns:inkscape="http://www.inkscape.org/namespaces/inkscape"
   width="32"
   height="32"
   viewBox="0 0 8.4666666 8.4666666"
   version="1.1"
   id="svg8"
   inkscape:version="0.92.5 (2060ec1f9f, 2020-04-08)"
   sodipodi:docname="daemon.svg">
  <defs
     id="defs2">
    <style
       id="style1399">.cls-1{fill:#e3e3e3;}</style>
    <style
       id="style1281">.cls-1{fill:#e3e3e3;}</style>
    <style
       id="style1301">.cls-1{fill:#e3e3e3;}</style>
    <linearGradient
       id="linearGradient1373">
      <stop
         id="stop1369"
         offset="0"
         style="stop-color:#343434;stop-opacity:1" />
      <stop
         id="stop1371"
         offset="1"
         style="stop-color:#4d4d4d;stop-opacity:1" />
    </linearGradient>
    <linearGradient
       id="linearGradient4663-8-4">
      <stop
         offset="0"
         style="stop-color:#5596ea;stop-opacity:1"
         id="stop4665-6-3" />
      <stop
         offset="1"
         style="stop-color:#5596ea;stop-opacity:0"
         id="stop4667-8-0" />
    </linearGradient>
    <linearGradient
       y2="200.87404"
       x2="1280.8954"
       y1="62.713318"
       x1="1142.5884"
       gradientTransform="rotate(-5.8887665,1223.2651,99.834013)"
       gradientUnits="userSpaceOnUse"
       id="linearGradient1403"
       xlink:href="#linearGradient1373" />
    <linearGradient
       gradientTransform="matrix(0.0111212,0.99993816,0.99993816,-0.0111212,1077.8896,-1093.5223)"
       y2="89.862335"
       x2="1324.9103"
       y1="230.86234"
       x1="1327.5938"
       gradientUnits="userSpaceOnUse"
       id="linearGradient1405"
       xlink:href="#linearGradient4663-8-4" />
    <style
       id="style1435">.cls-1{fill:#ec1818;}</style>
    <style
       id="style2">.a{filter:url(#a);}.b{fill:#710132;}.c{fill:#e3e3e3;}</style>
    <filter
       name="AI_FlouGaussien_4"
       id="a">
      <feGaussianBlur
         id="feGaussianBlur4"
         stdDeviation="4" />
    </filter>
  </defs>
  <sodipodi:namedview
     id="base"
     pagecolor="#ffffff"
     bordercolor="#666666"
     borderopacity="1.0"
     inkscape:pageopacity="0.0"
     inkscape:pageshadow="2"
     inkscape:zoom="8.0000004"
     inkscape:cx="50.662313"
     inkscape:cy="17.966163"
     inkscape:document-units="mm"
     inkscape:current-layer="svg8"
     showgrid="false"
     units="px"
     inkscape:window-width="1848"
     inkscape:window-height="1136"
     inkscape:window-x="0"
     inkscape:window-y="27"
     inkscape:window-maximized="1">
    <sodipodi:guide
       position="8.4666666,0"
       orientation="-32,0"
       id="guide854"
       inkscape:locked="false" />
    <sodipodi:guide
       position="8.4666666,8.4666666"
       orientation="0,-32"
       id="guide856"
       inkscape:locked="false" />
    <sodipodi:guide
       position="0,8.4666814"
       orientation="32,0"
       id="guide858"
       inkscape:locked="false" />
  </sodipodi:namedview>
  <metadata
     id="metadata5">
    <rdf:RDF>
      <cc:Work
         rdf:about="">
        <dc:format>image/svg+xml</dc:format>
        <dc:type
           rdf:resource="http://purl.org/dc/dcmitype/StillImage" />
        <dc:title></dc:title>
      </cc:Work>
    </rdf:RDF>
  </metadata>
  <path
     style="fill:#83d3f6;fill-opacity:1;stroke:none;stroke-width:1.32522428px;stroke-linecap:butt;stroke-linejoin:miter;stroke-opacity:1"
     d="m 14.433594,0 c 2.087458,1.3963237 2.819253,3.2582139 3.243471,5.1597637 0.424194,-0.0535 0.400933,-0.045155 0.828794,-0.058201 0.02734,-8.762e-4 0.05469,-8.762e-4 0.08203,0 0.667194,0.023368 1.307821,0.098341 1.923828,0.2109375 C 19.572507,2.9375181 17.793079,0.32937161 14.433594,0 Z"
     transform="scale(0.26458333)"
     id="path851"
     inkscape:connector-curvature="0"
     sodipodi:nodetypes="cccccc" />
  <path
     style="display:inline;fill:#83d3f6;fill-opacity:1;stroke-width:0.06442148"
     d="M 18.541016 6.3808594 A 12.815297 12.815297 0 0 0 14.570312 7.1523438 C 14.782636 7.3542492 14.9995 7.5474591 15.214844 7.7363281 C 16.08988 8.5037861 16.960176 9.1174993 17.634766 9.9433594 C 17.97206 10.356289 18.282254 10.867318 18.365234 11.494141 C 18.448214 12.120964 18.258491 12.786862 17.908203 13.339844 C 17.504217 13.977597 16.80372 14.421467 16.099609 14.527344 C 15.395499 14.63322 14.726401 14.47555 14.099609 14.195312 C 12.846026 13.634837 11.678093 12.566028 10.681641 11.167969 C 10.432527 10.818454 10.195548 10.44565 9.9746094 10.052734 A 12.815297 12.815297 0 0 0 8.7949219 11.355469 C 7.9804673 12.768061 7.5117188 14.404584 7.5117188 16.152344 C 7.5117188 17.941919 7.8256945 19.230049 8.4453125 20.150391 C 9.032662 21.116036 9.8498056 21.936205 10.921875 22.439453 C 13.690066 23.740767 15.527787 23.769043 16.429688 24.644531 C 17.250486 25.439291 17.529748 28.136203 14.46875 31.181641 A 12.815297 12.815297 0 0 0 18.783203 31.990234 L 19.134766 31.990234 A 12.815297 12.815297 0 0 0 23.691406 31.072266 C 23.192829 26.919969 25.762764 26.054325 26.541016 26.339844 C 27.388158 26.650356 28.911469 26.707113 29.28125 25.916016 C 29.651027 25.124921 28.943359 24.164472 28.943359 24.080078 C 28.943359 23.995693 29.39384 22.385173 29.451172 22.300781 C 29.508515 22.216396 29.790013 22.075781 29.818359 21.792969 C 29.846744 21.510158 29.621094 21.462891 29.621094 21.462891 C 29.605484 21.233413 29.615997 21.000842 29.650391 20.773438 C 29.907448 20.669168 30.050003 20.395443 29.988281 20.125 C 29.988281 20.125 29.231636 18.873761 29.341797 18.142578 C 29.451981 17.411393 30.495585 17.297348 30.693359 16.789062 C 29.732836 13.850797 28.095377 13.316371 27.388672 13.005859 C 26.681968 12.695349 26.513128 11.70455 26.400391 11.224609 C 26.287654 10.74467 25.752018 10.32228 25.328125 9.9550781 C 24.904231 9.5878743 24.423314 8.4556524 23.576172 7.8339844 C 22.357834 7.0169677 20.570953 6.4519557 18.541016 6.3808594 z M 25.892578 12.544922 C 25.892578 12.544922 26.555595 12.961818 26.457031 13.720703 C 26.457031 13.720703 25.892183 14.002868 24.810547 13.720703 C 25.045683 13.060384 25.892578 12.544922 25.892578 12.544922 z "
     transform="scale(0.26458333)"
     id="circle15" />
  <path
     sodipodi:nodetypes="czc"
     inkscape:connector-curvature="0"
     id="path869"
     d="M 2.780312,0.12276901 C 1.8458369,2.0628371 3.9613313,4.1638042 4.4708559,3.3594439 4.9803805,2.5550836 2.7785575,2.3791443 2.780312,0.12276901 Z"
     style="fill:#83d3f6;fill-opacity:1;stroke:none;stroke-width:0.35063225px;stroke-linecap:butt;stroke-linejoin:miter;stroke-opacity:1" />
</svg>
