<?xml version="1.0" encoding="UTF-8" standalone="no"?>
<svg
   width="32"
   height="32"
   viewBox="0 0 8.4666666 8.4666666"
   version="1.1"
   id="svg8"
   inkscape:version="1.1.1 (3bf5ae0d25, 2021-09-20)"
   sodipodi:docname="load_sl.svg"
   xmlns:inkscape="http://www.inkscape.org/namespaces/inkscape"
   xmlns:sodipodi="http://sodipodi.sourceforge.net/DTD/sodipodi-0.dtd"
   xmlns="http://www.w3.org/2000/svg"
   xmlns:svg="http://www.w3.org/2000/svg"
   xmlns:rdf="http://www.w3.org/1999/02/22-rdf-syntax-ns#"
   xmlns:cc="http://creativecommons.org/ns#"
   xmlns:dc="http://purl.org/dc/elements/1.1/">
  <defs
     id="defs2" />
  <sodipodi:namedview
     id="base"
     pagecolor="#ffffff"
     bordercolor="#666666"
     borderopacity="1.0"
     inkscape:pageopacity="0.0"
     inkscape:pageshadow="2"
     inkscape:zoom="4"
     inkscape:cx="-42.375"
     inkscape:cy="9.875"
     inkscape:document-units="mm"
     inkscape:current-layer="layer1"
     showgrid="false"
     units="px"
     inkscape:window-width="1858"
     inkscape:window-height="1057"
     inkscape:window-x="54"
     inkscape:window-y="150"
     inkscape:window-maximized="1"
     inkscape:document-rotation="0"
     inkscape:pagecheckerboard="0">
    <sodipodi:guide
       position="8.4666666,0"
       orientation="-32,0"
       id="guide854"
       inkscape:locked="false" />
    <sodipodi:guide
       position="8.4666666,8.4666666"
       orientation="0,-32"
       id="guide856"
       inkscape:locked="false" />
    <sodipodi:guide
       position="0,8.4666814"
       orientation="32,0"
       id="guide858"
       inkscape:locked="false" />
  </sodipodi:namedview>
  <metadata
     id="metadata5">
    <rdf:RDF>
      <cc:Work
         rdf:about="">
        <dc:format>image/svg+xml</dc:format>
        <dc:type
           rdf:resource="http://purl.org/dc/dcmitype/StillImage" />
      </cc:Work>
    </rdf:RDF>
  </metadata>
  <g
     inkscape:label="Layer 1"
     inkscape:groupmode="layer"
     id="layer1"
     transform="translate(0,-288.53334)">
    <path
       id="path1488"
       style="fill:#d588f1;fill-opacity:1;stroke-width:0.00957675"
       d="m 6.5585027,289.33486 c -0.05874,-3.6e-4 -0.117984,0.0219 -0.163298,0.0667 l -1.96112,1.93735 0.634069,0.63407 c 0.139354,0.13909 0.220659,0.32912 0.220659,0.53123 0,0.7308 -0.0052,1.47234 -0.0052,2.25516 l 0.293522,0.29714 c 0.0895,0.0907 0.234428,0.0916 0.325045,0.002 0,0 1.663133,-1.67251 2.498038,-2.46858 0.03838,-0.0379 0.0607,-0.0897 0.06098,-0.14418 l 0.0078,-1.18752 c 4.29e-4,-0.0547 -0.02139,-0.10676 -0.05994,-0.14576 -0.562458,-0.57011 -1.125751,-1.1394 -1.688787,-1.70894 -0.04477,-0.0453 -0.103007,-0.0684 -0.161747,-0.0687 z m -6.33087997,0.53795 c -0.12737,0 -0.22996,0.10255 -0.22996,0.22996 v 4.32635 c 0,0.12737 0.102589,0.22996 0.22996,0.22996 h 0.293522 v -2.96932 c 0,-0.4218 0.353413,-0.77567 0.77514697,-0.77567 0.846079,0.001 1.406077,0 2.378666,0 v -0.0408 -5.1e-4 c 0,-0.0517 -0.02043,-0.1017 -0.05736,-0.1385 l -0.803569,-0.80409 c -0.03693,-0.037 -0.08701,-0.0574 -0.139526,-0.0574 z m 1.06815197,1.58647 c -0.12737,0 -0.22996,0.10203 -0.22996,0.22944 v 4.28036 c 0,0.12737 0.102589,0.22944 0.22996,0.22944 h 3.217891 c 0.127371,0 0.230471,-0.10206 0.22996,-0.22944 -0.0046,-1.15487 -0.02408,-2.31024 0,-3.4649 0,-0.054 -0.02137,-0.10671 -0.05995,-0.14521 l -0.839225,-0.83975 c -0.03857,-0.0387 -0.09087,-0.0599 -0.145727,-0.0599 -0.800904,1e-5 -1.60205,0 -2.402954,0 z" />
  </g>
</svg>
