<?xml version="1.0" encoding="utf-8"?>
<svg width="32" height="32" viewBox="0 0 8.4666666 8.4666666" version="1.1" id="svg8" xmlns="http://www.w3.org/2000/svg">
  <path id="path837" style="stroke-width: 0.0499997; fill-opacity: 1; fill: rgb(227, 227, 227);" d="M 15.988281,0 C 15.864879,0.00132422 15.737578,0.01803125 15.611328,0.05078125 L 6.0117188,2.5371094 c -0.7125,0.1845001 -1.2109376,0.848375 -1.2109376,1.609375 0.010871,7.9058576 0,15.7628696 0,23.6503906 0,0.761 0.4984376,1.424875 1.2109376,1.609375 l 9.5996092,2.486328 c 1.01,0.262 1.988281,-0.528421 1.988281,-1.607422 0,-9.542318 0,-19.084635 0,-28.6269529 0,-0.94412509 -0.747512,-1.66747265 -1.611328,-1.6582031 z m 3.210938,3.1992188 V 6.4003906 H 24 C 24,12.78125 24,19.16211 24,25.542969 h -4.800781 v 3.201172 h 5.601562 c 1.3235,0 2.398438,-1.109657 2.398438,-2.472657 -0.0022,-6.879092 0,-13.711189 0,-20.599609 0,-1.3630001 -1.074938,-2.4726562 -2.398438,-2.4726562 z m -6,12.3125002 c 0.6625,0 1.201172,0.718062 1.201172,1.601562 0,0.8835 -0.538672,1.59961 -1.201172,1.59961 -0.6625,0 -1.199219,-0.71611 -1.199219,-1.59961 0,-0.8835 0.536719,-1.601562 1.199219,-1.601562 z" transform="scale(0.26458333)"/>
  <defs id="defs2">
    <style id="style1399">.cls-1{fill:#e3e3e3;}</style>
    <style id="style1399-1">.cls-1{fill:#e3e3e3;}</style>
    <style id="style1399-5">.cls-1{fill:#e3e3e3;}</style>
    <style id="style1399-8">.cls-1{fill:#e3e3e3;}</style>
    <style id="style1399-7">.cls-1{fill:#e3e3e3;}</style>
    <style id="style1399-1-5">.cls-1{fill:#e3e3e3;}</style>
    <style id="style1399-5-6">.cls-1{fill:#e3e3e3;}</style>
    <style id="style1399-8-9">.cls-1{fill:#e3e3e3;}</style>
    <style id="style1399-2">.cls-1{fill:#e3e3e3;}</style>
    <style id="style1399-1-1">.cls-1{fill:#e3e3e3;}</style>
    <style id="style1399-5-5">.cls-1{fill:#e3e3e3;}</style>
    <style id="style1399-8-99">.cls-1{fill:#e3e3e3;}</style>
  </defs>
</svg>