<?xml version="1.0" encoding="UTF-8" standalone="no"?>
<!-- Created with Inkscape (http://www.inkscape.org/) -->

<svg
   xmlns:dc="http://purl.org/dc/elements/1.1/"
   xmlns:cc="http://creativecommons.org/ns#"
   xmlns:rdf="http://www.w3.org/1999/02/22-rdf-syntax-ns#"
   xmlns:svg="http://www.w3.org/2000/svg"
   xmlns="http://www.w3.org/2000/svg"
   xmlns:sodipodi="http://sodipodi.sourceforge.net/DTD/sodipodi-0.dtd"
   xmlns:inkscape="http://www.inkscape.org/namespaces/inkscape"
   width="32"
   height="32"
   viewBox="0 0 8.4666666 8.4666666"
   version="1.1"
   id="svg8"
   inkscape:version="0.92.5 (2060ec1f9f, 2020-04-08)"
   sodipodi:docname="server-settings.svg">
  <defs
     id="defs2" />
  <sodipodi:namedview
     id="base"
     pagecolor="#ffffff"
     bordercolor="#666666"
     borderopacity="1.0"
     inkscape:pageopacity="0.0"
     inkscape:pageshadow="2"
     inkscape:zoom="8"
     inkscape:cx="35.547271"
     inkscape:cy="14.039182"
     inkscape:document-units="mm"
     inkscape:current-layer="layer1"
     showgrid="false"
     units="px"
     inkscape:window-width="1920"
     inkscape:window-height="1043"
     inkscape:window-x="1920"
     inkscape:window-y="120"
     inkscape:window-maximized="1">
    <sodipodi:guide
       position="8.4666666,0"
       orientation="-32,0"
       id="guide854"
       inkscape:locked="false" />
    <sodipodi:guide
       position="8.4666666,8.4666666"
       orientation="0,-32"
       id="guide856"
       inkscape:locked="false" />
    <sodipodi:guide
       position="0,8.4666814"
       orientation="32,0"
       id="guide858"
       inkscape:locked="false" />
  </sodipodi:namedview>
  <metadata
     id="metadata5">
    <rdf:RDF>
      <cc:Work
         rdf:about="">
        <dc:format>image/svg+xml</dc:format>
        <dc:type
           rdf:resource="http://purl.org/dc/dcmitype/StillImage" />
        <dc:title></dc:title>
      </cc:Work>
    </rdf:RDF>
  </metadata>
  <g
     inkscape:label="Layer 1"
     inkscape:groupmode="layer"
     id="layer1"
     transform="translate(0,-288.53334)">
    <path
       id="path1159"
       d="m 5.7444434,291.13753 c -0.2471692,-1.52223 -0.8301478,-2.59102 -1.5085847,-2.59102 -0.678437,0 -1.2614156,1.06879 -1.5085848,2.59102 z m -3.1450157,1.63642 c 0,0.37843 0.020456,0.74151 0.056253,1.09095 h 3.1586522 c 0.035797,-0.34944 0.056253,-0.71252 0.056253,-1.09095 0,-0.37841 -0.020456,-0.7415 -0.056253,-1.09094 H 2.6556804 c -0.035797,0.34944 -0.056253,0.71253 -0.056253,1.09094 z m 5.5348865,-1.63642 c -0.4875197,-1.15745 -1.4744919,-2.05237 -2.6932923,-2.41374 0.4159262,0.57617 0.7023014,1.44381 0.8523075,2.41374 z m -5.1053233,-2.41374 c -1.2170956,0.36137 -2.20577267,1.25629 -2.69158805,2.41374 H 2.1783878 c 0.1483013,-0.96993 0.4346769,-1.83757 0.8506031,-2.41374 z m 5.2877174,2.95922 h -1.955194 c 0.035798,0.35797 0.056253,0.72445 0.056253,1.09094 0,0.36649 -0.020455,0.73299 -0.056253,1.09095 h 1.9534894 c 0.093755,-0.34944 0.1465968,-0.71252 0.1465968,-1.09095 0,-0.37841 -0.052842,-0.7415 -0.1448922,-1.09094 z m -6.2627574,1.09094 c 0,-0.36649 0.020456,-0.73297 0.056253,-1.09094 H 0.15500952 c -0.09204894,0.34944 -0.14659698,0.71253 -0.14659698,1.09094 0,0.37843 0.05454805,0.74151 0.14659698,1.09095 H 2.1084984 c -0.034092,-0.35796 -0.054547,-0.72446 -0.054548,-1.09095 z m 0.673323,1.63643 c 0.2471692,1.52223 0.8301478,2.59102 1.5085848,2.59102 0.6784369,0 1.2614155,-1.06879 1.5085847,-2.59102 z m 2.7154525,2.41374 c 1.2170959,-0.36137 2.2057728,-1.2563 2.6932924,-2.41374 H 6.2950343 c -0.1500062,0.96992 -0.4363817,1.83758 -0.8523079,2.41374 z m -5.10532355,-2.41374 c 0.48752011,1.15744 1.47449245,2.05237 2.69329255,2.41374 -0.415926,-0.57616 -0.7023015,-1.44382 -0.8523076,-2.41374 z"
       inkscape:connector-curvature="0"
       style="fill:#83d3f6;fill-opacity:1;stroke-width:0.01704615" />
  </g>
</svg>
