<?xml version="1.0" encoding="UTF-8" standalone="no"?>
<!-- Created with Inkscape (http://www.inkscape.org/) -->

<svg
   width="32"
   height="32"
   viewBox="0 0 8.4666666 8.4666666"
   version="1.1"
   id="svg8"
   inkscape:version="1.1.1 (3bf5ae0d25, 2021-09-20)"
   sodipodi:docname="sort_no_sl.svg"
   xmlns:inkscape="http://www.inkscape.org/namespaces/inkscape"
   xmlns:sodipodi="http://sodipodi.sourceforge.net/DTD/sodipodi-0.dtd"
   xmlns="http://www.w3.org/2000/svg"
   xmlns:svg="http://www.w3.org/2000/svg"
   xmlns:rdf="http://www.w3.org/1999/02/22-rdf-syntax-ns#"
   xmlns:cc="http://creativecommons.org/ns#"
   xmlns:dc="http://purl.org/dc/elements/1.1/">
  <defs
     id="defs2" />
  <sodipodi:namedview
     id="base"
     pagecolor="#ffffff"
     bordercolor="#666666"
     borderopacity="1.0"
     inkscape:pageopacity="0.0"
     inkscape:pageshadow="2"
     inkscape:zoom="16"
     inkscape:cx="20.1875"
     inkscape:cy="16.96875"
     inkscape:document-units="mm"
     inkscape:current-layer="svg8"
     showgrid="false"
     units="px"
     inkscape:window-width="1858"
     inkscape:window-height="1057"
     inkscape:window-x="54"
     inkscape:window-y="150"
     inkscape:window-maximized="1"
     inkscape:snap-global="true"
     inkscape:snap-bbox="true"
     inkscape:snap-nodes="false"
     inkscape:bbox-paths="true"
     inkscape:bbox-nodes="true"
     inkscape:snap-bbox-edge-midpoints="true"
     inkscape:snap-bbox-midpoints="true"
     inkscape:pagecheckerboard="0">
    <sodipodi:guide
       position="8.4666666,0"
       orientation="-32,0"
       id="guide854"
       inkscape:locked="false" />
    <sodipodi:guide
       position="8.4666666,8.4666666"
       orientation="0,-32"
       id="guide856"
       inkscape:locked="false" />
    <sodipodi:guide
       position="0,8.4666814"
       orientation="32,0"
       id="guide858"
       inkscape:locked="false" />
  </sodipodi:namedview>
  <metadata
     id="metadata5">
    <rdf:RDF>
      <cc:Work
         rdf:about="">
        <dc:format>image/svg+xml</dc:format>
        <dc:type
           rdf:resource="http://purl.org/dc/dcmitype/StillImage" />
      </cc:Work>
    </rdf:RDF>
  </metadata>
  <path
     id="path1212"
     style="fill:#e3e3e3;fill-opacity:1;stroke-width:0.0624998"
     d="m 1.1249998,1.7851562 c -0.55228507,-8e-7 -1.00000081,0.4477149 -0.99999997,1 v 2 c -8.4e-7,0.5522851 0.4477149,1.0000008 0.99999997,1 l 21.8750002,0 c 0.552285,8e-7 1.000001,-0.4477149 1,-1 v -2 c 1e-6,-0.5522851 -0.447715,-1.0000008 -1,-1 z m 0,8 c -0.55228499,-8e-7 -0.99999997,0.4477148 -0.99999997,0.9999998 v 2 c 0,0.552285 0.4477149,1.000001 0.99999997,1 l 17.8750002,0 c 0.552285,10e-7 1.000001,-0.447715 1,-1 v -2 c 1e-6,-0.552285 -0.447715,-1.0000006 -1,-0.9999998 z m 0,7.9999998 c -0.55228507,-1e-6 -0.99999997,0.447715 -0.99999997,1 v 2 c 0,0.552285 0.4477149,1.000001 0.99999997,1 l 29.8750002,0 c 0.552285,1e-6 1.000001,-0.447715 1,-1 v -2 c 10e-7,-0.552285 -0.447715,-1.000001 -1,-1 z m 0,8 c -0.55228507,-1e-6 -0.99999997,0.447715 -0.99999997,1 v 2 c 0,0.552285 0.4477149,1.000001 0.99999997,1 l 25.8750002,0 c 0.552285,1e-6 1.000001,-0.447715 1,-1 v -2 c 1e-6,-0.552285 -0.447715,-1.000001 -1,-1 z"
     transform="scale(0.26458333)"
     sodipodi:nodetypes="cccccsscccssccsscccssccsscccssccsscc" />
</svg>
