<?xml version="1.0" encoding="utf-8"?>
<svg width="32" height="32" viewBox="0 0 8.4666666 8.4666666" version="1.1" id="svg8" xmlns="http://www.w3.org/2000/svg">
  <defs id="defs2">
    <style id="style1399">.cls-1{fill:#e3e3e3;}</style>
    <style id="style1399-4">.cls-1{fill:#e3e3e3;}</style>
    <style id="style1399-8">.cls-1{fill:#e3e3e3;}</style>
    <style id="style1399-4-5">.cls-1{fill:#e3e3e3;}</style>
    <style id="style1399-0">.cls-1{fill:#e3e3e3;}</style>
    <style id="style854">.cls-1{fill:#e3e3e3;}</style>
    <style id="style1399-84">.cls-1{fill:#e3e3e3;}</style>
    <style id="style1399-4-8">.cls-1{fill:#e3e3e3;}</style>
    <style id="style1399-8-10">.cls-1{fill:#e3e3e3;}</style>
    <style id="style1399-4-5-3">.cls-1{fill:#e3e3e3;}</style>
    <style id="style1399-0-0">.cls-1{fill:#e3e3e3;}</style>
    <style id="style1399-5">.cls-1{fill:#e3e3e3;}</style>
    <style id="style1399-4-6">.cls-1{fill:#e3e3e3;}</style>
    <style id="style1399-8-1">.cls-1{fill:#e3e3e3;}</style>
    <style id="style1399-4-5-1">.cls-1{fill:#e3e3e3;}</style>
    <style id="style1399-0-5">.cls-1{fill:#e3e3e3;}</style>
  </defs>
  <path style="stroke-width: 0.0625; fill: rgb(131, 211, 246);" d="M 16.121094 0 C 8.3919085 5.9211895e-16 2.1210938 2.0543936 2.1210938 4.5722656 L 2.1210938 27.427734 C 2.1210938 29.94561 8.3919085 32 16.121094 32 C 23.850282 32 30.121094 29.94561 30.121094 27.427734 L 30.121094 4.5722656 C 30.121094 2.0543936 23.850282 5.6997843e-17 16.121094 0 z M 16.0625 2.0625 C 22.241105 2.0625 27.253906 3.7040449 27.253906 5.7167969 C 27.253906 7.729549 22.241103 9.3710938 16.0625 9.3710938 C 9.8838951 9.3710938 4.8710938 7.729549 4.8710938 5.7167969 C 4.8710938 3.7040449 9.8838966 2.0625 16.0625 2.0625 z " transform="scale(0.26458333)" id="path834"/>
</svg>